solid AssimpScene
 facet normal 0 0 0
  outer loop
  vertex 0.0172499996 0.0561940484 0.00190983026
  vertex 0.0172499996 0.0584063642 0.00412214594
  vertex 0.0172499996 0.0603161938 0.00999999885
  endloop
 endfacet

 facet normal 0 0 0
  outer loop
  vertex 0.0172499996 0.0561940484 0.00190983026
  vertex 0.0172499996 0.0603161938 0.00999999885
  vertex 0.0172499996 0.0603161938 0.0718578622
  endloop
 endfacet

 facet normal 0 0 0
  outer loop
  vertex 0.0172499996 0.0561940484 0.00190983026
  vertex 0.0172499996 0.0603161938 0.0718578622
  vertex 0.0172499996 0.0589764453 0.0768578649
  endloop
 endfacet

 facet normal 0 0 0
  outer loop
  vertex 0.0172499996 0.0561940484 0.00190983026
  vertex 0.0172499996 0.0589764453 0.0768578649
  vertex 0.0172499996 0.0542991683 0.0820170268
  endloop
 endfacet

 facet normal 0 0 0
  outer loop
  vertex 0.0172499996 0.0561940484 0.00190983026
  vertex 0.0172499996 0.0542991683 0.0820170268
  vertex 0.0172499996 0.0253161974 0.0839999989
  endloop
 endfacet

 facet normal 0 0 0
  outer loop
  vertex 0.0172499996 0.0561940484 0.00190983026
  vertex 0.0172499996 0.0253161974 0.0839999989
  vertex 0.0172499996 -0.0217838008 0.0839999989
  endloop
 endfacet

 facet normal 0 0 0
  outer loop
  vertex 0.0172499996 0.0561940484 0.00190983026
  vertex 0.0172499996 -0.0217838008 0.0839999989
  vertex 0.0172499996 -0.0217838008 5.66244218e-10
  endloop
 endfacet

 facet normal 0 0 0
  outer loop
  vertex 0.0172499996 0.0561940484 0.00190983026
  vertex 0.0172499996 -0.0217838008 5.66244218e-10
  vertex 0.0172499996 0.0503161959 5.66244218e-10
  endloop
 endfacet

 facet normal 0 0 0
  outer loop
  vertex 0.00924999919 -0.0417838059 0.00829999987
  vertex -0.0172499996 -0.0259838011 5.66243941e-10
  vertex 0.0172499996 -0.0217838008 5.66244218e-10
  endloop
 endfacet

 facet normal 0 0 0
  outer loop
  vertex -0.0172499996 0.0503161959 5.66244496e-10
  vertex 0.0172499996 0.0503161959 5.66244218e-10
  vertex 0.0172499996 -0.0217838008 5.66244218e-10
  endloop
 endfacet

 facet normal 0 0 0
  outer loop
  vertex -0.0172499996 0.0503161959 5.66244496e-10
  vertex 0.0172499996 -0.0217838008 5.66244218e-10
  vertex -0.0172499996 -0.0259838011 5.66243941e-10
  endloop
 endfacet

 facet normal 0 0 0
  outer loop
  vertex 0.00924999919 -0.0417838059 0.0441999994
  vertex 0.0172499996 -0.0217838008 0.0839999989
  vertex -0.0172499996 -0.0259838011 0.0839999989
  endloop
 endfacet

 facet normal 0 0 0
  outer loop
  vertex 0.00924999919 -0.0417838059 0.0441999994
  vertex -0.0172499996 -0.0259838011 0.0839999989
  vertex 0.00675000018 -0.0417838059 0.0441999994
  endloop
 endfacet

 facet normal 0 0 0
  outer loop
  vertex -0.0172499996 0.0603161938 0.00999999885
  vertex -0.0172499996 0.0603161938 0.0718578622
  vertex 0.0172499996 0.0603161938 0.0718578622
  endloop
 endfacet

 facet normal 0 0 0
  outer loop
  vertex -0.0172499996 0.0603161938 0.00999999885
  vertex 0.0172499996 0.0603161938 0.0718578622
  vertex 0.0172499996 0.0603161938 0.00999999885
  endloop
 endfacet

 facet normal 0 0 0
  outer loop
  vertex -0.0172499996 0.0603161938 0.00999999885
  vertex 0.0172499996 0.0603161938 0.00999999885
  vertex 0.0172499996 0.0584063642 0.00412214594
  endloop
 endfacet

 facet normal 0 0 0
  outer loop
  vertex -0.0172499996 0.0603161938 0.00999999885
  vertex 0.0172499996 0.0584063642 0.00412214594
  vertex -0.0172499996 0.0584063642 0.00412214594
  endloop
 endfacet

 facet normal 0 0 0
  outer loop
  vertex -0.0172499996 0.0523161963 0.0839999989
  vertex 0.000417710369 0.0523161963 0.0839999989
  vertex 0.0172499996 0.0542991683 0.0820170268
  endloop
 endfacet

 facet normal 0 0 0
  outer loop
  vertex -0.0172499996 0.0523161963 0.0839999989
  vertex 0.0172499996 0.0542991683 0.0820170268
  vertex 0.0172499996 0.0589764453 0.0768578649
  endloop
 endfacet

 facet normal 0 0 0
  outer loop
  vertex -0.0172499996 0.0523161963 0.0839999989
  vertex 0.0172499996 0.0589764453 0.0768578649
  vertex -0.0172499996 0.0589764453 0.0768578649
  endloop
 endfacet

 facet normal 0 0 0
  outer loop
  vertex 0.0172499996 0.0589764453 0.0768578649
  vertex 0.0172499996 0.0603161938 0.0718578622
  vertex -0.0172499996 0.0603161938 0.0718578622
  endloop
 endfacet

 facet normal 0 0 0
  outer loop
  vertex 0.0172499996 0.0589764453 0.0768578649
  vertex -0.0172499996 0.0603161938 0.0718578622
  vertex -0.0172499996 0.0589764453 0.0768578649
  endloop
 endfacet

 facet normal 0 0 0
  outer loop
  vertex 0.0166165624 -0.027050674 0.0441999994
  vertex 0.0172499996 -0.0217838008 0.0839999989
  vertex 0.00924999919 -0.0417838059 0.0441999994
  endloop
 endfacet

 facet normal 0 0 0
  outer loop
  vertex 0.00675000018 -0.0417838059 0.00829999987
  vertex -0.0172499996 -0.0259838011 5.66243941e-10
  vertex 0.00924999919 -0.0417838059 0.00829999987
  endloop
 endfacet

 facet normal 0 0 0
  outer loop
  vertex 0.00675000018 -0.0417838059 0.00829999987
  vertex 0.00924999919 -0.0417838059 0.00829999987
  vertex 0.00924999919 -0.0417838059 0.0441999994
  endloop
 endfacet

 facet normal 0 0 0
  outer loop
  vertex 0.00675000018 -0.0417838059 0.00829999987
  vertex 0.00924999919 -0.0417838059 0.0441999994
  vertex 0.00675000018 -0.0417838059 0.0441999994
  endloop
 endfacet

 facet normal 0 0 0
  outer loop
  vertex 0.00675000018 -0.0417838059 0.00829999987
  vertex 0.00675000018 -0.0417838059 0.0441999994
  vertex -0.0172499996 -0.0259838011 0.0839999989
  endloop
 endfacet

 facet normal 0 0 0
  outer loop
  vertex 0.00675000018 -0.0417838059 0.00829999987
  vertex -0.0172499996 -0.0259838011 0.0839999989
  vertex -0.0172499996 -0.0259838011 5.66243941e-10
  endloop
 endfacet

 facet normal 0 0 0
  outer loop
  vertex 0.0166165624 -0.027050674 0.00829999987
  vertex 0.0172499996 -0.0217838008 5.66244218e-10
  vertex 0.0172499996 -0.0217838008 0.0839999989
  endloop
 endfacet

 facet normal 0 0 0
  outer loop
  vertex 0.0166165624 -0.027050674 0.00829999987
  vertex 0.0172499996 -0.0217838008 0.0839999989
  vertex 0.0166165624 -0.027050674 0.0441999994
  endloop
 endfacet

 facet normal 0 0 0
  outer loop
  vertex 0.0166165624 -0.027050674 0.00829999987
  vertex 0.0166165624 -0.027050674 0.0441999994
  vertex 0.00924999919 -0.0417838059 0.0441999994
  endloop
 endfacet

 facet normal 0 0 0
  outer loop
  vertex 0.0166165624 -0.027050674 0.00829999987
  vertex 0.00924999919 -0.0417838059 0.0441999994
  vertex 0.00924999919 -0.0417838059 0.00829999987
  endloop
 endfacet

 facet normal 0 0 0
  outer loop
  vertex 0.0166165624 -0.027050674 0.00829999987
  vertex 0.00924999919 -0.0417838059 0.00829999987
  vertex 0.0172499996 -0.0217838008 5.66244218e-10
  endloop
 endfacet

 facet normal 0 0 0
  outer loop
  vertex -0.0172499996 0.0561940484 0.00190983026
  vertex -0.0172499996 0.0584063642 0.00412214594
  vertex 0.0172499996 0.0584063642 0.00412214594
  endloop
 endfacet

 facet normal 0 0 0
  outer loop
  vertex -0.0172499996 0.0561940484 0.00190983026
  vertex 0.0172499996 0.0584063642 0.00412214594
  vertex 0.0172499996 0.0561940484 0.00190983026
  endloop
 endfacet

 facet normal 0 0 0
  outer loop
  vertex -0.0172499996 0.0561940484 0.00190983026
  vertex 0.0172499996 0.0561940484 0.00190983026
  vertex 0.0172499996 0.0503161959 5.66244218e-10
  endloop
 endfacet

 facet normal 0 0 0
  outer loop
  vertex -0.0172499996 0.0561940484 0.00190983026
  vertex 0.0172499996 0.0503161959 5.66244218e-10
  vertex -0.0172499996 0.0503161959 5.66244496e-10
  endloop
 endfacet

 facet normal 0 0 0
  outer loop
  vertex -0.0172499996 0.0561940484 0.00190983026
  vertex -0.0172499996 0.0503161959 5.66244496e-10
  vertex -0.0172499996 -0.0259838011 5.66243941e-10
  endloop
 endfacet

 facet normal 0 0 0
  outer loop
  vertex -0.0172499996 0.0561940484 0.00190983026
  vertex -0.0172499996 -0.0259838011 5.66243941e-10
  vertex -0.0172499996 -0.0259838011 0.0839999989
  endloop
 endfacet

 facet normal 0 0 0
  outer loop
  vertex -0.0172499996 0.0561940484 0.00190983026
  vertex -0.0172499996 -0.0259838011 0.0839999989
  vertex -0.0172499996 0.0523161963 0.0839999989
  endloop
 endfacet

 facet normal 0 0 0
  outer loop
  vertex -0.0172499996 0.0561940484 0.00190983026
  vertex -0.0172499996 0.0523161963 0.0839999989
  vertex -0.0172499996 0.0589764453 0.0768578649
  endloop
 endfacet

 facet normal 0 0 0
  outer loop
  vertex -0.0172499996 0.0561940484 0.00190983026
  vertex -0.0172499996 0.0589764453 0.0768578649
  vertex -0.0172499996 0.0603161938 0.0718578622
  endloop
 endfacet

 facet normal 0 0 0
  outer loop
  vertex -0.0172499996 0.0561940484 0.00190983026
  vertex -0.0172499996 0.0603161938 0.0718578622
  vertex -0.0172499996 0.0603161938 0.00999999885
  endloop
 endfacet

 facet normal 0 0 0
  outer loop
  vertex -0.0172499996 0.0561940484 0.00190983026
  vertex -0.0172499996 0.0603161938 0.00999999885
  vertex -0.0172499996 0.0584063642 0.00412214594
  endloop
 endfacet

 facet normal 0 0 0
  outer loop
  vertex 0.000417710369 0.0523161963 0.0839999989
  vertex -0.0172499996 0.0523161963 0.0839999989
  vertex -0.0172499996 -0.0259838011 0.0839999989
  endloop
 endfacet

 facet normal 0 0 0
  outer loop
  vertex 0.000417710369 0.0523161963 0.0839999989
  vertex -0.0172499996 -0.0259838011 0.0839999989
  vertex 0.0172499996 -0.0217838008 0.0839999989
  endloop
 endfacet

 facet normal 0 0 0
  outer loop
  vertex 0.000417710369 0.0523161963 0.0839999989
  vertex 0.0172499996 -0.0217838008 0.0839999989
  vertex 0.0172499996 0.0253161974 0.0839999989
  endloop
 endfacet

 facet normal 0 0 0
  outer loop
  vertex 0.000417710369 0.0523161963 0.0839999989
  vertex 0.0172499996 0.0253161974 0.0839999989
  vertex 0.0172499996 0.0542991683 0.0820170268
  endloop
 endfacet

endsolid AssimpScene
