solid AssimpScene
 facet normal 0 0 0
  outer loop
  vertex 0.0217271112 -0.0098446263 -0.00416856073
  vertex 0.0217271112 -0.0098446263 -0.0289999973
  vertex 0.023631243 -0.00970961712 -0.0317999944
  endloop
 endfacet

 facet normal 0 0 0
  outer loop
  vertex 0.0217271112 -0.0098446263 -0.00416856073
  vertex 0.023631243 -0.00970961712 -0.0317999944
  vertex 0.0634543449 -0.00970961712 -0.0287975688
  endloop
 endfacet

 facet normal 0 0 0
  outer loop
  vertex 0.0217271112 -0.0098446263 -0.00416856073
  vertex 0.0634543449 -0.00970961712 -0.0287975688
  vertex 0.0684413686 -0.00955737568 -0.013274868
  endloop
 endfacet

 facet normal 0 0 0
  outer loop
  vertex 0.0217271112 -0.0098446263 -0.00416856073
  vertex 0.0684413686 -0.00955737568 -0.013274868
  vertex 0.0634543449 -0.00970961712 -0.00619757082
  endloop
 endfacet

 facet normal 0 0 0
  outer loop
  vertex 0.0483851656 -0.00770961726 -0.00250644656
  vertex 0.0634543449 -0.00970961712 -0.00619757082
  vertex 0.0575141832 -0.000291752396 -0.00393252261
  endloop
 endfacet

 facet normal 0 0 0
  outer loop
  vertex 0.0634543449 -0.00970961712 -0.0287975688
  vertex 0.0670587122 -0.00077244523 -0.0263068751
  vertex 0.066970408 -0.00844458304 -0.0263117068
  endloop
 endfacet

 facet normal 0 0 0
  outer loop
  vertex 0.0634543449 -0.00970961712 -0.0287975688
  vertex 0.066970408 -0.00844458304 -0.0263117068
  vertex 0.0694373176 -0.00912383012 -0.0204449743
  endloop
 endfacet

 facet normal 0 0 0
  outer loop
  vertex 0.0462860614 -0.00770961726 -0.0326073058
  vertex 0.0274999999 0.00999999978 -0.0317999944
  vertex 0.0545427352 0.000853242411 -0.0315794237
  endloop
 endfacet

 facet normal 0 0 0
  outer loop
  vertex 0.0462860614 -0.00770961726 -0.0326073058
  vertex 0.0545427352 0.000853242411 -0.0315794237
  vertex 0.0596606322 -0.00770961726 -0.0303893443
  endloop
 endfacet

 facet normal 0 0 0
  outer loop
  vertex 0.0217346326 0.00984775927 -0.00416856073
  vertex 0.0391562805 0.0145460973 -0.0154517693
  vertex 0.0217346326 0.00984775927 -0.030799998
  endloop
 endfacet

 facet normal 0 0 0
  outer loop
  vertex 0.0217346326 0.00984775927 -0.00416856073
  vertex 0.0217346326 0.00984775927 -0.030799998
  vertex 0.0205000024 0.00800000038 -0.030799998
  endloop
 endfacet

 facet normal 0 0 0
  outer loop
  vertex 0.0217346326 0.00984775927 -0.00416856073
  vertex 0.0205000024 0.00800000038 -0.030799998
  vertex 0.0205000024 0.00800000038 -0.00416856073
  endloop
 endfacet

 facet normal 0 0 0
  outer loop
  vertex 0.0387791879 0.014118352 -0.0229048859
  vertex 0.0391562805 0.0145460973 -0.0154517693
  vertex 0.0488251187 0.0134522785 -0.0157862362
  endloop
 endfacet

 facet normal 0 0 0
  outer loop
  vertex 0.0387791879 0.014118352 -0.0229048859
  vertex 0.0488251187 0.0134522785 -0.0157862362
  vertex 0.0461440869 0.0128474161 -0.0238864273
  endloop
 endfacet

 facet normal 0 0 0
  outer loop
  vertex 0.0387791879 0.014118352 -0.0229048859
  vertex 0.0461440869 0.0128474161 -0.0238864273
  vertex 0.0274999999 0.00999999978 -0.0317999944
  endloop
 endfacet

 facet normal 0 0 0
  outer loop
  vertex 0.0387791879 0.014118352 -0.0229048859
  vertex 0.0217346326 0.00984775927 -0.030799998
  vertex 0.0391562805 0.0145460973 -0.0154517693
  endloop
 endfacet

 facet normal 0 0 0
  outer loop
  vertex 0.0205000043 -0.0079953447 -0.030799998
  vertex 0.0205000043 -0.0079953447 -0.00416856073
  vertex 0.0205000024 0.00800000038 -0.00416856073
  endloop
 endfacet

 facet normal 0 0 0
  outer loop
  vertex 0.0205000043 -0.0079953447 -0.030799998
  vertex 0.0205000024 0.00800000038 -0.00416856073
  vertex 0.0205000024 0.00800000038 -0.030799998
  endloop
 endfacet

 facet normal 0 0 0
  outer loop
  vertex 0.0562537499 0.0110240094 -0.0205938704
  vertex 0.0575215667 0.00701459823 -0.0267955419
  vertex 0.0461440869 0.0128474161 -0.0238864273
  endloop
 endfacet

 facet normal 0 0 0
  outer loop
  vertex 0.0562537499 0.0110240094 -0.0205938704
  vertex 0.0461440869 0.0128474161 -0.0238864273
  vertex 0.0488251187 0.0134522785 -0.0157862362
  endloop
 endfacet

 facet normal 0 0 0
  outer loop
  vertex 0.0536785088 0.0105004758 -0.0104943523
  vertex 0.0436066948 0.010792383 -0.00723868143
  vertex 0.0554414019 0.00607175194 -0.00632665725
  endloop
 endfacet

 facet normal 0 0 0
  outer loop
  vertex 0.0536785088 0.0105004758 -0.0104943523
  vertex 0.0554414019 0.00607175194 -0.00632665725
  vertex 0.061251305 0.00673134951 -0.010940237
  endloop
 endfacet

 facet normal 0 0 0
  outer loop
  vertex 0.0668120459 0.00296187145 -0.0133057013
  vertex 0.061251305 0.00673134951 -0.010940237
  vertex 0.0670587197 -0.000769701495 -0.00869330298
  endloop
 endfacet

 facet normal 0 0 0
  outer loop
  vertex 0.0668120459 0.00296187145 -0.0133057013
  vertex 0.0702983439 -0.00109961664 -0.0175000411
  vertex 0.0630367845 0.00744368555 -0.0185434949
  endloop
 endfacet

 facet normal 0 0 0
  outer loop
  vertex 0.0668120459 0.00296187145 -0.0133057013
  vertex 0.0630367845 0.00744368555 -0.0185434949
  vertex 0.0580827966 0.0104813203 -0.0159448218
  endloop
 endfacet

 facet normal 0 0 0
  outer loop
  vertex 0.0668120459 0.00296187145 -0.0133057013
  vertex 0.0580827966 0.0104813203 -0.0159448218
  vertex 0.061251305 0.00673134951 -0.010940237
  endloop
 endfacet

 facet normal 0 0 0
  outer loop
  vertex 0.0382850952 0.0135023538 -0.010203979
  vertex 0.0274999999 0.00999999978 -0.00316856103
  vertex 0.0436066948 0.010792383 -0.00723868143
  endloop
 endfacet

 facet normal 0 0 0
  outer loop
  vertex 0.0382850952 0.0135023538 -0.010203979
  vertex 0.0436066948 0.010792383 -0.00723868143
  vertex 0.0536785088 0.0105004758 -0.0104943523
  endloop
 endfacet

 facet normal 0 0 0
  outer loop
  vertex 0.0382850952 0.0135023538 -0.010203979
  vertex 0.0536785088 0.0105004758 -0.0104943523
  vertex 0.0488251187 0.0134522785 -0.0157862362
  endloop
 endfacet

 facet normal 0 0 0
  outer loop
  vertex 0.0382850952 0.0135023538 -0.010203979
  vertex 0.0488251187 0.0134522785 -0.0157862362
  vertex 0.0391562805 0.0145460973 -0.0154517693
  endloop
 endfacet

 facet normal 0 0 0
  outer loop
  vertex 0.0580827966 0.0104813203 -0.0159448218
  vertex 0.0562537499 0.0110240094 -0.0205938704
  vertex 0.0488251187 0.0134522785 -0.0157862362
  endloop
 endfacet

 facet normal 0 0 0
  outer loop
  vertex 0.0580827966 0.0104813203 -0.0159448218
  vertex 0.0488251187 0.0134522785 -0.0157862362
  vertex 0.0536785088 0.0105004758 -0.0104943523
  endloop
 endfacet

 facet normal 0 0 0
  outer loop
  vertex 0.0580827966 0.0104813203 -0.0159448218
  vertex 0.0536785088 0.0105004758 -0.0104943523
  vertex 0.061251305 0.00673134951 -0.010940237
  endloop
 endfacet

 facet normal 0 0 0
  outer loop
  vertex 0.0580827966 0.0104813203 -0.0159448218
  vertex 0.0630367845 0.00744368555 -0.0185434949
  vertex 0.0562537499 0.0110240094 -0.0205938704
  endloop
 endfacet

 facet normal 0 0 0
  outer loop
  vertex 0.0217271112 -0.0098446263 -0.00416856073
  vertex 0.0634543449 -0.00970961712 -0.00619757082
  vertex 0.023631243 -0.00970961712 -0.00316856103
  endloop
 endfacet

 facet normal 0 0 0
  outer loop
  vertex 0.0217271112 -0.0098446263 -0.00416856073
  vertex 0.023631243 -0.00970961712 -0.00316856103
  vertex 0.0205000043 -0.0079953447 -0.00416856073
  endloop
 endfacet

 facet normal 0 0 0
  outer loop
  vertex 0.0619311184 -0.000548971468 -0.0295734927
  vertex 0.0596606322 -0.00770961726 -0.0303893443
  vertex 0.0545427352 0.000853242411 -0.0315794237
  endloop
 endfacet

 facet normal 0 0 0
  outer loop
  vertex 0.0619311184 -0.000548971468 -0.0295734927
  vertex 0.0575215667 0.00701459823 -0.0267955419
  vertex 0.0670587122 -0.00077244523 -0.0263068751
  endloop
 endfacet

 facet normal 0 0 0
  outer loop
  vertex 0.0619311184 -0.000548971468 -0.0295734927
  vertex 0.0670587122 -0.00077244523 -0.0263068751
  vertex 0.0634543449 -0.00970961712 -0.0287975688
  endloop
 endfacet

 facet normal 0 0 0
  outer loop
  vertex 0.0619311184 -0.000548971468 -0.0295734927
  vertex 0.0634543449 -0.00970961712 -0.0287975688
  vertex 0.0596606322 -0.00770961726 -0.0303893443
  endloop
 endfacet

 facet normal 0 0 0
  outer loop
  vertex 0.0575215667 0.00701459823 -0.0267955419
  vertex 0.0619311184 -0.000548971468 -0.0295734927
  vertex 0.0545427352 0.000853242411 -0.0315794237
  endloop
 endfacet

 facet normal 0 0 0
  outer loop
  vertex 0.0575215667 0.00701459823 -0.0267955419
  vertex 0.0545427352 0.000853242411 -0.0315794237
  vertex 0.0505652949 0.00687032146 -0.0296661351
  endloop
 endfacet

 facet normal 0 0 0
  outer loop
  vertex 0.0505652949 0.00687032146 -0.0296661351
  vertex 0.0545427352 0.000853242411 -0.0315794237
  vertex 0.0274999999 0.00999999978 -0.0317999944
  endloop
 endfacet

 facet normal 0 0 0
  outer loop
  vertex 0.0505652949 0.00687032146 -0.0296661351
  vertex 0.0274999999 0.00999999978 -0.0317999944
  vertex 0.0461440869 0.0128474161 -0.0238864273
  endloop
 endfacet

 facet normal 0 0 0
  outer loop
  vertex 0.0505652949 0.00687032146 -0.0296661351
  vertex 0.0461440869 0.0128474161 -0.0238864273
  vertex 0.0575215667 0.00701459823 -0.0267955419
  endloop
 endfacet

 facet normal 0 0 0
  outer loop
  vertex 0.0696173683 -0.00109982106 -0.0220997091
  vertex 0.0630367845 0.00744368555 -0.0185434949
  vertex 0.0702983439 -0.00109961664 -0.0175000411
  endloop
 endfacet

 facet normal 0 0 0
  outer loop
  vertex 0.069617793 -0.00109961664 -0.0129002351
  vertex 0.0702983439 -0.00109961664 -0.0175000411
  vertex 0.0668120459 0.00296187145 -0.0133057013
  endloop
 endfacet

 facet normal 0 0 0
  outer loop
  vertex 0.069617793 -0.00109961664 -0.0129002351
  vertex 0.0668120459 0.00296187145 -0.0133057013
  vertex 0.0670587197 -0.000769701495 -0.00869330298
  endloop
 endfacet

 facet normal 0 0 0
  outer loop
  vertex 0.0483027957 -7.09424858e-05 -0.00244458811
  vertex 0.0483851656 -0.00770961726 -0.00250644656
  vertex 0.0575141832 -0.000291752396 -0.00393252261
  endloop
 endfacet

 facet normal 0 0 0
  outer loop
  vertex 0.0638720766 0.00471601728 -0.0239296611
  vertex 0.0575215667 0.00701459823 -0.0267955419
  vertex 0.0562537499 0.0110240094 -0.0205938704
  endloop
 endfacet

 facet normal 0 0 0
  outer loop
  vertex 0.0638720766 0.00471601728 -0.0239296611
  vertex 0.0562537499 0.0110240094 -0.0205938704
  vertex 0.0630367845 0.00744368555 -0.0185434949
  endloop
 endfacet

 facet normal 0 0 0
  outer loop
  vertex 0.0638720766 0.00471601728 -0.0239296611
  vertex 0.0630367845 0.00744368555 -0.0185434949
  vertex 0.0696173683 -0.00109982106 -0.0220997091
  endloop
 endfacet

 facet normal 0 0 0
  outer loop
  vertex 0.0638720766 0.00471601728 -0.0239296611
  vertex 0.0696173683 -0.00109982106 -0.0220997091
  vertex 0.0670587122 -0.00077244523 -0.0263068751
  endloop
 endfacet

 facet normal 0 0 0
  outer loop
  vertex 0.0638720766 0.00471601728 -0.0239296611
  vertex 0.0670587122 -0.00077244523 -0.0263068751
  vertex 0.0575215667 0.00701459823 -0.0267955419
  endloop
 endfacet

 facet normal 0 0 0
  outer loop
  vertex 0.0676808059 -0.0077389949 -0.00926268939
  vertex 0.0634543449 -0.00970961712 -0.00619757082
  vertex 0.0693197846 -0.00847498327 -0.0124950698
  endloop
 endfacet

 facet normal 0 0 0
  outer loop
  vertex 0.0676808059 -0.0077389949 -0.00926268939
  vertex 0.0693197846 -0.00847498327 -0.0124950698
  vertex 0.069617793 -0.00109961664 -0.0129002351
  endloop
 endfacet

 facet normal 0 0 0
  outer loop
  vertex 0.0676808059 -0.0077389949 -0.00926268939
  vertex 0.069617793 -0.00109961664 -0.0129002351
  vertex 0.0670587197 -0.000769701495 -0.00869330298
  endloop
 endfacet

 facet normal 0 0 0
  outer loop
  vertex 0.0676808059 -0.0077389949 -0.00926268939
  vertex 0.0670587197 -0.000769701495 -0.00869330298
  vertex 0.0634543449 -0.00970961712 -0.00619757082
  endloop
 endfacet

 facet normal 0 0 0
  outer loop
  vertex 0.0229499992 0.00999999978 -0.00316856103
  vertex 0.0274999999 0.00999999978 -0.00316856103
  vertex 0.0382850952 0.0135023538 -0.010203979
  endloop
 endfacet

 facet normal 0 0 0
  outer loop
  vertex 0.0229499992 0.00999999978 -0.00316856103
  vertex 0.0382850952 0.0135023538 -0.010203979
  vertex 0.0391562805 0.0145460973 -0.0154517693
  endloop
 endfacet

 facet normal 0 0 0
  outer loop
  vertex 0.0229499992 0.00999999978 -0.00316856103
  vertex 0.0391562805 0.0145460973 -0.0154517693
  vertex 0.0217346326 0.00984775927 -0.00416856073
  endloop
 endfacet

 facet normal 0 0 0
  outer loop
  vertex 0.0229499992 0.00999999978 -0.00316856103
  vertex 0.0217346326 0.00984775927 -0.00416856073
  vertex 0.0205000024 0.00800000038 -0.00416856073
  endloop
 endfacet

 facet normal 0 0 0
  outer loop
  vertex 0.0229499992 0.00999999978 -0.00316856103
  vertex 0.0205000024 0.00800000038 -0.00416856073
  vertex 0.0205000043 -0.0079953447 -0.00416856073
  endloop
 endfacet

 facet normal 0 0 0
  outer loop
  vertex 0.0229499992 0.00999999978 -0.00316856103
  vertex 0.0205000043 -0.0079953447 -0.00416856073
  vertex 0.023631243 -0.00970961712 -0.00316856103
  endloop
 endfacet

 facet normal 0 0 0
  outer loop
  vertex 0.0229499992 0.00999999978 -0.00316856103
  vertex 0.023631243 -0.00970961712 -0.00316856103
  vertex 0.0483851656 -0.00770961726 -0.00250644656
  endloop
 endfacet

 facet normal 0 0 0
  outer loop
  vertex 0.0229499992 0.00999999978 -0.00316856103
  vertex 0.0483851656 -0.00770961726 -0.00250644656
  vertex 0.0483027957 -7.09424858e-05 -0.00244458811
  endloop
 endfacet

 facet normal 0 0 0
  outer loop
  vertex 0.0229499992 0.00999999978 -0.00316856103
  vertex 0.0483027957 -7.09424858e-05 -0.00244458811
  vertex 0.0274999999 0.00999999978 -0.00316856103
  endloop
 endfacet

 facet normal 0 0 0
  outer loop
  vertex 0.0229499992 0.00999999978 -0.0317999944
  vertex 0.0205000024 0.00800000038 -0.030799998
  vertex 0.0217346326 0.00984775927 -0.030799998
  endloop
 endfacet

 facet normal 0 0 0
  outer loop
  vertex 0.0229499992 0.00999999978 -0.0317999944
  vertex 0.0217346326 0.00984775927 -0.030799998
  vertex 0.0387791879 0.014118352 -0.0229048859
  endloop
 endfacet

 facet normal 0 0 0
  outer loop
  vertex 0.0229499992 0.00999999978 -0.0317999944
  vertex 0.0387791879 0.014118352 -0.0229048859
  vertex 0.0274999999 0.00999999978 -0.0317999944
  endloop
 endfacet

 facet normal 0 0 0
  outer loop
  vertex 0.0229499992 0.00999999978 -0.0317999944
  vertex 0.0274999999 0.00999999978 -0.0317999944
  vertex 0.0462860614 -0.00770961726 -0.0326073058
  endloop
 endfacet

 facet normal 0 0 0
  outer loop
  vertex 0.0229499992 0.00999999978 -0.0317999944
  vertex 0.0462860614 -0.00770961726 -0.0326073058
  vertex 0.023631243 -0.00970961712 -0.0317999944
  endloop
 endfacet

 facet normal 0 0 0
  outer loop
  vertex 0.0229499992 0.00999999978 -0.0317999944
  vertex 0.023631243 -0.00970961712 -0.0317999944
  vertex 0.0205000043 -0.0079953447 -0.030799998
  endloop
 endfacet

 facet normal 0 0 0
  outer loop
  vertex 0.0229499992 0.00999999978 -0.0317999944
  vertex 0.0205000043 -0.0079953447 -0.030799998
  vertex 0.0205000024 0.00800000038 -0.030799998
  endloop
 endfacet

 facet normal 0 0 0
  outer loop
  vertex 0.0488802828 -0.00912383012 -0.031867478
  vertex 0.023631243 -0.00970961712 -0.0317999944
  vertex 0.0462860614 -0.00770961726 -0.0326073058
  endloop
 endfacet

 facet normal 0 0 0
  outer loop
  vertex 0.0488802828 -0.00912383012 -0.031867478
  vertex 0.0462860614 -0.00770961726 -0.0326073058
  vertex 0.0596606322 -0.00770961726 -0.0303893443
  endloop
 endfacet

 facet normal 0 0 0
  outer loop
  vertex 0.0488802828 -0.00912383012 -0.031867478
  vertex 0.0596606322 -0.00770961726 -0.0303893443
  vertex 0.0634543449 -0.00970961712 -0.0287975688
  endloop
 endfacet

 facet normal 0 0 0
  outer loop
  vertex 0.0488802828 -0.00912383012 -0.031867478
  vertex 0.0634543449 -0.00970961712 -0.0287975688
  vertex 0.023631243 -0.00970961712 -0.0317999944
  endloop
 endfacet

 facet normal 0 0 0
  outer loop
  vertex 0.0702983439 -0.00770961726 -0.0175000411
  vertex 0.0702983439 -0.00109961664 -0.0175000411
  vertex 0.069617793 -0.00109961664 -0.0129002351
  endloop
 endfacet

 facet normal 0 0 0
  outer loop
  vertex 0.0702983439 -0.00770961726 -0.0175000411
  vertex 0.069617793 -0.00109961664 -0.0129002351
  vertex 0.0693197846 -0.00847498327 -0.0124950698
  endloop
 endfacet

 facet normal 0 0 0
  outer loop
  vertex 0.0702983439 -0.00770961726 -0.0175000411
  vertex 0.0693197846 -0.00847498327 -0.0124950698
  vertex 0.0694373176 -0.00912383012 -0.0204449743
  endloop
 endfacet

 facet normal 0 0 0
  outer loop
  vertex 0.0483420156 -0.00912383012 -0.00309064076
  vertex 0.0634543449 -0.00970961712 -0.00619757082
  vertex 0.0483851656 -0.00770961726 -0.00250644656
  endloop
 endfacet

 facet normal 0 0 0
  outer loop
  vertex 0.0483420156 -0.00912383012 -0.00309064076
  vertex 0.0483851656 -0.00770961726 -0.00250644656
  vertex 0.023631243 -0.00970961712 -0.00316856103
  endloop
 endfacet

 facet normal 0 0 0
  outer loop
  vertex 0.0483420156 -0.00912383012 -0.00309064076
  vertex 0.023631243 -0.00970961712 -0.00316856103
  vertex 0.0634543449 -0.00970961712 -0.00619757082
  endloop
 endfacet

 facet normal 0 0 0
  outer loop
  vertex 0.0210808571 -0.00940926839 -0.030799998
  vertex 0.023631243 -0.00970961712 -0.0317999944
  vertex 0.0217271112 -0.0098446263 -0.0289999973
  endloop
 endfacet

 facet normal 0 0 0
  outer loop
  vertex 0.0210808571 -0.00940926839 -0.030799998
  vertex 0.0217271112 -0.0098446263 -0.0289999973
  vertex 0.0217271112 -0.0098446263 -0.00416856073
  endloop
 endfacet

 facet normal 0 0 0
  outer loop
  vertex 0.0210808571 -0.00940926839 -0.030799998
  vertex 0.0217271112 -0.0098446263 -0.00416856073
  vertex 0.0205000043 -0.0079953447 -0.00416856073
  endloop
 endfacet

 facet normal 0 0 0
  outer loop
  vertex 0.0210808571 -0.00940926839 -0.030799998
  vertex 0.0205000043 -0.0079953447 -0.00416856073
  vertex 0.0205000043 -0.0079953447 -0.030799998
  endloop
 endfacet

 facet normal 0 0 0
  outer loop
  vertex 0.0210808571 -0.00940926839 -0.030799998
  vertex 0.0205000043 -0.0079953447 -0.030799998
  vertex 0.023631243 -0.00970961712 -0.0317999944
  endloop
 endfacet

 facet normal 0 0 0
  outer loop
  vertex 0.0692217946 -0.00770961726 -0.0231725778
  vertex 0.066970408 -0.00844458304 -0.0263117068
  vertex 0.0670587122 -0.00077244523 -0.0263068751
  endloop
 endfacet

 facet normal 0 0 0
  outer loop
  vertex 0.0692217946 -0.00770961726 -0.0231725778
  vertex 0.0670587122 -0.00077244523 -0.0263068751
  vertex 0.0696173683 -0.00109982106 -0.0220997091
  endloop
 endfacet

 facet normal 0 0 0
  outer loop
  vertex 0.0692217946 -0.00770961726 -0.0231725778
  vertex 0.0696173683 -0.00109982106 -0.0220997091
  vertex 0.0702983439 -0.00109961664 -0.0175000411
  endloop
 endfacet

 facet normal 0 0 0
  outer loop
  vertex 0.0692217946 -0.00770961726 -0.0231725778
  vertex 0.0702983439 -0.00109961664 -0.0175000411
  vertex 0.0702983439 -0.00770961726 -0.0175000411
  endloop
 endfacet

 facet normal 0 0 0
  outer loop
  vertex 0.0692217946 -0.00770961726 -0.0231725778
  vertex 0.0702983439 -0.00770961726 -0.0175000411
  vertex 0.0694373176 -0.00912383012 -0.0204449743
  endloop
 endfacet

 facet normal 0 0 0
  outer loop
  vertex 0.0692217946 -0.00770961726 -0.0231725778
  vertex 0.0694373176 -0.00912383012 -0.0204449743
  vertex 0.066970408 -0.00844458304 -0.0263117068
  endloop
 endfacet

 facet normal 0 0 0
  outer loop
  vertex 0.0684413686 -0.00955737568 -0.013274868
  vertex 0.0694373176 -0.00912383012 -0.0204449743
  vertex 0.0693197846 -0.00847498327 -0.0124950698
  endloop
 endfacet

 facet normal 0 0 0
  outer loop
  vertex 0.0684413686 -0.00955737568 -0.013274868
  vertex 0.0693197846 -0.00847498327 -0.0124950698
  vertex 0.0634543449 -0.00970961712 -0.00619757082
  endloop
 endfacet

 facet normal 0 0 0
  outer loop
  vertex 0.0684413686 -0.00955737568 -0.013274868
  vertex 0.0634543449 -0.00970961712 -0.0287975688
  vertex 0.0694373176 -0.00912383012 -0.0204449743
  endloop
 endfacet

 facet normal 0 0 0
  outer loop
  vertex 0.0620530136 0.000247716642 -0.00572694885
  vertex 0.0670587197 -0.000769701495 -0.00869330298
  vertex 0.061251305 0.00673134951 -0.010940237
  endloop
 endfacet

 facet normal 0 0 0
  outer loop
  vertex 0.0620530136 0.000247716642 -0.00572694885
  vertex 0.061251305 0.00673134951 -0.010940237
  vertex 0.0554414019 0.00607175194 -0.00632665725
  endloop
 endfacet

 facet normal 0 0 0
  outer loop
  vertex 0.0620530136 0.000247716642 -0.00572694885
  vertex 0.0575141832 -0.000291752396 -0.00393252261
  vertex 0.0634543449 -0.00970961712 -0.00619757082
  endloop
 endfacet

 facet normal 0 0 0
  outer loop
  vertex 0.0620530136 0.000247716642 -0.00572694885
  vertex 0.0634543449 -0.00970961712 -0.00619757082
  vertex 0.0670587197 -0.000769701495 -0.00869330298
  endloop
 endfacet

 facet normal 0 0 0
  outer loop
  vertex 0.0496725515 0.00469381362 -0.00395467086
  vertex 0.0575141832 -0.000291752396 -0.00393252261
  vertex 0.0620530136 0.000247716642 -0.00572694885
  endloop
 endfacet

 facet normal 0 0 0
  outer loop
  vertex 0.0496725515 0.00469381362 -0.00395467086
  vertex 0.0620530136 0.000247716642 -0.00572694885
  vertex 0.0554414019 0.00607175194 -0.00632665725
  endloop
 endfacet

 facet normal 0 0 0
  outer loop
  vertex 0.0496725515 0.00469381362 -0.00395467086
  vertex 0.0554414019 0.00607175194 -0.00632665725
  vertex 0.0436066948 0.010792383 -0.00723868143
  endloop
 endfacet

 facet normal 0 0 0
  outer loop
  vertex 0.0496725515 0.00469381362 -0.00395467086
  vertex 0.0436066948 0.010792383 -0.00723868143
  vertex 0.0274999999 0.00999999978 -0.00316856103
  endloop
 endfacet

 facet normal 0 0 0
  outer loop
  vertex 0.0496725515 0.00469381362 -0.00395467086
  vertex 0.0274999999 0.00999999978 -0.00316856103
  vertex 0.0483027957 -7.09424858e-05 -0.00244458811
  endloop
 endfacet

 facet normal 0 0 0
  outer loop
  vertex 0.0496725515 0.00469381362 -0.00395467086
  vertex 0.0483027957 -7.09424858e-05 -0.00244458811
  vertex 0.0575141832 -0.000291752396 -0.00393252261
  endloop
 endfacet

endsolid AssimpScene
