solid AssimpScene
 facet normal 0 0 0
  outer loop
  vertex 0.0426622778 0.0164999999 0.0104572149
  vertex 0.0386213847 0.0164999999 0.00300000026
  vertex 0.0166999996 0.0164999999 0.00300000026
  endloop
 endfacet

 facet normal 0 0 0
  outer loop
  vertex 0.0426622778 0.0164999999 0.0104572149
  vertex 0.0166999996 0.0164999999 0.00300000026
  vertex 0.00949999876 0.0164999999 0.0054999995
  endloop
 endfacet

 facet normal 0 0 0
  outer loop
  vertex 0.0426622778 0.0164999999 0.0104572149
  vertex 0.00949999876 0.0164999999 0.0054999995
  vertex 0.00949999876 0.0164999999 0.0295000002
  endloop
 endfacet

 facet normal 0 0 0
  outer loop
  vertex 0.0426622778 0.0164999999 0.0104572149
  vertex 0.00949999876 0.0164999999 0.0295000002
  vertex 0.0369693972 0.0164999999 0.0291883163
  endloop
 endfacet

 facet normal 0 0 0
  outer loop
  vertex 0.0426622778 0.0164999999 0.0104572149
  vertex 0.0369693972 0.0164999999 0.0291883163
  vertex 0.0424539298 0.0164999999 0.0249329731
  endloop
 endfacet

 facet normal 0 0 0
  outer loop
  vertex 0.0426622778 0.0164999999 0.0104572149
  vertex 0.0424539298 0.0164999999 0.0249329731
  vertex 0.0439262278 0.0164999999 0.0157382451
  endloop
 endfacet

 facet normal 0 0 0
  outer loop
  vertex 0.0174999982 -0.0164999999 0.0295000002
  vertex -0.00448141759 -0.00662698224 0.0350000001
  vertex -0.00448141759 -0.00662698224 -1.10370352e-10
  endloop
 endfacet

 facet normal 0 0 0
  outer loop
  vertex 0.0174999982 -0.0164999999 0.0295000002
  vertex -0.00448141759 -0.00662698224 -1.10370352e-10
  vertex 0.0174999982 -0.0164999999 0.0054999995
  endloop
 endfacet

 facet normal 0 0 0
  outer loop
  vertex 0.0369693972 0.0164999999 0.0291883163
  vertex 0.00949999876 0.0164999999 0.0295000002
  vertex 0.0145000005 0.0131517136 0.0350000001
  endloop
 endfacet

 facet normal 0 0 0
  outer loop
  vertex 0.0369693972 0.0164999999 0.0291883163
  vertex 0.0145000005 0.0131517136 0.0350000001
  vertex 0.0189999975 0.0131517136 0.0350000001
  endloop
 endfacet

 facet normal 0 0 0
  outer loop
  vertex 0.0391547754 -0.0164999999 0.0282748546
  vertex 0.0369693972 0.0164999999 0.0291883163
  vertex 0.0189999975 0.0131517136 0.0350000001
  endloop
 endfacet

 facet normal 0 0 0
  outer loop
  vertex 0.0391547754 -0.0164999999 0.0282748546
  vertex 0.0189999975 0.0131517136 0.0350000001
  vertex 0.0189999975 -0.0131517136 0.0350000001
  endloop
 endfacet

 facet normal 0 0 0
  outer loop
  vertex 0.0189999975 -0.0131517136 0.0350000001
  vertex 0.0145000005 -0.0131517136 0.0350000001
  vertex 0.0174999982 -0.0164999999 0.0295000002
  endloop
 endfacet

 facet normal 0 0 0
  outer loop
  vertex 0.0189999975 -0.0131517136 0.0350000001
  vertex 0.0174999982 -0.0164999999 0.0295000002
  vertex 0.0391547754 -0.0164999999 0.0282748546
  endloop
 endfacet

 facet normal 0 0 0
  outer loop
  vertex 0.0145000005 0.0131517136 -1.10370359e-10
  vertex 0.0386213847 0.0164999999 0.00300000026
  vertex 0.0189999975 -0.0131517136 -1.10370366e-10
  endloop
 endfacet

 facet normal 0 0 0
  outer loop
  vertex -0.0079223346 -0.00111204048 0.0350000001
  vertex -0.00613271631 0.00513709942 0.0350000001
  vertex -0.0079223346 0.00111204048 -1.10370352e-10
  endloop
 endfacet

 facet normal 0 0 0
  outer loop
  vertex -0.00387954176 0.00699636759 -1.10370352e-10
  vertex 0.00949999876 0.0164999999 0.0054999995
  vertex 0.0166999996 0.0164999999 0.00300000026
  endloop
 endfacet

 facet normal 0 0 0
  outer loop
  vertex -0.00387954176 0.00699636759 -1.10370352e-10
  vertex 0.0166999996 0.0164999999 0.00300000026
  vertex 0.0145000005 0.0131517136 -1.10370359e-10
  endloop
 endfacet

 facet normal 0 0 0
  outer loop
  vertex -0.00613271631 0.00513709942 0.0350000001
  vertex 0.00949999876 0.0164999999 0.0295000002
  vertex 0.00949999876 0.0164999999 0.0054999995
  endloop
 endfacet

 facet normal 0 0 0
  outer loop
  vertex -0.00613271631 0.00513709942 0.0350000001
  vertex 0.00949999876 0.0164999999 0.0054999995
  vertex -0.00387954176 0.00699636759 -1.10370352e-10
  endloop
 endfacet

 facet normal 0 0 0
  outer loop
  vertex 0.0424539298 0.0164999999 0.0249329731
  vertex 0.0369693972 0.0164999999 0.0291883163
  vertex 0.0391547754 -0.0164999999 0.0282748546
  endloop
 endfacet

 facet normal 0 0 0
  outer loop
  vertex 0.0424539298 0.0164999999 0.0249329731
  vertex 0.0424539298 -0.0164999999 0.0249329731
  vertex 0.0438620448 -0.0164999999 0.0199073777
  endloop
 endfacet

 facet normal 0 0 0
  outer loop
  vertex 0.0424539298 0.0164999999 0.0249329731
  vertex 0.0438620448 -0.0164999999 0.0199073777
  vertex 0.0439262278 0.0146999992 0.0192617532
  endloop
 endfacet

 facet normal 0 0 0
  outer loop
  vertex 0.0369693972 -0.0164999999 0.0058116829
  vertex 0.0174999982 -0.0164999999 0.0054999995
  vertex 0.0145000005 -0.0131517136 -1.10370366e-10
  endloop
 endfacet

 facet normal 0 0 0
  outer loop
  vertex 0.0369693972 -0.0164999999 0.0058116829
  vertex 0.0145000005 -0.0131517136 -1.10370366e-10
  vertex 0.0189999975 -0.0131517136 -1.10370366e-10
  endloop
 endfacet

 facet normal 0 0 0
  outer loop
  vertex 0.0369693972 -0.0164999999 0.0058116829
  vertex 0.0189999975 -0.0131517136 -1.10370366e-10
  vertex 0.0386213847 0.0164999999 0.00300000026
  endloop
 endfacet

 facet normal 0 0 0
  outer loop
  vertex 0.0369693972 -0.0164999999 0.0058116829
  vertex 0.0386213847 0.0164999999 0.00300000026
  vertex 0.0424539298 -0.0164999999 0.0100670271
  endloop
 endfacet

 facet normal 0 0 0
  outer loop
  vertex 0.0439262278 0.0164999999 0.0157382451
  vertex 0.0424539298 0.0164999999 0.0249329731
  vertex 0.0439262278 0.0146999992 0.0192617532
  endloop
 endfacet

 facet normal 0 0 0
  outer loop
  vertex 0.0439262278 0.0164999999 0.0157382451
  vertex 0.0439262278 0.0146999992 0.0192617532
  vertex 0.0438620448 -0.0164999999 0.0199073777
  endloop
 endfacet

 facet normal 0 0 0
  outer loop
  vertex 0.0439262278 0.0164999999 0.0157382451
  vertex 0.0438620448 -0.0164999999 0.0199073777
  vertex 0.0424539298 -0.0164999999 0.0100670271
  endloop
 endfacet

 facet normal 0 0 0
  outer loop
  vertex 0.0424539298 -0.0164999999 0.0249329731
  vertex 0.0424539298 0.0164999999 0.0249329731
  vertex 0.0391547754 -0.0164999999 0.0282748546
  endloop
 endfacet

 facet normal 0 0 0
  outer loop
  vertex 0.0424539298 -0.0164999999 0.0249329731
  vertex 0.0391547754 -0.0164999999 0.0282748546
  vertex 0.0174999982 -0.0164999999 0.0295000002
  endloop
 endfacet

 facet normal 0 0 0
  outer loop
  vertex 0.0424539298 -0.0164999999 0.0249329731
  vertex 0.0174999982 -0.0164999999 0.0295000002
  vertex 0.0174999982 -0.0164999999 0.0054999995
  endloop
 endfacet

 facet normal 0 0 0
  outer loop
  vertex 0.0424539298 -0.0164999999 0.0249329731
  vertex 0.0174999982 -0.0164999999 0.0054999995
  vertex 0.0369693972 -0.0164999999 0.0058116829
  endloop
 endfacet

 facet normal 0 0 0
  outer loop
  vertex 0.0424539298 -0.0164999999 0.0249329731
  vertex 0.0369693972 -0.0164999999 0.0058116829
  vertex 0.0424539298 -0.0164999999 0.0100670271
  endloop
 endfacet

 facet normal 0 0 0
  outer loop
  vertex 0.0424539298 -0.0164999999 0.0249329731
  vertex 0.0424539298 -0.0164999999 0.0100670271
  vertex 0.0438620448 -0.0164999999 0.0199073777
  endloop
 endfacet

 facet normal 0 0 0
  outer loop
  vertex -0.00731001981 -0.00325017236 -1.10370352e-10
  vertex -0.00448141759 -0.00662698224 -1.10370352e-10
  vertex -0.00448141759 -0.00662698224 0.0350000001
  endloop
 endfacet

 facet normal 0 0 0
  outer loop
  vertex -0.00731001981 -0.00325017236 -1.10370352e-10
  vertex -0.00448141759 -0.00662698224 0.0350000001
  vertex -0.0079223346 -0.00111204048 0.0350000001
  endloop
 endfacet

 facet normal 0 0 0
  outer loop
  vertex -0.00731001981 -0.00325017236 -1.10370352e-10
  vertex -0.0079223346 -0.00111204048 0.0350000001
  vertex -0.0079223346 0.00111204048 -1.10370352e-10
  endloop
 endfacet

 facet normal 0 0 0
  outer loop
  vertex 0.0166999996 0.0164999999 0.00300000026
  vertex 0.0386213847 0.0164999999 0.00300000026
  vertex 0.0145000005 0.0131517136 -1.10370359e-10
  endloop
 endfacet

 facet normal 0 0 0
  outer loop
  vertex 0.0145000005 -0.0131517136 -1.10370366e-10
  vertex 0.0174999982 -0.0164999999 0.0054999995
  vertex -0.00448141759 -0.00662698224 -1.10370352e-10
  endloop
 endfacet

 facet normal 0 0 0
  outer loop
  vertex 0.0145000005 -0.0131517136 0.0350000001
  vertex -0.00448141759 -0.00662698224 0.0350000001
  vertex 0.0174999982 -0.0164999999 0.0295000002
  endloop
 endfacet

 facet normal 0 0 0
  outer loop
  vertex 0.0426622778 0.0164999999 0.0104572149
  vertex 0.0439262278 0.0164999999 0.0157382451
  vertex 0.0424539298 -0.0164999999 0.0100670271
  endloop
 endfacet

 facet normal 0 0 0
  outer loop
  vertex 0.0426622778 0.0164999999 0.0104572149
  vertex 0.0424539298 -0.0164999999 0.0100670271
  vertex 0.0386213847 0.0164999999 0.00300000026
  endloop
 endfacet

 facet normal 0 0 0
  outer loop
  vertex -0.00613271631 0.00513709942 -1.10370352e-10
  vertex -0.00613271631 0.00513709942 0.0350000001
  vertex -0.00387954176 0.00699636759 -1.10370352e-10
  endloop
 endfacet

 facet normal 0 0 0
  outer loop
  vertex -0.00613271631 0.00513709942 -1.10370352e-10
  vertex -0.00387954176 0.00699636759 -1.10370352e-10
  vertex 0.0145000005 0.0131517136 -1.10370359e-10
  endloop
 endfacet

 facet normal 0 0 0
  outer loop
  vertex -0.00613271631 0.00513709942 -1.10370352e-10
  vertex 0.0145000005 0.0131517136 -1.10370359e-10
  vertex 0.0189999975 -0.0131517136 -1.10370366e-10
  endloop
 endfacet

 facet normal 0 0 0
  outer loop
  vertex -0.00613271631 0.00513709942 -1.10370352e-10
  vertex 0.0189999975 -0.0131517136 -1.10370366e-10
  vertex 0.0145000005 -0.0131517136 -1.10370366e-10
  endloop
 endfacet

 facet normal 0 0 0
  outer loop
  vertex -0.00613271631 0.00513709942 -1.10370352e-10
  vertex 0.0145000005 -0.0131517136 -1.10370366e-10
  vertex -0.00448141759 -0.00662698224 -1.10370352e-10
  endloop
 endfacet

 facet normal 0 0 0
  outer loop
  vertex -0.00613271631 0.00513709942 -1.10370352e-10
  vertex -0.00448141759 -0.00662698224 -1.10370352e-10
  vertex -0.00731001981 -0.00325017236 -1.10370352e-10
  endloop
 endfacet

 facet normal 0 0 0
  outer loop
  vertex -0.00613271631 0.00513709942 -1.10370352e-10
  vertex -0.00731001981 -0.00325017236 -1.10370352e-10
  vertex -0.0079223346 0.00111204048 -1.10370352e-10
  endloop
 endfacet

 facet normal 0 0 0
  outer loop
  vertex -0.00613271631 0.00513709942 -1.10370352e-10
  vertex -0.0079223346 0.00111204048 -1.10370352e-10
  vertex -0.00613271631 0.00513709942 0.0350000001
  endloop
 endfacet

 facet normal 0 0 0
  outer loop
  vertex -0.00266045518 0.00754466513 0.0350000001
  vertex -0.00613271631 0.00513709942 0.0350000001
  vertex -0.0079223346 -0.00111204048 0.0350000001
  endloop
 endfacet

 facet normal 0 0 0
  outer loop
  vertex -0.00266045518 0.00754466513 0.0350000001
  vertex -0.0079223346 -0.00111204048 0.0350000001
  vertex -0.00448141759 -0.00662698224 0.0350000001
  endloop
 endfacet

 facet normal 0 0 0
  outer loop
  vertex -0.00266045518 0.00754466513 0.0350000001
  vertex -0.00448141759 -0.00662698224 0.0350000001
  vertex 0.0145000005 -0.0131517136 0.0350000001
  endloop
 endfacet

 facet normal 0 0 0
  outer loop
  vertex -0.00266045518 0.00754466513 0.0350000001
  vertex 0.0145000005 -0.0131517136 0.0350000001
  vertex 0.0189999975 -0.0131517136 0.0350000001
  endloop
 endfacet

 facet normal 0 0 0
  outer loop
  vertex -0.00266045518 0.00754466513 0.0350000001
  vertex 0.0189999975 -0.0131517136 0.0350000001
  vertex 0.0189999975 0.0131517136 0.0350000001
  endloop
 endfacet

 facet normal 0 0 0
  outer loop
  vertex -0.00266045518 0.00754466513 0.0350000001
  vertex 0.0189999975 0.0131517136 0.0350000001
  vertex 0.0145000005 0.0131517136 0.0350000001
  endloop
 endfacet

 facet normal 0 0 0
  outer loop
  vertex -0.00266045518 0.00754466513 0.0350000001
  vertex 0.0145000005 0.0131517136 0.0350000001
  vertex 0.00949999876 0.0164999999 0.0295000002
  endloop
 endfacet

 facet normal 0 0 0
  outer loop
  vertex -0.00266045518 0.00754466513 0.0350000001
  vertex 0.00949999876 0.0164999999 0.0295000002
  vertex -0.00613271631 0.00513709942 0.0350000001
  endloop
 endfacet

endsolid AssimpScene
