solid AssimpScene
 facet normal 0 0 0
  outer loop
  vertex -0.00481824437 0.00638627587 -0.0342999995
  vertex -0.00708091678 0.00302499998 -0.0346000008
  vertex -0.00778730121 0.00183246832 -0.00139999902
  endloop
 endfacet

 facet normal 0 0 0
  outer loop
  vertex -0.00481824437 0.00638627587 -0.0342999995
  vertex -0.00778730121 0.00183246832 -0.00139999902
  vertex -0.00713436911 0.0026871569 4.14249218e-10
  endloop
 endfacet

 facet normal 0 0 0
  outer loop
  vertex -0.00481824437 0.00638627587 -0.0342999995
  vertex -0.00713436911 0.0026871569 4.14249218e-10
  vertex -0.00463756034 0.00614679139 4.14249246e-10
  endloop
 endfacet

 facet normal 0 0 0
  outer loop
  vertex -0.00481824437 -0.00638627587 -0.0342999995
  vertex 0.0190000013 -0.0245000012 -0.0306000002
  vertex 0.0190000013 -0.0245000012 -0.00400000019
  endloop
 endfacet

 facet normal 0 0 0
  outer loop
  vertex -0.00481824437 -0.00638627587 -0.0342999995
  vertex 0.0190000013 -0.0245000012 -0.00400000019
  vertex -0.00615297118 -0.00511282263 -0.000299999112
  endloop
 endfacet

 facet normal 0 0 0
  outer loop
  vertex 0.0380000025 -6.40749842e-10 -0.0317999981
  vertex 0.0399999991 -0.0234999992 -0.0287999995
  vertex 0.0390000045 -0.0244999975 -0.0287999995
  endloop
 endfacet

 facet normal 0 0 0
  outer loop
  vertex 0.0380000025 -6.40749842e-10 -0.0317999981
  vertex 0.0390000045 -0.0244999975 -0.0287999995
  vertex 0.0162000004 -0.00970000029 -0.0346000008
  endloop
 endfacet

 facet normal 0 0 0
  outer loop
  vertex 0.0380000025 -6.40749898e-10 -0.00280000037
  vertex 0.0399999991 -0.0234999992 -0.00579999993
  vertex 0.0399999991 0.00849999953 -0.00579999993
  endloop
 endfacet

 facet normal 0 0 0
  outer loop
  vertex 0.0162000004 0.00970000029 -0.0346000008
  vertex 0.0380000025 -6.40749842e-10 -0.0317999981
  vertex 0.0162000004 -0.00970000029 -0.0346000008
  endloop
 endfacet

 facet normal 0 0 0
  outer loop
  vertex 0.0194142144 -0.0235000011 -0.0315999985
  vertex -0.00481824437 -0.00638627587 -0.0342999995
  vertex 0.0162000004 -0.00970000029 -0.0346000008
  endloop
 endfacet

 facet normal 0 0 0
  outer loop
  vertex 0.0162000004 -0.00970000029 4.14249246e-10
  vertex 0.0390000045 -0.0244999975 -0.00579999993
  vertex 0.0399999991 -0.0234999992 -0.00579999993
  endloop
 endfacet

 facet normal 0 0 0
  outer loop
  vertex 0.0162000004 -0.00970000029 4.14249246e-10
  vertex 0.0399999991 -0.0234999992 -0.00579999993
  vertex 0.0380000025 -6.40749898e-10 -0.00280000037
  endloop
 endfacet

 facet normal 0 0 0
  outer loop
  vertex 0.0162000004 0.00970000029 4.14249246e-10
  vertex 0.0104616405 0.00999999978 -0.000299999112
  vertex -0.00463756034 0.00614679139 4.14249246e-10
  endloop
 endfacet

 facet normal 0 0 0
  outer loop
  vertex 0.0162000004 0.00970000029 4.14249246e-10
  vertex 0.0162000004 -0.00970000029 4.14249246e-10
  vertex 0.0380000025 -6.40749898e-10 -0.00280000037
  endloop
 endfacet

 facet normal 0 0 0
  outer loop
  vertex -0.00713436911 -0.0026871569 -0.0346000008
  vertex 0.0162000004 -0.00970000029 -0.0346000008
  vertex -0.00481824437 -0.00638627587 -0.0342999995
  endloop
 endfacet

 facet normal 0 0 0
  outer loop
  vertex -0.00713436911 -0.0026871569 -0.0346000008
  vertex -0.00481824437 -0.00638627587 -0.0342999995
  vertex -0.00615297118 -0.00511282263 -0.000299999112
  endloop
 endfacet

 facet normal 0 0 0
  outer loop
  vertex 0.0190000013 -0.0245000012 -0.0306000002
  vertex -0.00481824437 -0.00638627587 -0.0342999995
  vertex 0.0194142144 -0.0235000011 -0.0315999985
  endloop
 endfacet

 facet normal 0 0 0
  outer loop
  vertex -0.00708091678 0.00302499998 -0.0346000008
  vertex -0.00481824437 0.00638627587 -0.0342999995
  vertex 0.00256690523 0.00861563347 -0.0342999995
  endloop
 endfacet

 facet normal 0 0 0
  outer loop
  vertex -0.00708091678 0.00302499998 -0.0346000008
  vertex 0.00256690523 0.00861563347 -0.0342999995
  vertex 0.0162000004 0.00970000029 -0.0346000008
  endloop
 endfacet

 facet normal 0 0 0
  outer loop
  vertex -0.00708091678 0.00302499998 -0.0346000008
  vertex 0.0162000004 0.00970000029 -0.0346000008
  vertex 0.0162000004 -0.00970000029 -0.0346000008
  endloop
 endfacet

 facet normal 0 0 0
  outer loop
  vertex -0.00708091678 0.00302499998 -0.0346000008
  vertex 0.0162000004 -0.00970000029 -0.0346000008
  vertex -0.00713436911 -0.0026871569 -0.0346000008
  endloop
 endfacet

 facet normal 0 0 0
  outer loop
  vertex -0.00708091678 0.00302499998 -0.0346000008
  vertex -0.00713436911 -0.0026871569 -0.0346000008
  vertex -0.00799999945 9.02056208e-17 -0.0331999995
  endloop
 endfacet

 facet normal 0 0 0
  outer loop
  vertex -0.00708091678 0.00302499998 -0.0346000008
  vertex -0.00799999945 9.02056208e-17 -0.0331999995
  vertex -0.00778730121 0.00183246832 -0.00139999902
  endloop
 endfacet

 facet normal 0 0 0
  outer loop
  vertex -0.00713436911 0.0026871569 4.14249218e-10
  vertex -0.00615297118 -0.00511282263 -0.000299999112
  vertex 0.0162000004 -0.00970000029 4.14249246e-10
  endloop
 endfacet

 facet normal 0 0 0
  outer loop
  vertex -0.00713436911 0.0026871569 4.14249218e-10
  vertex 0.0162000004 -0.00970000029 4.14249246e-10
  vertex 0.0162000004 0.00970000029 4.14249246e-10
  endloop
 endfacet

 facet normal 0 0 0
  outer loop
  vertex -0.00713436911 0.0026871569 4.14249218e-10
  vertex 0.0162000004 0.00970000029 4.14249246e-10
  vertex -0.00463756034 0.00614679139 4.14249246e-10
  endloop
 endfacet

 facet normal 0 0 0
  outer loop
  vertex 0.0354899354 0.00581898866 -0.00280000037
  vertex 0.0162000004 0.00970000029 4.14249246e-10
  vertex 0.0380000025 -6.40749898e-10 -0.00280000037
  endloop
 endfacet

 facet normal 0 0 0
  outer loop
  vertex 0.0354899354 0.00581898866 -0.00280000037
  vertex 0.0380000025 -6.40749898e-10 -0.00280000037
  vertex 0.0399999991 0.00849999953 -0.00579999993
  endloop
 endfacet

 facet normal 0 0 0
  outer loop
  vertex 0.0399999991 0.00849999953 -0.0287999995
  vertex 0.0399999991 0.00849999953 -0.00579999993
  vertex 0.0399999991 -0.0234999992 -0.00579999993
  endloop
 endfacet

 facet normal 0 0 0
  outer loop
  vertex 0.0399999991 0.00849999953 -0.0287999995
  vertex 0.0399999991 -0.0234999992 -0.00579999993
  vertex 0.0399999991 -0.0234999992 -0.0287999995
  endloop
 endfacet

 facet normal 0 0 0
  outer loop
  vertex 0.0399999991 0.00849999953 -0.0287999995
  vertex 0.0399999991 -0.0234999992 -0.0287999995
  vertex 0.0380000025 -6.40749842e-10 -0.0317999981
  endloop
 endfacet

 facet normal 0 0 0
  outer loop
  vertex 0.0347772688 0.0064169853 -0.0317999981
  vertex 0.0380000025 -6.40749842e-10 -0.0317999981
  vertex 0.0162000004 0.00970000029 -0.0346000008
  endloop
 endfacet

 facet normal 0 0 0
  outer loop
  vertex 0.0347772688 0.0064169853 -0.0317999981
  vertex 0.0162000004 0.00970000029 -0.0346000008
  vertex 0.0390000045 0.00950000156 -0.0287999995
  endloop
 endfacet

 facet normal 0 0 0
  outer loop
  vertex 0.0347772688 0.0064169853 -0.0317999981
  vertex 0.0390000045 0.00950000156 -0.0287999995
  vertex 0.0399999991 0.00849999953 -0.0287999995
  endloop
 endfacet

 facet normal 0 0 0
  outer loop
  vertex 0.0347772688 0.0064169853 -0.0317999981
  vertex 0.0399999991 0.00849999953 -0.0287999995
  vertex 0.0380000025 -6.40749842e-10 -0.0317999981
  endloop
 endfacet

 facet normal 0 0 0
  outer loop
  vertex 0.0390000045 -0.0244999975 -0.0287999995
  vertex 0.0399999991 -0.0234999992 -0.0287999995
  vertex 0.0399999991 -0.0234999992 -0.00579999993
  endloop
 endfacet

 facet normal 0 0 0
  outer loop
  vertex 0.0390000045 -0.0244999975 -0.0287999995
  vertex 0.0399999991 -0.0234999992 -0.00579999993
  vertex 0.0390000045 -0.0244999975 -0.00579999993
  endloop
 endfacet

 facet normal 0 0 0
  outer loop
  vertex 0.0390000045 -0.0244999975 -0.00579999993
  vertex 0.0190000013 -0.0245000012 -0.00400000019
  vertex 0.0190000013 -0.0245000012 -0.0306000002
  endloop
 endfacet

 facet normal 0 0 0
  outer loop
  vertex 0.0390000045 -0.0244999975 -0.00579999993
  vertex 0.0190000013 -0.0245000012 -0.0306000002
  vertex 0.0390000045 -0.0244999975 -0.0287999995
  endloop
 endfacet

 facet normal 0 0 0
  outer loop
  vertex 0.0390000045 -0.0244999975 -0.0287999995
  vertex 0.0190000013 -0.0245000012 -0.0306000002
  vertex 0.0194142144 -0.0235000011 -0.0315999985
  endloop
 endfacet

 facet normal 0 0 0
  outer loop
  vertex 0.0390000045 -0.0244999975 -0.0287999995
  vertex 0.0194142144 -0.0235000011 -0.0315999985
  vertex 0.0162000004 -0.00970000029 -0.0346000008
  endloop
 endfacet

 facet normal 0 0 0
  outer loop
  vertex 0.0390000045 0.00950000156 -0.00579999993
  vertex 0.0104616405 0.00999999978 -0.000299999112
  vertex 0.0162000004 0.00970000029 4.14249246e-10
  endloop
 endfacet

 facet normal 0 0 0
  outer loop
  vertex 0.0390000045 0.00950000156 -0.00579999993
  vertex 0.0162000004 0.00970000029 4.14249246e-10
  vertex 0.0354899354 0.00581898866 -0.00280000037
  endloop
 endfacet

 facet normal 0 0 0
  outer loop
  vertex 0.0390000045 0.00950000156 -0.00579999993
  vertex 0.0354899354 0.00581898866 -0.00280000037
  vertex 0.0399999991 0.00849999953 -0.00579999993
  endloop
 endfacet

 facet normal 0 0 0
  outer loop
  vertex 0.0390000045 0.00950000156 -0.00579999993
  vertex 0.0399999991 0.00849999953 -0.00579999993
  vertex 0.0399999991 0.00849999953 -0.0287999995
  endloop
 endfacet

 facet normal 0 0 0
  outer loop
  vertex 0.0390000045 0.00950000156 -0.00579999993
  vertex 0.0399999991 0.00849999953 -0.0287999995
  vertex 0.0390000045 0.00950000156 -0.0287999995
  endloop
 endfacet

 facet normal 0 0 0
  outer loop
  vertex -0.00146476144 0.00786476117 -0.0015000006
  vertex -0.00463756034 0.00614679139 4.14249246e-10
  vertex 0.0104616405 0.00999999978 -0.000299999112
  endloop
 endfacet

 facet normal 0 0 0
  outer loop
  vertex -0.00146476144 0.00786476117 -0.0015000006
  vertex 0.0104616405 0.00999999978 -0.000299999112
  vertex 0.0104616405 0.00999999978 -0.0342999995
  endloop
 endfacet

 facet normal 0 0 0
  outer loop
  vertex -0.00146476144 0.00786476117 -0.0015000006
  vertex 0.0104616405 0.00999999978 -0.0342999995
  vertex 0.00256690523 0.00861563347 -0.0342999995
  endloop
 endfacet

 facet normal 0 0 0
  outer loop
  vertex -0.00146476144 0.00786476117 -0.0015000006
  vertex 0.00256690523 0.00861563347 -0.0342999995
  vertex -0.00481824437 0.00638627587 -0.0342999995
  endloop
 endfacet

 facet normal 0 0 0
  outer loop
  vertex -0.00146476144 0.00786476117 -0.0015000006
  vertex -0.00481824437 0.00638627587 -0.0342999995
  vertex -0.00463756034 0.00614679139 4.14249246e-10
  endloop
 endfacet

 facet normal 0 0 0
  outer loop
  vertex -0.00778730121 -0.00183246832 -0.00139999902
  vertex -0.00615297118 -0.00511282263 -0.000299999112
  vertex -0.00713436911 0.0026871569 4.14249218e-10
  endloop
 endfacet

 facet normal 0 0 0
  outer loop
  vertex -0.00778730121 -0.00183246832 -0.00139999902
  vertex -0.00713436911 0.0026871569 4.14249218e-10
  vertex -0.00778730121 0.00183246832 -0.00139999902
  endloop
 endfacet

 facet normal 0 0 0
  outer loop
  vertex -0.00778730121 -0.00183246832 -0.00139999902
  vertex -0.00778730121 0.00183246832 -0.00139999902
  vertex -0.00799999945 9.02056208e-17 -0.0331999995
  endloop
 endfacet

 facet normal 0 0 0
  outer loop
  vertex -0.00778730121 -0.00183246832 -0.00139999902
  vertex -0.00799999945 9.02056208e-17 -0.0331999995
  vertex -0.00713436911 -0.0026871569 -0.0346000008
  endloop
 endfacet

 facet normal 0 0 0
  outer loop
  vertex -0.00778730121 -0.00183246832 -0.00139999902
  vertex -0.00713436911 -0.0026871569 -0.0346000008
  vertex -0.00615297118 -0.00511282263 -0.000299999112
  endloop
 endfacet

 facet normal 0 0 0
  outer loop
  vertex 0.0200500023 -0.0235000011 -0.00300000003
  vertex 0.0190000013 -0.0245000012 -0.00400000019
  vertex 0.0390000045 -0.0244999975 -0.00579999993
  endloop
 endfacet

 facet normal 0 0 0
  outer loop
  vertex 0.0200500023 -0.0235000011 -0.00300000003
  vertex 0.0390000045 -0.0244999975 -0.00579999993
  vertex 0.0162000004 -0.00970000029 4.14249246e-10
  endloop
 endfacet

 facet normal 0 0 0
  outer loop
  vertex 0.0200500023 -0.0235000011 -0.00300000003
  vertex 0.0162000004 -0.00970000029 4.14249246e-10
  vertex -0.00615297118 -0.00511282263 -0.000299999112
  endloop
 endfacet

 facet normal 0 0 0
  outer loop
  vertex 0.0200500023 -0.0235000011 -0.00300000003
  vertex -0.00615297118 -0.00511282263 -0.000299999112
  vertex 0.0190000013 -0.0245000012 -0.00400000019
  endloop
 endfacet

 facet normal 0 0 0
  outer loop
  vertex 0.0104616405 0.00999999978 -0.0342999995
  vertex 0.0104616405 0.00999999978 -0.000299999112
  vertex 0.0390000045 0.00950000156 -0.00579999993
  endloop
 endfacet

 facet normal 0 0 0
  outer loop
  vertex 0.0104616405 0.00999999978 -0.0342999995
  vertex 0.0390000045 0.00950000156 -0.00579999993
  vertex 0.0390000045 0.00950000156 -0.0287999995
  endloop
 endfacet

 facet normal 0 0 0
  outer loop
  vertex 0.0104616405 0.00999999978 -0.0342999995
  vertex 0.0390000045 0.00950000156 -0.0287999995
  vertex 0.0162000004 0.00970000029 -0.0346000008
  endloop
 endfacet

 facet normal 0 0 0
  outer loop
  vertex 0.0104616405 0.00999999978 -0.0342999995
  vertex 0.0162000004 0.00970000029 -0.0346000008
  vertex 0.00256690523 0.00861563347 -0.0342999995
  endloop
 endfacet

endsolid AssimpScene
