solid AssimpScene
 facet normal 0 0 0
  outer loop
  vertex -0.00316989725 0.00638627587 -0.0406011008
  vertex -0.00543256989 0.00302499998 -0.0409010984
  vertex -0.00613895338 0.00183246832 -0.00770109706
  endloop
 endfacet

 facet normal 0 0 0
  outer loop
  vertex -0.00316989725 0.00638627587 -0.0406011008
  vertex -0.00613895338 0.00183246832 -0.00770109706
  vertex -0.00548602175 0.0026871569 -0.00630109804
  endloop
 endfacet

 facet normal 0 0 0
  outer loop
  vertex -0.00316989725 0.00638627587 -0.0406011008
  vertex -0.00548602175 0.0026871569 -0.00630109804
  vertex -0.00298921298 0.00614679139 -0.00630109804
  endloop
 endfacet

 facet normal 0 0 0
  outer loop
  vertex -0.00316989725 -0.00638627587 -0.0406011008
  vertex 0.0206483472 -0.0245000012 -0.0369010977
  vertex 0.0206483472 -0.0245000012 -0.0103010982
  endloop
 endfacet

 facet normal 0 0 0
  outer loop
  vertex -0.00316989725 -0.00638627587 -0.0406011008
  vertex 0.0206483472 -0.0245000012 -0.0103010982
  vertex -0.00450462429 -0.00511282263 -0.00660109706
  endloop
 endfacet

 facet normal 0 0 0
  outer loop
  vertex 0.0396483466 -6.40750064e-10 -0.0381010994
  vertex 0.0416483507 -0.0234999992 -0.0351010971
  vertex 0.0406483486 -0.0244999975 -0.0351010971
  endloop
 endfacet

 facet normal 0 0 0
  outer loop
  vertex 0.0396483466 -6.40750064e-10 -0.0381010994
  vertex 0.0406483486 -0.0244999975 -0.0351010971
  vertex 0.0178483482 -0.00970000029 -0.0409010984
  endloop
 endfacet

 facet normal 0 0 0
  outer loop
  vertex 0.0396483466 -6.4075012e-10 -0.0091010984
  vertex 0.0416483507 -0.0234999992 -0.012101098
  vertex 0.0416483507 0.00849999953 -0.012101098
  endloop
 endfacet

 facet normal 0 0 0
  outer loop
  vertex 0.0178483482 0.00970000029 -0.0409010984
  vertex 0.0396483466 -6.40750064e-10 -0.0381010994
  vertex 0.0178483482 -0.00970000029 -0.0409010984
  endloop
 endfacet

 facet normal 0 0 0
  outer loop
  vertex 0.0210625604 -0.0235000011 -0.0379010998
  vertex -0.00316989725 -0.00638627587 -0.0406011008
  vertex 0.0178483482 -0.00970000029 -0.0409010984
  endloop
 endfacet

 facet normal 0 0 0
  outer loop
  vertex 0.0178483482 -0.00970000029 -0.00630109804
  vertex 0.0406483486 -0.0244999975 -0.012101098
  vertex 0.0416483507 -0.0234999992 -0.012101098
  endloop
 endfacet

 facet normal 0 0 0
  outer loop
  vertex 0.0178483482 -0.00970000029 -0.00630109804
  vertex 0.0416483507 -0.0234999992 -0.012101098
  vertex 0.0396483466 -6.4075012e-10 -0.0091010984
  endloop
 endfacet

 facet normal 0 0 0
  outer loop
  vertex 0.0178483482 0.00970000029 -0.00630109804
  vertex 0.0121099874 0.00999999978 -0.00660109706
  vertex -0.00298921298 0.00614679139 -0.00630109804
  endloop
 endfacet

 facet normal 0 0 0
  outer loop
  vertex 0.0178483482 0.00970000029 -0.00630109804
  vertex 0.0178483482 -0.00970000029 -0.00630109804
  vertex 0.0396483466 -6.4075012e-10 -0.0091010984
  endloop
 endfacet

 facet normal 0 0 0
  outer loop
  vertex -0.00548602175 -0.0026871569 -0.0409010984
  vertex 0.0178483482 -0.00970000029 -0.0409010984
  vertex -0.00316989725 -0.00638627587 -0.0406011008
  endloop
 endfacet

 facet normal 0 0 0
  outer loop
  vertex -0.00548602175 -0.0026871569 -0.0409010984
  vertex -0.00316989725 -0.00638627587 -0.0406011008
  vertex -0.00450462429 -0.00511282263 -0.00660109706
  endloop
 endfacet

 facet normal 0 0 0
  outer loop
  vertex 0.0206483472 -0.0245000012 -0.0369010977
  vertex -0.00316989725 -0.00638627587 -0.0406011008
  vertex 0.0210625604 -0.0235000011 -0.0379010998
  endloop
 endfacet

 facet normal 0 0 0
  outer loop
  vertex -0.00543256989 0.00302499998 -0.0409010984
  vertex -0.00316989725 0.00638627587 -0.0406011008
  vertex 0.00421525259 0.00861563347 -0.0406011008
  endloop
 endfacet

 facet normal 0 0 0
  outer loop
  vertex -0.00543256989 0.00302499998 -0.0409010984
  vertex 0.00421525259 0.00861563347 -0.0406011008
  vertex 0.0178483482 0.00970000029 -0.0409010984
  endloop
 endfacet

 facet normal 0 0 0
  outer loop
  vertex -0.00543256989 0.00302499998 -0.0409010984
  vertex 0.0178483482 0.00970000029 -0.0409010984
  vertex 0.0178483482 -0.00970000029 -0.0409010984
  endloop
 endfacet

 facet normal 0 0 0
  outer loop
  vertex -0.00543256989 0.00302499998 -0.0409010984
  vertex 0.0178483482 -0.00970000029 -0.0409010984
  vertex -0.00548602175 -0.0026871569 -0.0409010984
  endloop
 endfacet

 facet normal 0 0 0
  outer loop
  vertex -0.00543256989 0.00302499998 -0.0409010984
  vertex -0.00548602175 -0.0026871569 -0.0409010984
  vertex -0.00635165256 -1.38777878e-17 -0.0395011008
  endloop
 endfacet

 facet normal 0 0 0
  outer loop
  vertex -0.00543256989 0.00302499998 -0.0409010984
  vertex -0.00635165256 -1.38777878e-17 -0.0395011008
  vertex -0.00613895338 0.00183246832 -0.00770109706
  endloop
 endfacet

 facet normal 0 0 0
  outer loop
  vertex -0.00548602175 0.0026871569 -0.00630109804
  vertex -0.00450462429 -0.00511282263 -0.00660109706
  vertex 0.0178483482 -0.00970000029 -0.00630109804
  endloop
 endfacet

 facet normal 0 0 0
  outer loop
  vertex -0.00548602175 0.0026871569 -0.00630109804
  vertex 0.0178483482 -0.00970000029 -0.00630109804
  vertex 0.0178483482 0.00970000029 -0.00630109804
  endloop
 endfacet

 facet normal 0 0 0
  outer loop
  vertex -0.00548602175 0.0026871569 -0.00630109804
  vertex 0.0178483482 0.00970000029 -0.00630109804
  vertex -0.00298921298 0.00614679139 -0.00630109804
  endloop
 endfacet

 facet normal 0 0 0
  outer loop
  vertex 0.0371382795 0.00581898866 -0.0091010984
  vertex 0.0178483482 0.00970000029 -0.00630109804
  vertex 0.0396483466 -6.4075012e-10 -0.0091010984
  endloop
 endfacet

 facet normal 0 0 0
  outer loop
  vertex 0.0371382795 0.00581898866 -0.0091010984
  vertex 0.0396483466 -6.4075012e-10 -0.0091010984
  vertex 0.0416483507 0.00849999953 -0.012101098
  endloop
 endfacet

 facet normal 0 0 0
  outer loop
  vertex 0.0416483507 0.00849999953 -0.0351010971
  vertex 0.0416483507 0.00849999953 -0.012101098
  vertex 0.0416483507 -0.0234999992 -0.012101098
  endloop
 endfacet

 facet normal 0 0 0
  outer loop
  vertex 0.0416483507 0.00849999953 -0.0351010971
  vertex 0.0416483507 -0.0234999992 -0.012101098
  vertex 0.0416483507 -0.0234999992 -0.0351010971
  endloop
 endfacet

 facet normal 0 0 0
  outer loop
  vertex 0.0416483507 0.00849999953 -0.0351010971
  vertex 0.0416483507 -0.0234999992 -0.0351010971
  vertex 0.0396483466 -6.40750064e-10 -0.0381010994
  endloop
 endfacet

 facet normal 0 0 0
  outer loop
  vertex 0.0364256166 0.0064169853 -0.0381010994
  vertex 0.0396483466 -6.40750064e-10 -0.0381010994
  vertex 0.0178483482 0.00970000029 -0.0409010984
  endloop
 endfacet

 facet normal 0 0 0
  outer loop
  vertex 0.0364256166 0.0064169853 -0.0381010994
  vertex 0.0178483482 0.00970000029 -0.0409010984
  vertex 0.0406483486 0.00950000156 -0.0351010971
  endloop
 endfacet

 facet normal 0 0 0
  outer loop
  vertex 0.0364256166 0.0064169853 -0.0381010994
  vertex 0.0406483486 0.00950000156 -0.0351010971
  vertex 0.0416483507 0.00849999953 -0.0351010971
  endloop
 endfacet

 facet normal 0 0 0
  outer loop
  vertex 0.0364256166 0.0064169853 -0.0381010994
  vertex 0.0416483507 0.00849999953 -0.0351010971
  vertex 0.0396483466 -6.40750064e-10 -0.0381010994
  endloop
 endfacet

 facet normal 0 0 0
  outer loop
  vertex 0.0406483486 -0.0244999975 -0.0351010971
  vertex 0.0416483507 -0.0234999992 -0.0351010971
  vertex 0.0416483507 -0.0234999992 -0.012101098
  endloop
 endfacet

 facet normal 0 0 0
  outer loop
  vertex 0.0406483486 -0.0244999975 -0.0351010971
  vertex 0.0416483507 -0.0234999992 -0.012101098
  vertex 0.0406483486 -0.0244999975 -0.012101098
  endloop
 endfacet

 facet normal 0 0 0
  outer loop
  vertex 0.0406483486 -0.0244999975 -0.012101098
  vertex 0.0206483472 -0.0245000012 -0.0103010982
  vertex 0.0206483472 -0.0245000012 -0.0369010977
  endloop
 endfacet

 facet normal 0 0 0
  outer loop
  vertex 0.0406483486 -0.0244999975 -0.012101098
  vertex 0.0206483472 -0.0245000012 -0.0369010977
  vertex 0.0406483486 -0.0244999975 -0.0351010971
  endloop
 endfacet

 facet normal 0 0 0
  outer loop
  vertex 0.0406483486 -0.0244999975 -0.0351010971
  vertex 0.0206483472 -0.0245000012 -0.0369010977
  vertex 0.0210625604 -0.0235000011 -0.0379010998
  endloop
 endfacet

 facet normal 0 0 0
  outer loop
  vertex 0.0406483486 -0.0244999975 -0.0351010971
  vertex 0.0210625604 -0.0235000011 -0.0379010998
  vertex 0.0178483482 -0.00970000029 -0.0409010984
  endloop
 endfacet

 facet normal 0 0 0
  outer loop
  vertex 0.0406483486 0.00950000156 -0.012101098
  vertex 0.0121099874 0.00999999978 -0.00660109706
  vertex 0.0178483482 0.00970000029 -0.00630109804
  endloop
 endfacet

 facet normal 0 0 0
  outer loop
  vertex 0.0406483486 0.00950000156 -0.012101098
  vertex 0.0178483482 0.00970000029 -0.00630109804
  vertex 0.0371382795 0.00581898866 -0.0091010984
  endloop
 endfacet

 facet normal 0 0 0
  outer loop
  vertex 0.0406483486 0.00950000156 -0.012101098
  vertex 0.0371382795 0.00581898866 -0.0091010984
  vertex 0.0416483507 0.00849999953 -0.012101098
  endloop
 endfacet

 facet normal 0 0 0
  outer loop
  vertex 0.0406483486 0.00950000156 -0.012101098
  vertex 0.0416483507 0.00849999953 -0.012101098
  vertex 0.0416483507 0.00849999953 -0.0351010971
  endloop
 endfacet

 facet normal 0 0 0
  outer loop
  vertex 0.0406483486 0.00950000156 -0.012101098
  vertex 0.0416483507 0.00849999953 -0.0351010971
  vertex 0.0406483486 0.00950000156 -0.0351010971
  endloop
 endfacet

 facet normal 0 0 0
  outer loop
  vertex 0.00018358606 0.00786476117 -0.00780109875
  vertex -0.00298921298 0.00614679139 -0.00630109804
  vertex 0.0121099874 0.00999999978 -0.00660109706
  endloop
 endfacet

 facet normal 0 0 0
  outer loop
  vertex 0.00018358606 0.00786476117 -0.00780109875
  vertex 0.0121099874 0.00999999978 -0.00660109706
  vertex 0.0121099874 0.00999999978 -0.0406011008
  endloop
 endfacet

 facet normal 0 0 0
  outer loop
  vertex 0.00018358606 0.00786476117 -0.00780109875
  vertex 0.0121099874 0.00999999978 -0.0406011008
  vertex 0.00421525259 0.00861563347 -0.0406011008
  endloop
 endfacet

 facet normal 0 0 0
  outer loop
  vertex 0.00018358606 0.00786476117 -0.00780109875
  vertex 0.00421525259 0.00861563347 -0.0406011008
  vertex -0.00316989725 0.00638627587 -0.0406011008
  endloop
 endfacet

 facet normal 0 0 0
  outer loop
  vertex 0.00018358606 0.00786476117 -0.00780109875
  vertex -0.00316989725 0.00638627587 -0.0406011008
  vertex -0.00298921298 0.00614679139 -0.00630109804
  endloop
 endfacet

 facet normal 0 0 0
  outer loop
  vertex -0.00613895338 -0.00183246832 -0.00770109706
  vertex -0.00450462429 -0.00511282263 -0.00660109706
  vertex -0.00548602175 0.0026871569 -0.00630109804
  endloop
 endfacet

 facet normal 0 0 0
  outer loop
  vertex -0.00613895338 -0.00183246832 -0.00770109706
  vertex -0.00548602175 0.0026871569 -0.00630109804
  vertex -0.00613895338 0.00183246832 -0.00770109706
  endloop
 endfacet

 facet normal 0 0 0
  outer loop
  vertex -0.00613895338 -0.00183246832 -0.00770109706
  vertex -0.00613895338 0.00183246832 -0.00770109706
  vertex -0.00635165256 -1.38777878e-17 -0.0395011008
  endloop
 endfacet

 facet normal 0 0 0
  outer loop
  vertex -0.00613895338 -0.00183246832 -0.00770109706
  vertex -0.00635165256 -1.38777878e-17 -0.0395011008
  vertex -0.00548602175 -0.0026871569 -0.0409010984
  endloop
 endfacet

 facet normal 0 0 0
  outer loop
  vertex -0.00613895338 -0.00183246832 -0.00770109706
  vertex -0.00548602175 -0.0026871569 -0.0409010984
  vertex -0.00450462429 -0.00511282263 -0.00660109706
  endloop
 endfacet

 facet normal 0 0 0
  outer loop
  vertex 0.0216983482 -0.0235000011 -0.00930109713
  vertex 0.0206483472 -0.0245000012 -0.0103010982
  vertex 0.0406483486 -0.0244999975 -0.012101098
  endloop
 endfacet

 facet normal 0 0 0
  outer loop
  vertex 0.0216983482 -0.0235000011 -0.00930109713
  vertex 0.0406483486 -0.0244999975 -0.012101098
  vertex 0.0178483482 -0.00970000029 -0.00630109804
  endloop
 endfacet

 facet normal 0 0 0
  outer loop
  vertex 0.0216983482 -0.0235000011 -0.00930109713
  vertex 0.0178483482 -0.00970000029 -0.00630109804
  vertex -0.00450462429 -0.00511282263 -0.00660109706
  endloop
 endfacet

 facet normal 0 0 0
  outer loop
  vertex 0.0216983482 -0.0235000011 -0.00930109713
  vertex -0.00450462429 -0.00511282263 -0.00660109706
  vertex 0.0206483472 -0.0245000012 -0.0103010982
  endloop
 endfacet

 facet normal 0 0 0
  outer loop
  vertex 0.0121099874 0.00999999978 -0.0406011008
  vertex 0.0121099874 0.00999999978 -0.00660109706
  vertex 0.0406483486 0.00950000156 -0.012101098
  endloop
 endfacet

 facet normal 0 0 0
  outer loop
  vertex 0.0121099874 0.00999999978 -0.0406011008
  vertex 0.0406483486 0.00950000156 -0.012101098
  vertex 0.0406483486 0.00950000156 -0.0351010971
  endloop
 endfacet

 facet normal 0 0 0
  outer loop
  vertex 0.0121099874 0.00999999978 -0.0406011008
  vertex 0.0406483486 0.00950000156 -0.0351010971
  vertex 0.0178483482 0.00970000029 -0.0409010984
  endloop
 endfacet

 facet normal 0 0 0
  outer loop
  vertex 0.0121099874 0.00999999978 -0.0406011008
  vertex 0.0178483482 0.00970000029 -0.0409010984
  vertex 0.00421525259 0.00861563347 -0.0406011008
  endloop
 endfacet

endsolid AssimpScene
