solid AssimpScene
 facet normal 0 0 0
  outer loop
  vertex -0.0058189882 0.0054899333 -0.00300000049
  vertex -0.00798646361 0.000465158635 -0.00300000049
  vertex -0.00641698483 -0.00477726851 -0.00300000049
  endloop
 endfacet

 facet normal 0 0 0
  outer loop
  vertex -0.0058189882 0.0054899333 -0.00300000049
  vertex -0.00641698483 -0.00477726851 -0.00300000049
  vertex 6.4075012e-10 -0.00800000038 -0.00300000049
  endloop
 endfacet

 facet normal 0 0 0
  outer loop
  vertex -0.0058189882 0.0054899333 -0.00300000049
  vertex 6.4075012e-10 -0.00800000038 -0.00300000049
  vertex 0.0079864664 0.000465158635 -0.00300000049
  endloop
 endfacet

 facet normal 0 0 0
  outer loop
  vertex -0.0058189882 0.0054899333 -0.00300000049
  vertex 0.0079864664 0.000465158635 -0.00300000049
  vertex 6.4075012e-10 0.00800000038 -0.00300000049
  endloop
 endfacet

 facet normal 0 0 0
  outer loop
  vertex -0.000928743975 -0.0079459073 -0.0319999978
  vertex 0.0234999992 -0.00999999978 -0.0289999973
  vertex -0.00849999953 -0.00999999978 -0.0289999973
  endloop
 endfacet

 facet normal 0 0 0
  outer loop
  vertex 0.0079864664 -0.000465158635 -0.0319999978
  vertex 0.0244999975 -0.00899999961 -0.0289999973
  vertex 0.0234999992 -0.00999999978 -0.0289999973
  endloop
 endfacet

 facet normal 0 0 0
  outer loop
  vertex 0.0079864664 -0.000465158635 -0.0319999978
  vertex 0.0234999992 -0.00999999978 -0.0289999973
  vertex -0.000928743975 -0.0079459073 -0.0319999978
  endloop
 endfacet

 facet normal 0 0 0
  outer loop
  vertex 0.0079864664 -0.000465158635 -0.0319999978
  vertex 6.40750231e-10 0.00800000038 -0.0319999978
  vertex 0.0234999992 0.00999999978 -0.0289999973
  endloop
 endfacet

 facet normal 0 0 0
  outer loop
  vertex 0.0079864664 -0.000465158635 -0.0319999978
  vertex 0.0234999992 0.00999999978 -0.0289999973
  vertex 0.0244999975 0.00899999961 -0.0289999973
  endloop
 endfacet

 facet normal 0 0 0
  outer loop
  vertex -0.00849999953 0.00999999978 -0.0289999973
  vertex 0.0234999992 0.00999999978 -0.0289999973
  vertex 6.40750231e-10 0.00800000038 -0.0319999978
  endloop
 endfacet

 facet normal 0 0 0
  outer loop
  vertex -0.00950000156 -0.00899999961 -0.0289999973
  vertex -0.00950000156 0.00899999961 -0.0289999973
  vertex -0.00798646361 -0.000465158635 -0.0319999978
  endloop
 endfacet

 facet normal 0 0 0
  outer loop
  vertex -0.00950000156 0.00899999961 -0.00600000005
  vertex -0.00849999953 0.00999999978 -0.00600000005
  vertex -0.00849999953 0.00999999978 -0.0289999973
  endloop
 endfacet

 facet normal 0 0 0
  outer loop
  vertex -0.00950000156 0.00899999961 -0.00600000005
  vertex -0.00849999953 0.00999999978 -0.0289999973
  vertex -0.00950000156 0.00899999961 -0.0289999973
  endloop
 endfacet

 facet normal 0 0 0
  outer loop
  vertex -0.00950000156 0.00899999961 -0.00600000005
  vertex -0.00950000156 0.00899999961 -0.0289999973
  vertex -0.00950000156 -0.00899999961 -0.0289999973
  endloop
 endfacet

 facet normal 0 0 0
  outer loop
  vertex -0.00950000156 0.00899999961 -0.00600000005
  vertex -0.00950000156 -0.00899999961 -0.0289999973
  vertex -0.00950000156 -0.00899999961 -0.00600000005
  endloop
 endfacet

 facet normal 0 0 0
  outer loop
  vertex -0.00950000156 0.00899999961 -0.00600000005
  vertex -0.00950000156 -0.00899999961 -0.00600000005
  vertex -0.00798646361 0.000465158635 -0.00300000049
  endloop
 endfacet

 facet normal 0 0 0
  outer loop
  vertex 0.0244999975 -0.00899999961 -0.0289999973
  vertex 0.0244999975 -0.00899999961 -0.00600000005
  vertex 0.0234999992 -0.00999999978 -0.00600000005
  endloop
 endfacet

 facet normal 0 0 0
  outer loop
  vertex 0.0244999975 -0.00899999961 -0.0289999973
  vertex 0.0234999992 -0.00999999978 -0.00600000005
  vertex 0.0234999992 -0.00999999978 -0.0289999973
  endloop
 endfacet

 facet normal 0 0 0
  outer loop
  vertex 0.0244999975 -0.00899999961 -0.0289999973
  vertex 0.0079864664 -0.000465158635 -0.0319999978
  vertex 0.0244999975 0.00899999961 -0.0289999973
  endloop
 endfacet

 facet normal 0 0 0
  outer loop
  vertex 0.0244999975 -0.00899999961 -0.0289999973
  vertex 0.0244999975 0.00899999961 -0.0289999973
  vertex 0.0244999975 0.00899999961 -0.00600000005
  endloop
 endfacet

 facet normal 0 0 0
  outer loop
  vertex 0.0244999975 -0.00899999961 -0.0289999973
  vertex 0.0244999975 0.00899999961 -0.00600000005
  vertex 0.0244999975 -0.00899999961 -0.00600000005
  endloop
 endfacet

 facet normal 0 0 0
  outer loop
  vertex -0.00849999953 -0.00999999978 -0.00600000005
  vertex -0.00849999953 -0.00999999978 -0.0289999973
  vertex 0.0234999992 -0.00999999978 -0.0289999973
  endloop
 endfacet

 facet normal 0 0 0
  outer loop
  vertex -0.00849999953 -0.00999999978 -0.00600000005
  vertex 0.0234999992 -0.00999999978 -0.0289999973
  vertex 0.0234999992 -0.00999999978 -0.00600000005
  endloop
 endfacet

 facet normal 0 0 0
  outer loop
  vertex -0.00849999953 -0.00999999978 -0.00600000005
  vertex 0.0234999992 -0.00999999978 -0.00600000005
  vertex 6.4075012e-10 -0.00800000038 -0.00300000049
  endloop
 endfacet

 facet normal 0 0 0
  outer loop
  vertex -0.00849999953 -0.00999999978 -0.00600000005
  vertex -0.00950000156 -0.00899999961 -0.00600000005
  vertex -0.00950000156 -0.00899999961 -0.0289999973
  endloop
 endfacet

 facet normal 0 0 0
  outer loop
  vertex -0.00849999953 -0.00999999978 -0.00600000005
  vertex -0.00950000156 -0.00899999961 -0.0289999973
  vertex -0.00849999953 -0.00999999978 -0.0289999973
  endloop
 endfacet

 facet normal 0 0 0
  outer loop
  vertex 0.0079864664 0.000465158635 -0.00300000049
  vertex 6.4075012e-10 -0.00800000038 -0.00300000049
  vertex 0.0234999992 -0.00999999978 -0.00600000005
  endloop
 endfacet

 facet normal 0 0 0
  outer loop
  vertex 0.0079864664 0.000465158635 -0.00300000049
  vertex 0.0234999992 -0.00999999978 -0.00600000005
  vertex 0.0244999975 -0.00899999961 -0.00600000005
  endloop
 endfacet

 facet normal 0 0 0
  outer loop
  vertex 0.0079864664 0.000465158635 -0.00300000049
  vertex 0.0244999975 -0.00899999961 -0.00600000005
  vertex 0.0244999975 0.00899999961 -0.00600000005
  endloop
 endfacet

 facet normal 0 0 0
  outer loop
  vertex -0.00641698483 -0.00477726851 -0.00300000049
  vertex -0.00950000156 -0.00899999961 -0.00600000005
  vertex -0.00849999953 -0.00999999978 -0.00600000005
  endloop
 endfacet

 facet normal 0 0 0
  outer loop
  vertex -0.00641698483 -0.00477726851 -0.00300000049
  vertex -0.00849999953 -0.00999999978 -0.00600000005
  vertex 6.4075012e-10 -0.00800000038 -0.00300000049
  endloop
 endfacet

 facet normal 0 0 0
  outer loop
  vertex -0.00641698483 -0.00477726851 -0.00300000049
  vertex -0.00798646361 0.000465158635 -0.00300000049
  vertex -0.00950000156 -0.00899999961 -0.00600000005
  endloop
 endfacet

 facet normal 0 0 0
  outer loop
  vertex -0.00514230086 0.00612835493 -0.0319999978
  vertex -0.00798646361 -0.000465158635 -0.0319999978
  vertex -0.00950000156 0.00899999961 -0.0289999973
  endloop
 endfacet

 facet normal 0 0 0
  outer loop
  vertex -0.00514230086 0.00612835493 -0.0319999978
  vertex -0.00950000156 0.00899999961 -0.0289999973
  vertex -0.00849999953 0.00999999978 -0.0289999973
  endloop
 endfacet

 facet normal 0 0 0
  outer loop
  vertex -0.00514230086 0.00612835493 -0.0319999978
  vertex -0.00849999953 0.00999999978 -0.0289999973
  vertex 6.40750231e-10 0.00800000038 -0.0319999978
  endloop
 endfacet

 facet normal 0 0 0
  outer loop
  vertex 0.0234999992 0.00999999978 -0.00600000005
  vertex 0.0244999975 0.00899999961 -0.00600000005
  vertex 0.0244999975 0.00899999961 -0.0289999973
  endloop
 endfacet

 facet normal 0 0 0
  outer loop
  vertex 0.0234999992 0.00999999978 -0.00600000005
  vertex 0.0244999975 0.00899999961 -0.0289999973
  vertex 0.0234999992 0.00999999978 -0.0289999973
  endloop
 endfacet

 facet normal 0 0 0
  outer loop
  vertex 0.0234999992 0.00999999978 -0.00600000005
  vertex 0.0234999992 0.00999999978 -0.0289999973
  vertex -0.00849999953 0.00999999978 -0.0289999973
  endloop
 endfacet

 facet normal 0 0 0
  outer loop
  vertex 0.0234999992 0.00999999978 -0.00600000005
  vertex -0.00849999953 0.00999999978 -0.0289999973
  vertex -0.00849999953 0.00999999978 -0.00600000005
  endloop
 endfacet

 facet normal 0 0 0
  outer loop
  vertex 0.0234999992 0.00999999978 -0.00600000005
  vertex -0.00849999953 0.00999999978 -0.00600000005
  vertex 6.4075012e-10 0.00800000038 -0.00300000049
  endloop
 endfacet

 facet normal 0 0 0
  outer loop
  vertex 6.4075012e-10 0.00800000038 -0.00300000049
  vertex 0.0079864664 0.000465158635 -0.00300000049
  vertex 0.0244999975 0.00899999961 -0.00600000005
  endloop
 endfacet

 facet normal 0 0 0
  outer loop
  vertex 6.4075012e-10 0.00800000038 -0.00300000049
  vertex 0.0244999975 0.00899999961 -0.00600000005
  vertex 0.0234999992 0.00999999978 -0.00600000005
  endloop
 endfacet

 facet normal 0 0 0
  outer loop
  vertex -0.0058189882 0.0054899333 -0.00300000049
  vertex 6.4075012e-10 0.00800000038 -0.00300000049
  vertex -0.00849999953 0.00999999978 -0.00600000005
  endloop
 endfacet

 facet normal 0 0 0
  outer loop
  vertex -0.0058189882 0.0054899333 -0.00300000049
  vertex -0.00849999953 0.00999999978 -0.00600000005
  vertex -0.00950000156 0.00899999961 -0.00600000005
  endloop
 endfacet

 facet normal 0 0 0
  outer loop
  vertex -0.0058189882 0.0054899333 -0.00300000049
  vertex -0.00950000156 0.00899999961 -0.00600000005
  vertex -0.00798646361 0.000465158635 -0.00300000049
  endloop
 endfacet

 facet normal 0 0 0
  outer loop
  vertex -0.0058189882 -0.0054899333 -0.0319999978
  vertex -0.000928743975 -0.0079459073 -0.0319999978
  vertex -0.00849999953 -0.00999999978 -0.0289999973
  endloop
 endfacet

 facet normal 0 0 0
  outer loop
  vertex -0.0058189882 -0.0054899333 -0.0319999978
  vertex -0.00849999953 -0.00999999978 -0.0289999973
  vertex -0.00950000156 -0.00899999961 -0.0289999973
  endloop
 endfacet

 facet normal 0 0 0
  outer loop
  vertex -0.0058189882 -0.0054899333 -0.0319999978
  vertex -0.00950000156 -0.00899999961 -0.0289999973
  vertex -0.00798646361 -0.000465158635 -0.0319999978
  endloop
 endfacet

 facet normal 0 0 0
  outer loop
  vertex -0.0058189882 -0.0054899333 -0.0319999978
  vertex -0.00798646361 -0.000465158635 -0.0319999978
  vertex -0.00514230086 0.00612835493 -0.0319999978
  endloop
 endfacet

 facet normal 0 0 0
  outer loop
  vertex -0.0058189882 -0.0054899333 -0.0319999978
  vertex -0.00514230086 0.00612835493 -0.0319999978
  vertex 6.40750231e-10 0.00800000038 -0.0319999978
  endloop
 endfacet

 facet normal 0 0 0
  outer loop
  vertex -0.0058189882 -0.0054899333 -0.0319999978
  vertex 6.40750231e-10 0.00800000038 -0.0319999978
  vertex 0.0079864664 -0.000465158635 -0.0319999978
  endloop
 endfacet

 facet normal 0 0 0
  outer loop
  vertex -0.0058189882 -0.0054899333 -0.0319999978
  vertex 0.0079864664 -0.000465158635 -0.0319999978
  vertex -0.000928743975 -0.0079459073 -0.0319999978
  endloop
 endfacet

endsolid AssimpScene
