solid AssimpScene
 facet normal 0 0 0
  outer loop
  vertex -0.0058189882 -0.0054899333 -0.0312000029
  vertex -0.00798646361 -0.000465158635 -0.0312000029
  vertex -0.00641698483 0.00477726851 -0.0312000029
  endloop
 endfacet

 facet normal 0 0 0
  outer loop
  vertex -0.0058189882 -0.0054899333 -0.0312000029
  vertex -0.00641698483 0.00477726851 -0.0312000029
  vertex -0.00184492685 0.00778435916 -0.0312000029
  endloop
 endfacet

 facet normal 0 0 0
  outer loop
  vertex -0.0058189882 -0.0054899333 -0.0312000029
  vertex -0.00184492685 0.00778435916 -0.0312000029
  vertex 0.0499287434 0.0079459073 -0.0312000029
  endloop
 endfacet

 facet normal 0 0 0
  outer loop
  vertex -0.0058189882 -0.0054899333 -0.0312000029
  vertex 0.0499287434 0.0079459073 -0.0312000029
  vertex 0.0548189878 0.0054899333 -0.0312000029
  endloop
 endfacet

 facet normal 0 0 0
  outer loop
  vertex -0.0058189882 -0.0054899333 -0.0312000029
  vertex 0.0548189878 0.0054899333 -0.0312000029
  vertex 0.0569864623 0.000465158635 -0.0312000029
  endloop
 endfacet

 facet normal 0 0 0
  outer loop
  vertex -0.0058189882 -0.0054899333 -0.0312000029
  vertex 0.0569864623 0.000465158635 -0.0312000029
  vertex 0.0554169826 -0.00477726851 -0.0312000029
  endloop
 endfacet

 facet normal 0 0 0
  outer loop
  vertex -0.0058189882 -0.0054899333 -0.0312000029
  vertex 0.0554169826 -0.00477726851 -0.0312000029
  vertex 0.0508449264 -0.00778435916 -0.0312000029
  endloop
 endfacet

 facet normal 0 0 0
  outer loop
  vertex -0.0058189882 -0.0054899333 -0.0312000029
  vertex 0.0508449264 -0.00778435916 -0.0312000029
  vertex -0.000928743975 -0.0079459073 -0.0312000029
  endloop
 endfacet

 facet normal 0 0 0
  outer loop
  vertex -0.000928743975 -0.0079459073 -0.0312000029
  vertex 0.0508449264 -0.00778435916 -0.0312000029
  vertex 0.057500001 -0.00999999978 -0.0282000024
  endloop
 endfacet

 facet normal 0 0 0
  outer loop
  vertex -0.000928743975 -0.0079459073 -0.0312000029
  vertex 0.057500001 -0.00999999978 -0.0282000024
  vertex -0.00849999953 -0.00999999978 -0.0282000024
  endloop
 endfacet

 facet normal 0 0 0
  outer loop
  vertex 0.057500001 0.00999999978 -0.00520000048
  vertex -0.00849999953 0.00999999978 -0.00520000048
  vertex -0.000928743975 0.0079459073 -0.00220000045
  endloop
 endfacet

 facet normal 0 0 0
  outer loop
  vertex 0.057500001 0.00999999978 -0.00520000048
  vertex -0.000928743975 0.0079459073 -0.00220000045
  vertex 0.048999995 0.00800000038 -0.00220000045
  endloop
 endfacet

 facet normal 0 0 0
  outer loop
  vertex -0.00849999953 -0.00999999978 -0.00520000048
  vertex -0.00849999953 -0.00999999978 -0.0282000024
  vertex 0.057500001 -0.00999999978 -0.0282000024
  endloop
 endfacet

 facet normal 0 0 0
  outer loop
  vertex -0.00849999953 -0.00999999978 -0.00520000048
  vertex 0.057500001 -0.00999999978 -0.0282000024
  vertex 0.057500001 -0.00999999978 -0.00520000048
  endloop
 endfacet

 facet normal 0 0 0
  outer loop
  vertex -0.00849999953 -0.00999999978 -0.00520000048
  vertex 0.057500001 -0.00999999978 -0.00520000048
  vertex 0.0499287434 -0.0079459073 -0.00220000045
  endloop
 endfacet

 facet normal 0 0 0
  outer loop
  vertex -0.00849999953 -0.00999999978 -0.00520000048
  vertex 0.0499287434 -0.0079459073 -0.00220000045
  vertex 6.40749842e-10 -0.00800000038 -0.00220000045
  endloop
 endfacet

 facet normal 0 0 0
  outer loop
  vertex 0.057500001 0.00999999978 -0.0282000024
  vertex 0.0499287434 0.0079459073 -0.0312000029
  vertex -0.00184492685 0.00778435916 -0.0312000029
  endloop
 endfacet

 facet normal 0 0 0
  outer loop
  vertex 0.057500001 0.00999999978 -0.0282000024
  vertex -0.00184492685 0.00778435916 -0.0312000029
  vertex -0.00849999953 0.00999999978 -0.0282000024
  endloop
 endfacet

 facet normal 0 0 0
  outer loop
  vertex -0.00849999953 0.00999999978 -0.0282000024
  vertex -0.00849999953 0.00999999978 -0.00520000048
  vertex 0.057500001 0.00999999978 -0.00520000048
  endloop
 endfacet

 facet normal 0 0 0
  outer loop
  vertex -0.00849999953 0.00999999978 -0.0282000024
  vertex 0.057500001 0.00999999978 -0.00520000048
  vertex 0.057500001 0.00999999978 -0.0282000024
  endloop
 endfacet

 facet normal 0 0 0
  outer loop
  vertex 0.0585000031 0.00899999961 -0.0282000024
  vertex 0.0585000031 -0.00899999961 -0.0282000024
  vertex 0.0569864623 0.000465158635 -0.0312000029
  endloop
 endfacet

 facet normal 0 0 0
  outer loop
  vertex 0.0585000031 0.00899999961 -0.0282000024
  vertex 0.057500001 0.00999999978 -0.0282000024
  vertex 0.057500001 0.00999999978 -0.00520000048
  endloop
 endfacet

 facet normal 0 0 0
  outer loop
  vertex 0.0585000031 0.00899999961 -0.0282000024
  vertex 0.057500001 0.00999999978 -0.00520000048
  vertex 0.0585000031 0.00899999961 -0.00520000048
  endloop
 endfacet

 facet normal 0 0 0
  outer loop
  vertex 0.0585000031 -0.00899999961 -0.00520000048
  vertex 0.057500001 -0.00999999978 -0.00520000048
  vertex 0.057500001 -0.00999999978 -0.0282000024
  endloop
 endfacet

 facet normal 0 0 0
  outer loop
  vertex 0.0585000031 -0.00899999961 -0.00520000048
  vertex 0.057500001 -0.00999999978 -0.0282000024
  vertex 0.0585000031 -0.00899999961 -0.0282000024
  endloop
 endfacet

 facet normal 0 0 0
  outer loop
  vertex 0.0585000031 -0.00899999961 -0.00520000048
  vertex 0.0585000031 -0.00899999961 -0.0282000024
  vertex 0.0585000031 0.00899999961 -0.0282000024
  endloop
 endfacet

 facet normal 0 0 0
  outer loop
  vertex 0.0585000031 -0.00899999961 -0.00520000048
  vertex 0.0585000031 0.00899999961 -0.0282000024
  vertex 0.0585000031 0.00899999961 -0.00520000048
  endloop
 endfacet

 facet normal 0 0 0
  outer loop
  vertex 0.0585000031 -0.00899999961 -0.00520000048
  vertex 0.0585000031 0.00899999961 -0.00520000048
  vertex 0.0569864623 -0.000465158635 -0.00220000045
  endloop
 endfacet

 facet normal 0 0 0
  outer loop
  vertex -0.00950000156 -0.00899999961 -0.0282000024
  vertex -0.00950000156 0.00899999961 -0.0282000024
  vertex -0.00798646361 -0.000465158635 -0.0312000029
  endloop
 endfacet

 facet normal 0 0 0
  outer loop
  vertex -0.00950000156 -0.00899999961 -0.0282000024
  vertex -0.00849999953 -0.00999999978 -0.0282000024
  vertex -0.00849999953 -0.00999999978 -0.00520000048
  endloop
 endfacet

 facet normal 0 0 0
  outer loop
  vertex -0.00950000156 -0.00899999961 -0.0282000024
  vertex -0.00849999953 -0.00999999978 -0.00520000048
  vertex -0.00950000156 -0.00899999961 -0.00520000048
  endloop
 endfacet

 facet normal 0 0 0
  outer loop
  vertex -0.00950000156 0.00899999961 -0.00520000048
  vertex -0.00849999953 0.00999999978 -0.00520000048
  vertex -0.00849999953 0.00999999978 -0.0282000024
  endloop
 endfacet

 facet normal 0 0 0
  outer loop
  vertex -0.00950000156 0.00899999961 -0.00520000048
  vertex -0.00849999953 0.00999999978 -0.0282000024
  vertex -0.00950000156 0.00899999961 -0.0282000024
  endloop
 endfacet

 facet normal 0 0 0
  outer loop
  vertex -0.00950000156 0.00899999961 -0.00520000048
  vertex -0.00950000156 0.00899999961 -0.0282000024
  vertex -0.00950000156 -0.00899999961 -0.0282000024
  endloop
 endfacet

 facet normal 0 0 0
  outer loop
  vertex -0.00950000156 0.00899999961 -0.00520000048
  vertex -0.00950000156 -0.00899999961 -0.0282000024
  vertex -0.00950000156 -0.00899999961 -0.00520000048
  endloop
 endfacet

 facet normal 0 0 0
  outer loop
  vertex -0.00950000156 0.00899999961 -0.00520000048
  vertex -0.00950000156 -0.00899999961 -0.00520000048
  vertex -0.00798646361 0.000465158635 -0.00220000045
  endloop
 endfacet

 facet normal 0 0 0
  outer loop
  vertex 0.0554169826 0.00477726851 -0.00220000045
  vertex 0.0585000031 0.00899999961 -0.00520000048
  vertex 0.057500001 0.00999999978 -0.00520000048
  endloop
 endfacet

 facet normal 0 0 0
  outer loop
  vertex 0.0554169826 0.00477726851 -0.00220000045
  vertex 0.057500001 0.00999999978 -0.00520000048
  vertex 0.048999995 0.00800000038 -0.00220000045
  endloop
 endfacet

 facet normal 0 0 0
  outer loop
  vertex 0.0554169826 0.00477726851 -0.00220000045
  vertex 0.0569864623 -0.000465158635 -0.00220000045
  vertex 0.0585000031 0.00899999961 -0.00520000048
  endloop
 endfacet

 facet normal 0 0 0
  outer loop
  vertex -0.00514230086 -0.00612835493 -0.00220000045
  vertex -0.00950000156 -0.00899999961 -0.00520000048
  vertex -0.00849999953 -0.00999999978 -0.00520000048
  endloop
 endfacet

 facet normal 0 0 0
  outer loop
  vertex -0.00514230086 -0.00612835493 -0.00220000045
  vertex -0.00849999953 -0.00999999978 -0.00520000048
  vertex 6.40749842e-10 -0.00800000038 -0.00220000045
  endloop
 endfacet

 facet normal 0 0 0
  outer loop
  vertex -0.00514230086 -0.00612835493 -0.00220000045
  vertex -0.00798646361 0.000465158635 -0.00220000045
  vertex -0.00950000156 -0.00899999961 -0.00520000048
  endloop
 endfacet

 facet normal 0 0 0
  outer loop
  vertex -0.00641698483 0.00477726851 -0.0312000029
  vertex -0.00798646361 -0.000465158635 -0.0312000029
  vertex -0.00950000156 0.00899999961 -0.0282000024
  endloop
 endfacet

 facet normal 0 0 0
  outer loop
  vertex -0.00641698483 0.00477726851 -0.0312000029
  vertex -0.00950000156 0.00899999961 -0.0282000024
  vertex -0.00849999953 0.00999999978 -0.0282000024
  endloop
 endfacet

 facet normal 0 0 0
  outer loop
  vertex -0.00641698483 0.00477726851 -0.0312000029
  vertex -0.00849999953 0.00999999978 -0.0282000024
  vertex -0.00184492685 0.00778435916 -0.0312000029
  endloop
 endfacet

 facet normal 0 0 0
  outer loop
  vertex 0.0554169826 -0.00477726851 -0.0312000029
  vertex 0.0569864623 0.000465158635 -0.0312000029
  vertex 0.0585000031 -0.00899999961 -0.0282000024
  endloop
 endfacet

 facet normal 0 0 0
  outer loop
  vertex 0.0554169826 -0.00477726851 -0.0312000029
  vertex 0.0585000031 -0.00899999961 -0.0282000024
  vertex 0.057500001 -0.00999999978 -0.0282000024
  endloop
 endfacet

 facet normal 0 0 0
  outer loop
  vertex 0.0554169826 -0.00477726851 -0.0312000029
  vertex 0.057500001 -0.00999999978 -0.0282000024
  vertex 0.0508449264 -0.00778435916 -0.0312000029
  endloop
 endfacet

 facet normal 0 0 0
  outer loop
  vertex -0.0058189882 0.0054899333 -0.00220000045
  vertex -0.000928743975 0.0079459073 -0.00220000045
  vertex -0.00849999953 0.00999999978 -0.00520000048
  endloop
 endfacet

 facet normal 0 0 0
  outer loop
  vertex -0.0058189882 0.0054899333 -0.00220000045
  vertex -0.00849999953 0.00999999978 -0.00520000048
  vertex -0.00950000156 0.00899999961 -0.00520000048
  endloop
 endfacet

 facet normal 0 0 0
  outer loop
  vertex -0.0058189882 0.0054899333 -0.00220000045
  vertex -0.00950000156 0.00899999961 -0.00520000048
  vertex -0.00798646361 0.000465158635 -0.00220000045
  endloop
 endfacet

 facet normal 0 0 0
  outer loop
  vertex 0.0548189878 0.0054899333 -0.0312000029
  vertex 0.0499287434 0.0079459073 -0.0312000029
  vertex 0.057500001 0.00999999978 -0.0282000024
  endloop
 endfacet

 facet normal 0 0 0
  outer loop
  vertex 0.0548189878 0.0054899333 -0.0312000029
  vertex 0.057500001 0.00999999978 -0.0282000024
  vertex 0.0585000031 0.00899999961 -0.0282000024
  endloop
 endfacet

 facet normal 0 0 0
  outer loop
  vertex 0.0548189878 0.0054899333 -0.0312000029
  vertex 0.0585000031 0.00899999961 -0.0282000024
  vertex 0.0569864623 0.000465158635 -0.0312000029
  endloop
 endfacet

 facet normal 0 0 0
  outer loop
  vertex -0.0058189882 -0.0054899333 -0.0312000029
  vertex -0.000928743975 -0.0079459073 -0.0312000029
  vertex -0.00849999953 -0.00999999978 -0.0282000024
  endloop
 endfacet

 facet normal 0 0 0
  outer loop
  vertex -0.0058189882 -0.0054899333 -0.0312000029
  vertex -0.00849999953 -0.00999999978 -0.0282000024
  vertex -0.00950000156 -0.00899999961 -0.0282000024
  endloop
 endfacet

 facet normal 0 0 0
  outer loop
  vertex -0.0058189882 -0.0054899333 -0.0312000029
  vertex -0.00950000156 -0.00899999961 -0.0282000024
  vertex -0.00798646361 -0.000465158635 -0.0312000029
  endloop
 endfacet

 facet normal 0 0 0
  outer loop
  vertex 0.0548189878 -0.0054899333 -0.00220000045
  vertex 0.0499287434 -0.0079459073 -0.00220000045
  vertex 0.057500001 -0.00999999978 -0.00520000048
  endloop
 endfacet

 facet normal 0 0 0
  outer loop
  vertex 0.0548189878 -0.0054899333 -0.00220000045
  vertex 0.057500001 -0.00999999978 -0.00520000048
  vertex 0.0585000031 -0.00899999961 -0.00520000048
  endloop
 endfacet

 facet normal 0 0 0
  outer loop
  vertex 0.0548189878 -0.0054899333 -0.00220000045
  vertex 0.0585000031 -0.00899999961 -0.00520000048
  vertex 0.0569864623 -0.000465158635 -0.00220000045
  endloop
 endfacet

 facet normal 0 0 0
  outer loop
  vertex 0.0548189878 -0.0054899333 -0.00220000045
  vertex 0.0569864623 -0.000465158635 -0.00220000045
  vertex 0.0554169826 0.00477726851 -0.00220000045
  endloop
 endfacet

 facet normal 0 0 0
  outer loop
  vertex 0.0548189878 -0.0054899333 -0.00220000045
  vertex 0.0554169826 0.00477726851 -0.00220000045
  vertex 0.048999995 0.00800000038 -0.00220000045
  endloop
 endfacet

 facet normal 0 0 0
  outer loop
  vertex 0.0548189878 -0.0054899333 -0.00220000045
  vertex 0.048999995 0.00800000038 -0.00220000045
  vertex -0.000928743975 0.0079459073 -0.00220000045
  endloop
 endfacet

 facet normal 0 0 0
  outer loop
  vertex 0.0548189878 -0.0054899333 -0.00220000045
  vertex -0.000928743975 0.0079459073 -0.00220000045
  vertex -0.0058189882 0.0054899333 -0.00220000045
  endloop
 endfacet

 facet normal 0 0 0
  outer loop
  vertex 0.0548189878 -0.0054899333 -0.00220000045
  vertex -0.0058189882 0.0054899333 -0.00220000045
  vertex -0.00798646361 0.000465158635 -0.00220000045
  endloop
 endfacet

 facet normal 0 0 0
  outer loop
  vertex 0.0548189878 -0.0054899333 -0.00220000045
  vertex -0.00798646361 0.000465158635 -0.00220000045
  vertex -0.00514230086 -0.00612835493 -0.00220000045
  endloop
 endfacet

 facet normal 0 0 0
  outer loop
  vertex 0.0548189878 -0.0054899333 -0.00220000045
  vertex -0.00514230086 -0.00612835493 -0.00220000045
  vertex 6.40749842e-10 -0.00800000038 -0.00220000045
  endloop
 endfacet

 facet normal 0 0 0
  outer loop
  vertex 0.0548189878 -0.0054899333 -0.00220000045
  vertex 6.40749842e-10 -0.00800000038 -0.00220000045
  vertex 0.0499287434 -0.0079459073 -0.00220000045
  endloop
 endfacet

endsolid AssimpScene
