solid AssimpScene
 facet normal 0 0 0
  outer loop
  vertex 0.0563245155 -0.0054899333 -0.0053573749
  vertex 0.0584919974 -0.000465158635 -0.0053573749
  vertex 0.0569225177 0.00477726851 -0.0053573749
  endloop
 endfacet

 facet normal 0 0 0
  outer loop
  vertex 0.0563245155 -0.0054899333 -0.0053573749
  vertex 0.0569225177 0.00477726851 -0.0053573749
  vertex 0.0523504578 0.00778435916 -0.0053573749
  endloop
 endfacet

 facet normal 0 0 0
  outer loop
  vertex 0.0563245155 -0.0054899333 -0.0053573749
  vertex 0.0523504578 0.00778435916 -0.0053573749
  vertex 0.000576788385 0.0079459073 -0.0053573749
  endloop
 endfacet

 facet normal 0 0 0
  outer loop
  vertex 0.0563245155 -0.0054899333 -0.0053573749
  vertex 0.000576788385 0.0079459073 -0.0053573749
  vertex -0.00431345589 0.0054899333 -0.0053573749
  endloop
 endfacet

 facet normal 0 0 0
  outer loop
  vertex 0.0563245155 -0.0054899333 -0.0053573749
  vertex -0.00431345589 0.0054899333 -0.0053573749
  vertex -0.00648093224 0.000465158635 -0.0053573749
  endloop
 endfacet

 facet normal 0 0 0
  outer loop
  vertex 0.0563245155 -0.0054899333 -0.0053573749
  vertex -0.00648093224 0.000465158635 -0.0053573749
  vertex -0.00491145253 -0.00477726851 -0.0053573749
  endloop
 endfacet

 facet normal 0 0 0
  outer loop
  vertex 0.0563245155 -0.0054899333 -0.0053573749
  vertex -0.00491145253 -0.00477726851 -0.0053573749
  vertex -0.00033939461 -0.00778435916 -0.0053573749
  endloop
 endfacet

 facet normal 0 0 0
  outer loop
  vertex 0.0563245155 -0.0054899333 -0.0053573749
  vertex -0.00033939461 -0.00778435916 -0.0053573749
  vertex 0.0514342748 -0.0079459073 -0.0053573749
  endloop
 endfacet

 facet normal 0 0 0
  outer loop
  vertex 0.000576788385 0.0079459073 -0.0053573749
  vertex 0.0523504578 0.00778435916 -0.0053573749
  vertex 0.0590055324 0.00999999978 -0.008357374
  endloop
 endfacet

 facet normal 0 0 0
  outer loop
  vertex 0.000576788385 0.0079459073 -0.0053573749
  vertex 0.0590055324 0.00999999978 -0.008357374
  vertex -0.00699446676 0.00999999978 -0.008357374
  endloop
 endfacet

 facet normal 0 0 0
  outer loop
  vertex -0.00208486081 0.00714906072 -0.0343573727
  vertex -0.00648093224 -0.000465158635 -0.0343573727
  vertex -0.00799446926 0.00899999961 -0.031357374
  endloop
 endfacet

 facet normal 0 0 0
  outer loop
  vertex 0.0590055324 -0.00999999978 -0.031357374
  vertex -0.00699446676 -0.00999999978 -0.031357374
  vertex 0.000576788385 -0.0079459073 -0.0343573727
  endloop
 endfacet

 facet normal 0 0 0
  outer loop
  vertex 0.0590055324 -0.00999999978 -0.031357374
  vertex 0.000576788385 -0.0079459073 -0.0343573727
  vertex 0.0505055264 -0.00800000038 -0.0343573727
  endloop
 endfacet

 facet normal 0 0 0
  outer loop
  vertex -0.00699446676 0.00999999978 -0.031357374
  vertex -0.00699446676 0.00999999978 -0.008357374
  vertex 0.0590055324 0.00999999978 -0.008357374
  endloop
 endfacet

 facet normal 0 0 0
  outer loop
  vertex -0.00699446676 0.00999999978 -0.031357374
  vertex 0.0590055324 0.00999999978 -0.008357374
  vertex 0.0590055324 0.00999999978 -0.031357374
  endloop
 endfacet

 facet normal 0 0 0
  outer loop
  vertex -0.00699446676 0.00999999978 -0.031357374
  vertex 0.0590055324 0.00999999978 -0.031357374
  vertex 0.0514342748 0.0079459073 -0.0343573727
  endloop
 endfacet

 facet normal 0 0 0
  outer loop
  vertex -0.00699446676 0.00999999978 -0.031357374
  vertex 0.0514342748 0.0079459073 -0.0343573727
  vertex -0.00208486081 0.00714906072 -0.0343573727
  endloop
 endfacet

 facet normal 0 0 0
  outer loop
  vertex -0.00699446676 0.00999999978 -0.031357374
  vertex -0.00208486081 0.00714906072 -0.0343573727
  vertex -0.00799446926 0.00899999961 -0.031357374
  endloop
 endfacet

 facet normal 0 0 0
  outer loop
  vertex 0.0590055324 -0.00999999978 -0.008357374
  vertex 0.0514342748 -0.0079459073 -0.0053573749
  vertex -0.00033939461 -0.00778435916 -0.0053573749
  endloop
 endfacet

 facet normal 0 0 0
  outer loop
  vertex 0.0590055324 -0.00999999978 -0.008357374
  vertex -0.00033939461 -0.00778435916 -0.0053573749
  vertex -0.00699446676 -0.00999999978 -0.008357374
  endloop
 endfacet

 facet normal 0 0 0
  outer loop
  vertex -0.00699446676 -0.00999999978 -0.008357374
  vertex -0.00699446676 -0.00999999978 -0.031357374
  vertex 0.0590055324 -0.00999999978 -0.031357374
  endloop
 endfacet

 facet normal 0 0 0
  outer loop
  vertex -0.00699446676 -0.00999999978 -0.008357374
  vertex 0.0590055324 -0.00999999978 -0.031357374
  vertex 0.0590055324 -0.00999999978 -0.008357374
  endloop
 endfacet

 facet normal 0 0 0
  outer loop
  vertex -0.00799446926 0.00899999961 -0.008357374
  vertex -0.00799446926 -0.00899999961 -0.008357374
  vertex -0.00648093224 0.000465158635 -0.0053573749
  endloop
 endfacet

 facet normal 0 0 0
  outer loop
  vertex -0.00799446926 0.00899999961 -0.008357374
  vertex -0.00699446676 0.00999999978 -0.008357374
  vertex -0.00699446676 0.00999999978 -0.031357374
  endloop
 endfacet

 facet normal 0 0 0
  outer loop
  vertex -0.00799446926 0.00899999961 -0.008357374
  vertex -0.00699446676 0.00999999978 -0.031357374
  vertex -0.00799446926 0.00899999961 -0.031357374
  endloop
 endfacet

 facet normal 0 0 0
  outer loop
  vertex -0.00799446926 -0.00899999961 -0.031357374
  vertex -0.00699446676 -0.00999999978 -0.031357374
  vertex -0.00699446676 -0.00999999978 -0.008357374
  endloop
 endfacet

 facet normal 0 0 0
  outer loop
  vertex -0.00799446926 -0.00899999961 -0.031357374
  vertex -0.00699446676 -0.00999999978 -0.008357374
  vertex -0.00799446926 -0.00899999961 -0.008357374
  endloop
 endfacet

 facet normal 0 0 0
  outer loop
  vertex -0.00799446926 -0.00899999961 -0.031357374
  vertex -0.00799446926 -0.00899999961 -0.008357374
  vertex -0.00799446926 0.00899999961 -0.008357374
  endloop
 endfacet

 facet normal 0 0 0
  outer loop
  vertex -0.00799446926 -0.00899999961 -0.031357374
  vertex -0.00799446926 0.00899999961 -0.008357374
  vertex -0.00799446926 0.00899999961 -0.031357374
  endloop
 endfacet

 facet normal 0 0 0
  outer loop
  vertex -0.00799446926 -0.00899999961 -0.031357374
  vertex -0.00799446926 0.00899999961 -0.031357374
  vertex -0.00648093224 -0.000465158635 -0.0343573727
  endloop
 endfacet

 facet normal 0 0 0
  outer loop
  vertex 0.0600055307 -0.00899999961 -0.008357374
  vertex 0.0600055307 0.00899999961 -0.008357374
  vertex 0.0584919974 -0.000465158635 -0.0053573749
  endloop
 endfacet

 facet normal 0 0 0
  outer loop
  vertex 0.0600055307 -0.00899999961 -0.008357374
  vertex 0.0590055324 -0.00999999978 -0.008357374
  vertex 0.0590055324 -0.00999999978 -0.031357374
  endloop
 endfacet

 facet normal 0 0 0
  outer loop
  vertex 0.0600055307 -0.00899999961 -0.008357374
  vertex 0.0590055324 -0.00999999978 -0.031357374
  vertex 0.0600055307 -0.00899999961 -0.031357374
  endloop
 endfacet

 facet normal 0 0 0
  outer loop
  vertex 0.0600055307 0.00899999961 -0.031357374
  vertex 0.0590055324 0.00999999978 -0.031357374
  vertex 0.0590055324 0.00999999978 -0.008357374
  endloop
 endfacet

 facet normal 0 0 0
  outer loop
  vertex 0.0600055307 0.00899999961 -0.031357374
  vertex 0.0590055324 0.00999999978 -0.008357374
  vertex 0.0600055307 0.00899999961 -0.008357374
  endloop
 endfacet

 facet normal 0 0 0
  outer loop
  vertex 0.0600055307 0.00899999961 -0.031357374
  vertex 0.0600055307 0.00899999961 -0.008357374
  vertex 0.0600055307 -0.00899999961 -0.008357374
  endloop
 endfacet

 facet normal 0 0 0
  outer loop
  vertex 0.0600055307 0.00899999961 -0.031357374
  vertex 0.0600055307 -0.00899999961 -0.008357374
  vertex 0.0600055307 -0.00899999961 -0.031357374
  endloop
 endfacet

 facet normal 0 0 0
  outer loop
  vertex 0.0600055307 0.00899999961 -0.031357374
  vertex 0.0600055307 -0.00899999961 -0.031357374
  vertex 0.0584919974 0.000465158635 -0.0343573727
  endloop
 endfacet

 facet normal 0 0 0
  outer loop
  vertex 0.0569225177 -0.00477726851 -0.0343573727
  vertex 0.0600055307 -0.00899999961 -0.031357374
  vertex 0.0590055324 -0.00999999978 -0.031357374
  endloop
 endfacet

 facet normal 0 0 0
  outer loop
  vertex 0.0569225177 -0.00477726851 -0.0343573727
  vertex 0.0590055324 -0.00999999978 -0.031357374
  vertex 0.0505055264 -0.00800000038 -0.0343573727
  endloop
 endfacet

 facet normal 0 0 0
  outer loop
  vertex 0.0569225177 -0.00477726851 -0.0343573727
  vertex 0.0584919974 0.000465158635 -0.0343573727
  vertex 0.0600055307 -0.00899999961 -0.031357374
  endloop
 endfacet

 facet normal 0 0 0
  outer loop
  vertex -0.00491145253 -0.00477726851 -0.0053573749
  vertex -0.00648093224 0.000465158635 -0.0053573749
  vertex -0.00799446926 -0.00899999961 -0.008357374
  endloop
 endfacet

 facet normal 0 0 0
  outer loop
  vertex -0.00491145253 -0.00477726851 -0.0053573749
  vertex -0.00799446926 -0.00899999961 -0.008357374
  vertex -0.00699446676 -0.00999999978 -0.008357374
  endloop
 endfacet

 facet normal 0 0 0
  outer loop
  vertex -0.00491145253 -0.00477726851 -0.0053573749
  vertex -0.00699446676 -0.00999999978 -0.008357374
  vertex -0.00033939461 -0.00778435916 -0.0053573749
  endloop
 endfacet

 facet normal 0 0 0
  outer loop
  vertex 0.0569225177 0.00477726851 -0.0053573749
  vertex 0.0584919974 -0.000465158635 -0.0053573749
  vertex 0.0600055307 0.00899999961 -0.008357374
  endloop
 endfacet

 facet normal 0 0 0
  outer loop
  vertex 0.0569225177 0.00477726851 -0.0053573749
  vertex 0.0600055307 0.00899999961 -0.008357374
  vertex 0.0590055324 0.00999999978 -0.008357374
  endloop
 endfacet

 facet normal 0 0 0
  outer loop
  vertex 0.0569225177 0.00477726851 -0.0053573749
  vertex 0.0590055324 0.00999999978 -0.008357374
  vertex 0.0523504578 0.00778435916 -0.0053573749
  endloop
 endfacet

 facet normal 0 0 0
  outer loop
  vertex -0.00431345589 0.0054899333 -0.0053573749
  vertex 0.000576788385 0.0079459073 -0.0053573749
  vertex -0.00699446676 0.00999999978 -0.008357374
  endloop
 endfacet

 facet normal 0 0 0
  outer loop
  vertex -0.00431345589 0.0054899333 -0.0053573749
  vertex -0.00699446676 0.00999999978 -0.008357374
  vertex -0.00799446926 0.00899999961 -0.008357374
  endloop
 endfacet

 facet normal 0 0 0
  outer loop
  vertex -0.00431345589 0.0054899333 -0.0053573749
  vertex -0.00799446926 0.00899999961 -0.008357374
  vertex -0.00648093224 0.000465158635 -0.0053573749
  endloop
 endfacet

 facet normal 0 0 0
  outer loop
  vertex -0.00431345589 -0.0054899333 -0.0343573727
  vertex 0.000576788385 -0.0079459073 -0.0343573727
  vertex -0.00699446676 -0.00999999978 -0.031357374
  endloop
 endfacet

 facet normal 0 0 0
  outer loop
  vertex -0.00431345589 -0.0054899333 -0.0343573727
  vertex -0.00699446676 -0.00999999978 -0.031357374
  vertex -0.00799446926 -0.00899999961 -0.031357374
  endloop
 endfacet

 facet normal 0 0 0
  outer loop
  vertex -0.00431345589 -0.0054899333 -0.0343573727
  vertex -0.00799446926 -0.00899999961 -0.031357374
  vertex -0.00648093224 -0.000465158635 -0.0343573727
  endloop
 endfacet

 facet normal 0 0 0
  outer loop
  vertex 0.0563245155 -0.0054899333 -0.0053573749
  vertex 0.0514342748 -0.0079459073 -0.0053573749
  vertex 0.0590055324 -0.00999999978 -0.008357374
  endloop
 endfacet

 facet normal 0 0 0
  outer loop
  vertex 0.0563245155 -0.0054899333 -0.0053573749
  vertex 0.0590055324 -0.00999999978 -0.008357374
  vertex 0.0600055307 -0.00899999961 -0.008357374
  endloop
 endfacet

 facet normal 0 0 0
  outer loop
  vertex 0.0563245155 -0.0054899333 -0.0053573749
  vertex 0.0600055307 -0.00899999961 -0.008357374
  vertex 0.0584919974 -0.000465158635 -0.0053573749
  endloop
 endfacet

 facet normal 0 0 0
  outer loop
  vertex 0.0563245155 0.0054899333 -0.0343573727
  vertex 0.0514342748 0.0079459073 -0.0343573727
  vertex 0.0590055324 0.00999999978 -0.031357374
  endloop
 endfacet

 facet normal 0 0 0
  outer loop
  vertex 0.0563245155 0.0054899333 -0.0343573727
  vertex 0.0590055324 0.00999999978 -0.031357374
  vertex 0.0600055307 0.00899999961 -0.031357374
  endloop
 endfacet

 facet normal 0 0 0
  outer loop
  vertex 0.0563245155 0.0054899333 -0.0343573727
  vertex 0.0600055307 0.00899999961 -0.031357374
  vertex 0.0584919974 0.000465158635 -0.0343573727
  endloop
 endfacet

 facet normal 0 0 0
  outer loop
  vertex 0.0563245155 0.0054899333 -0.0343573727
  vertex 0.0584919974 0.000465158635 -0.0343573727
  vertex 0.0569225177 -0.00477726851 -0.0343573727
  endloop
 endfacet

 facet normal 0 0 0
  outer loop
  vertex 0.0563245155 0.0054899333 -0.0343573727
  vertex 0.0569225177 -0.00477726851 -0.0343573727
  vertex 0.0505055264 -0.00800000038 -0.0343573727
  endloop
 endfacet

 facet normal 0 0 0
  outer loop
  vertex 0.0563245155 0.0054899333 -0.0343573727
  vertex 0.0505055264 -0.00800000038 -0.0343573727
  vertex 0.000576788385 -0.0079459073 -0.0343573727
  endloop
 endfacet

 facet normal 0 0 0
  outer loop
  vertex 0.0563245155 0.0054899333 -0.0343573727
  vertex 0.000576788385 -0.0079459073 -0.0343573727
  vertex -0.00431345589 -0.0054899333 -0.0343573727
  endloop
 endfacet

 facet normal 0 0 0
  outer loop
  vertex 0.0563245155 0.0054899333 -0.0343573727
  vertex -0.00431345589 -0.0054899333 -0.0343573727
  vertex -0.00648093224 -0.000465158635 -0.0343573727
  endloop
 endfacet

 facet normal 0 0 0
  outer loop
  vertex 0.0563245155 0.0054899333 -0.0343573727
  vertex -0.00648093224 -0.000465158635 -0.0343573727
  vertex -0.00208486081 0.00714906072 -0.0343573727
  endloop
 endfacet

 facet normal 0 0 0
  outer loop
  vertex 0.0563245155 0.0054899333 -0.0343573727
  vertex -0.00208486081 0.00714906072 -0.0343573727
  vertex 0.0514342748 0.0079459073 -0.0343573727
  endloop
 endfacet

endsolid AssimpScene
