solid AssimpScene
 facet normal 0 0 0
  outer loop
  vertex -0.0175000001 0.0379262306 -0.0192617532
  vertex -0.0175000001 0.0364539325 -0.0249329731
  vertex -0.0175000001 0.0331547782 -0.0282748546
  endloop
 endfacet

 facet normal 0 0 0
  outer loop
  vertex -0.0175000001 0.0379262306 -0.0192617532
  vertex -0.0175000001 0.0331547782 -0.0282748546
  vertex -0.0175000001 0.0197000001 -0.0329747014
  endloop
 endfacet

 facet normal 0 0 0
  outer loop
  vertex -0.0175000001 0.0379262306 -0.0192617532
  vertex -0.0175000001 0.0197000001 -0.0329747014
  vertex -0.0175000001 0.0145000005 -0.0329747014
  endloop
 endfacet

 facet normal 0 0 0
  outer loop
  vertex -0.0175000001 0.0379262306 -0.0192617532
  vertex -0.0175000001 0.0145000005 -0.0329747014
  vertex -0.0175000001 0.0145000005 -0.00202529691
  endloop
 endfacet

 facet normal 0 0 0
  outer loop
  vertex -0.0175000001 0.0379262306 -0.0192617532
  vertex -0.0175000001 0.0145000005 -0.00202529691
  vertex -0.0175000001 0.0197000001 -0.00202529691
  endloop
 endfacet

 facet normal 0 0 0
  outer loop
  vertex -0.0175000001 0.0379262306 -0.0192617532
  vertex -0.0175000001 0.0197000001 -0.00202529691
  vertex -0.0175000001 0.0331547782 -0.00672514457
  endloop
 endfacet

 facet normal 0 0 0
  outer loop
  vertex -0.0175000001 0.0379262306 -0.0192617532
  vertex -0.0175000001 0.0331547782 -0.00672514457
  vertex -0.0175000001 0.0373391993 -0.0122639788
  endloop
 endfacet

 facet normal 0 0 0
  outer loop
  vertex 0.00662698224 -0.00448141759 3.86411458e-11
  vertex 0.00662698224 -0.00448141759 -0.0350000001
  vertex 0.0175000001 0.0145000005 -0.0329747014
  endloop
 endfacet

 facet normal 0 0 0
  outer loop
  vertex 0.00662698224 -0.00448141759 3.86411458e-11
  vertex 0.0175000001 0.0145000005 -0.0329747014
  vertex 0.0175000001 0.0145000005 -0.00202529691
  endloop
 endfacet

 facet normal 0 0 0
  outer loop
  vertex 0.00662698224 -0.00448141759 3.86411458e-11
  vertex 0.00111204048 -0.0079223346 3.8641132e-11
  vertex 0.00111204048 -0.0079223346 -0.0350000001
  endloop
 endfacet

 facet normal 0 0 0
  outer loop
  vertex 0.00662698224 -0.00448141759 3.86411458e-11
  vertex 0.00111204048 -0.0079223346 -0.0350000001
  vertex 0.00662698224 -0.00448141759 -0.0350000001
  endloop
 endfacet

 facet normal 0 0 0
  outer loop
  vertex -0.00513709942 -0.00613271585 -0.0350000001
  vertex -0.00662698224 -0.00448141759 3.8641132e-11
  vertex -0.0175000001 0.0145000005 -0.00202529691
  endloop
 endfacet

 facet normal 0 0 0
  outer loop
  vertex -0.00513709942 -0.00613271585 -0.0350000001
  vertex -0.0175000001 0.0145000005 -0.00202529691
  vertex -0.0175000001 0.0145000005 -0.0329747014
  endloop
 endfacet

 facet normal 0 0 0
  outer loop
  vertex 0.0131517136 0.0145000005 3.86412013e-11
  vertex 0.00662698224 -0.00448141759 3.86411458e-11
  vertex 0.0175000001 0.0145000005 -0.00202529691
  endloop
 endfacet

 facet normal 0 0 0
  outer loop
  vertex 0.0131517136 0.0145000005 -0.0350000001
  vertex 0.0175000001 0.0145000005 -0.0329747014
  vertex 0.00662698224 -0.00448141759 -0.0350000001
  endloop
 endfacet

 facet normal 0 0 0
  outer loop
  vertex 0.0131517136 0.0145000005 3.86412013e-11
  vertex 0.0175000001 0.0197000001 -0.00202529691
  vertex 0.0175000001 0.0331547782 -0.00672514457
  endloop
 endfacet

 facet normal 0 0 0
  outer loop
  vertex 0.0131517136 0.0145000005 3.86412013e-11
  vertex 0.0175000001 0.0331547782 -0.00672514457
  vertex -0.0175000001 0.0331547782 -0.00672514457
  endloop
 endfacet

 facet normal 0 0 0
  outer loop
  vertex 0.0131517136 0.0145000005 3.86412013e-11
  vertex -0.0175000001 0.0331547782 -0.00672514457
  vertex -0.0175000001 0.0197000001 -0.00202529691
  endloop
 endfacet

 facet normal 0 0 0
  outer loop
  vertex 0.0131517136 0.0145000005 3.86412013e-11
  vertex -0.0175000001 0.0197000001 -0.00202529691
  vertex -0.0131517136 0.0145000005 3.86411736e-11
  endloop
 endfacet

 facet normal 0 0 0
  outer loop
  vertex -0.0131517136 0.0145000005 3.86411736e-11
  vertex -0.0175000001 0.0145000005 -0.00202529691
  vertex -0.00662698224 -0.00448141759 3.8641132e-11
  endloop
 endfacet

 facet normal 0 0 0
  outer loop
  vertex -0.0175000001 0.0331547782 -0.0282748546
  vertex -0.0175000001 0.0364539325 -0.0249329731
  vertex 0.0175000001 0.0364539325 -0.0249329731
  endloop
 endfacet

 facet normal 0 0 0
  outer loop
  vertex -0.0175000001 0.0331547782 -0.0282748546
  vertex 0.0175000001 0.0364539325 -0.0249329731
  vertex 0.0175000001 0.0309693962 -0.0291883163
  endloop
 endfacet

 facet normal 0 0 0
  outer loop
  vertex 0.0175000001 0.0309693962 -0.0291883163
  vertex 0.0131517136 0.0145000005 -0.0350000001
  vertex -0.0131517136 0.0145000005 -0.0350000001
  endloop
 endfacet

 facet normal 0 0 0
  outer loop
  vertex 0.0175000001 0.0309693962 -0.0291883163
  vertex -0.0131517136 0.0145000005 -0.0350000001
  vertex -0.0175000001 0.0197000001 -0.0329747014
  endloop
 endfacet

 facet normal 0 0 0
  outer loop
  vertex 0.0175000001 0.0309693962 -0.0291883163
  vertex -0.0175000001 0.0197000001 -0.0329747014
  vertex -0.0175000001 0.0331547782 -0.0282748546
  endloop
 endfacet

 facet normal 0 0 0
  outer loop
  vertex -0.0131517136 0.0145000005 -0.0350000001
  vertex 0.0131517136 0.0145000005 -0.0350000001
  vertex 0.00662698224 -0.00448141759 -0.0350000001
  endloop
 endfacet

 facet normal 0 0 0
  outer loop
  vertex -0.0131517136 0.0145000005 -0.0350000001
  vertex 0.00662698224 -0.00448141759 -0.0350000001
  vertex 0.00111204048 -0.0079223346 -0.0350000001
  endloop
 endfacet

 facet normal 0 0 0
  outer loop
  vertex -0.0131517136 0.0145000005 -0.0350000001
  vertex 0.00111204048 -0.0079223346 -0.0350000001
  vertex -0.00513709942 -0.00613271585 -0.0350000001
  endloop
 endfacet

 facet normal 0 0 0
  outer loop
  vertex -0.0131517136 0.0145000005 -0.0350000001
  vertex -0.00513709942 -0.00613271585 -0.0350000001
  vertex -0.0175000001 0.0145000005 -0.0329747014
  endloop
 endfacet

 facet normal 0 0 0
  outer loop
  vertex -0.0131517136 0.0145000005 -0.0350000001
  vertex -0.0175000001 0.0145000005 -0.0329747014
  vertex -0.0175000001 0.0197000001 -0.0329747014
  endloop
 endfacet

 facet normal 0 0 0
  outer loop
  vertex 0.0175000001 0.0364539325 -0.0100670271
  vertex 0.0175000001 0.0379262306 -0.0157382451
  vertex -0.0175000001 0.0373391993 -0.0122639788
  endloop
 endfacet

 facet normal 0 0 0
  outer loop
  vertex 0.0175000001 0.0364539325 -0.0100670271
  vertex -0.0175000001 0.0373391993 -0.0122639788
  vertex -0.0175000001 0.0331547782 -0.00672514457
  endloop
 endfacet

 facet normal 0 0 0
  outer loop
  vertex 0.0175000001 0.0364539325 -0.0100670271
  vertex -0.0175000001 0.0331547782 -0.00672514457
  vertex 0.0175000001 0.0331547782 -0.00672514457
  endloop
 endfacet

 facet normal 0 0 0
  outer loop
  vertex -0.00325017236 -0.00731001981 3.8641132e-11
  vertex 0.00111204048 -0.0079223346 3.8641132e-11
  vertex 0.00662698224 -0.00448141759 3.86411458e-11
  endloop
 endfacet

 facet normal 0 0 0
  outer loop
  vertex -0.00325017236 -0.00731001981 3.8641132e-11
  vertex 0.00662698224 -0.00448141759 3.86411458e-11
  vertex 0.0131517136 0.0145000005 3.86412013e-11
  endloop
 endfacet

 facet normal 0 0 0
  outer loop
  vertex -0.00325017236 -0.00731001981 3.8641132e-11
  vertex 0.0131517136 0.0145000005 3.86412013e-11
  vertex -0.0131517136 0.0145000005 3.86411736e-11
  endloop
 endfacet

 facet normal 0 0 0
  outer loop
  vertex -0.00325017236 -0.00731001981 3.8641132e-11
  vertex -0.0131517136 0.0145000005 3.86411736e-11
  vertex -0.00662698224 -0.00448141759 3.8641132e-11
  endloop
 endfacet

 facet normal 0 0 0
  outer loop
  vertex -0.00325017236 -0.00731001981 3.8641132e-11
  vertex -0.00662698224 -0.00448141759 3.8641132e-11
  vertex -0.00513709942 -0.00613271585 -0.0350000001
  endloop
 endfacet

 facet normal 0 0 0
  outer loop
  vertex -0.00325017236 -0.00731001981 3.8641132e-11
  vertex -0.00513709942 -0.00613271585 -0.0350000001
  vertex 0.00111204048 -0.0079223346 -0.0350000001
  endloop
 endfacet

 facet normal 0 0 0
  outer loop
  vertex -0.00325017236 -0.00731001981 3.8641132e-11
  vertex 0.00111204048 -0.0079223346 -0.0350000001
  vertex 0.00111204048 -0.0079223346 3.8641132e-11
  endloop
 endfacet

 facet normal 0 0 0
  outer loop
  vertex 0.0175000001 0.0197000001 -0.00202529691
  vertex 0.0131517136 0.0145000005 3.86412013e-11
  vertex 0.0175000001 0.0145000005 -0.00202529691
  endloop
 endfacet

 facet normal 0 0 0
  outer loop
  vertex -0.0175000001 0.0197000001 -0.00202529691
  vertex -0.0175000001 0.0145000005 -0.00202529691
  vertex -0.0131517136 0.0145000005 3.86411736e-11
  endloop
 endfacet

 facet normal 0 0 0
  outer loop
  vertex -0.0175000001 0.0379262306 -0.0192617532
  vertex -0.0175000001 0.0373391993 -0.0122639788
  vertex 0.0175000001 0.0379262306 -0.0157382451
  endloop
 endfacet

 facet normal 0 0 0
  outer loop
  vertex -0.0175000001 0.0379262306 -0.0192617532
  vertex 0.0175000001 0.0379262306 -0.0157382451
  vertex 0.0175000001 0.0364539325 -0.0249329731
  endloop
 endfacet

 facet normal 0 0 0
  outer loop
  vertex -0.0175000001 0.0379262306 -0.0192617532
  vertex 0.0175000001 0.0364539325 -0.0249329731
  vertex -0.0175000001 0.0364539325 -0.0249329731
  endloop
 endfacet

 facet normal 0 0 0
  outer loop
  vertex 0.0175000001 0.0197000001 -0.0329747014
  vertex 0.0175000001 0.0145000005 -0.0329747014
  vertex 0.0131517136 0.0145000005 -0.0350000001
  endloop
 endfacet

 facet normal 0 0 0
  outer loop
  vertex 0.0175000001 0.0197000001 -0.0329747014
  vertex 0.0131517136 0.0145000005 -0.0350000001
  vertex 0.0175000001 0.0309693962 -0.0291883163
  endloop
 endfacet

 facet normal 0 0 0
  outer loop
  vertex 0.0175000001 0.0197000001 -0.0329747014
  vertex 0.0175000001 0.0309693962 -0.0291883163
  vertex 0.0175000001 0.0364539325 -0.0249329731
  endloop
 endfacet

 facet normal 0 0 0
  outer loop
  vertex 0.0175000001 0.0197000001 -0.0329747014
  vertex 0.0175000001 0.0364539325 -0.0249329731
  vertex 0.0175000001 0.0379262306 -0.0157382451
  endloop
 endfacet

 facet normal 0 0 0
  outer loop
  vertex 0.0175000001 0.0197000001 -0.0329747014
  vertex 0.0175000001 0.0379262306 -0.0157382451
  vertex 0.0175000001 0.0364539325 -0.0100670271
  endloop
 endfacet

 facet normal 0 0 0
  outer loop
  vertex 0.0175000001 0.0197000001 -0.0329747014
  vertex 0.0175000001 0.0364539325 -0.0100670271
  vertex 0.0175000001 0.0331547782 -0.00672514457
  endloop
 endfacet

 facet normal 0 0 0
  outer loop
  vertex 0.0175000001 0.0197000001 -0.0329747014
  vertex 0.0175000001 0.0331547782 -0.00672514457
  vertex 0.0175000001 0.0197000001 -0.00202529691
  endloop
 endfacet

 facet normal 0 0 0
  outer loop
  vertex 0.0175000001 0.0197000001 -0.0329747014
  vertex 0.0175000001 0.0197000001 -0.00202529691
  vertex 0.0175000001 0.0145000005 -0.00202529691
  endloop
 endfacet

 facet normal 0 0 0
  outer loop
  vertex 0.0175000001 0.0197000001 -0.0329747014
  vertex 0.0175000001 0.0145000005 -0.00202529691
  vertex 0.0175000001 0.0145000005 -0.0329747014
  endloop
 endfacet

endsolid AssimpScene
