solid AssimpScene
 facet normal 0 0 0
  outer loop
  vertex 0.0429145247 -0.00776597811 7.45006071e-11
  vertex 0.0463049859 -0.00598652987 7.45005724e-11
  vertex 0.0489416756 -0.000962737191 7.45004475e-11
  endloop
 endfacet

 facet normal 0 0 0
  outer loop
  vertex 0.0429145247 -0.00776597811 7.45006071e-11
  vertex 0.0489416756 -0.000962737191 7.45004475e-11
  vertex 0.0484801307 0.0028383953 7.45003365e-11
  endloop
 endfacet

 facet normal 0 0 0
  outer loop
  vertex 0.0429145247 -0.00776597811 7.45006071e-11
  vertex 0.0484801307 0.0028383953 7.45003365e-11
  vertex 0.044717785 0.00708520459 7.45002116e-11
  endloop
 endfacet

 facet normal 0 0 0
  outer loop
  vertex 0.0429145247 -0.00776597811 7.45006071e-11
  vertex 0.044717785 0.00708520459 7.45002116e-11
  vertex 0.0315000042 0.010001556 7.45000867e-11
  endloop
 endfacet

 facet normal 0 0 0
  outer loop
  vertex 0.0429145247 -0.00776597811 7.45006071e-11
  vertex 0.0315000042 0.010001556 7.45000867e-11
  vertex 0.0315000042 -0.00999844354 7.45006418e-11
  endloop
 endfacet

 facet normal 0 0 0
  outer loop
  vertex 0.0315000042 0.010001556 7.45000867e-11
  vertex 0.0315000042 0.010001556 -0.0350000001
  vertex -0.00849999953 0.00999999978 -0.0289999992
  endloop
 endfacet

 facet normal 0 0 0
  outer loop
  vertex 0.0315000042 0.010001556 7.45000867e-11
  vertex -0.00849999953 0.00999999978 -0.0289999992
  vertex -0.00849999953 0.00999999978 -0.00600000005
  endloop
 endfacet

 facet normal 0 0 0
  outer loop
  vertex -0.00798646454 -0.000465158635 -0.0319999978
  vertex 0.0315000042 0.010001556 -0.0350000001
  vertex 0.0315000042 -0.00999844354 -0.0350000001
  endloop
 endfacet

 facet normal 0 0 0
  outer loop
  vertex -0.00798646454 0.000465158635 -0.00300000026
  vertex 0.0315000042 -0.00999844354 7.45006418e-11
  vertex 0.0315000042 0.010001556 7.45000867e-11
  endloop
 endfacet

 facet normal 0 0 0
  outer loop
  vertex 0.044717785 0.00708520459 7.45002116e-11
  vertex 0.044717785 0.00708520459 -0.0350000001
  vertex 0.0315000042 0.010001556 -0.0350000001
  endloop
 endfacet

 facet normal 0 0 0
  outer loop
  vertex 0.044717785 0.00708520459 7.45002116e-11
  vertex 0.0315000042 0.010001556 -0.0350000001
  vertex 0.0315000042 0.010001556 7.45000867e-11
  endloop
 endfacet

 facet normal 0 0 0
  outer loop
  vertex -0.00359039311 -0.00714906119 -0.00300000026
  vertex 0.0315000042 -0.00999844354 7.45006418e-11
  vertex -0.00798646454 0.000465158635 -0.00300000026
  endloop
 endfacet

 facet normal 0 0 0
  outer loop
  vertex -0.00359039311 -0.00714906119 -0.00300000026
  vertex -0.00798646454 0.000465158635 -0.00300000026
  vertex -0.00950000156 -0.00899999961 -0.00600000005
  endloop
 endfacet

 facet normal 0 0 0
  outer loop
  vertex -0.00359039311 0.00714906119 -0.0319999978
  vertex 0.0315000042 0.010001556 -0.0350000001
  vertex -0.00798646454 -0.000465158635 -0.0319999978
  endloop
 endfacet

 facet normal 0 0 0
  outer loop
  vertex -0.00359039311 0.00714906119 -0.0319999978
  vertex -0.00849999953 0.00999999978 -0.0289999992
  vertex 0.0315000042 0.010001556 -0.0350000001
  endloop
 endfacet

 facet normal 0 0 0
  outer loop
  vertex 0.0489416756 -0.000962737191 7.45004475e-11
  vertex 0.0490000024 1.55625708e-06 -0.0339999981
  vertex 0.0484801307 0.0028383953 7.45003365e-11
  endloop
 endfacet

 facet normal 0 0 0
  outer loop
  vertex -0.00273616193 -0.00751754083 -0.0319999978
  vertex -0.00798646454 -0.000465158635 -0.0319999978
  vertex 0.0315000042 -0.00999844354 -0.0350000001
  endloop
 endfacet

 facet normal 0 0 0
  outer loop
  vertex -0.00273616193 -0.00751754083 -0.0319999978
  vertex 0.0315000042 -0.00999844354 -0.0350000001
  vertex -0.00849999953 -0.00999999978 -0.0289999992
  endloop
 endfacet

 facet normal 0 0 0
  outer loop
  vertex -0.00273616193 0.00751754083 -0.00300000026
  vertex -0.00798646454 0.000465158635 -0.00300000026
  vertex 0.0315000042 0.010001556 7.45000867e-11
  endloop
 endfacet

 facet normal 0 0 0
  outer loop
  vertex -0.00273616193 0.00751754083 -0.00300000026
  vertex 0.0315000042 0.010001556 7.45000867e-11
  vertex -0.00849999953 0.00999999978 -0.00600000005
  endloop
 endfacet

 facet normal 0 0 0
  outer loop
  vertex 0.0475838743 0.0045460742 -0.0350000001
  vertex 0.044717785 0.00708520459 -0.0350000001
  vertex 0.044717785 0.00708520459 7.45002116e-11
  endloop
 endfacet

 facet normal 0 0 0
  outer loop
  vertex 0.0475838743 0.0045460742 -0.0350000001
  vertex 0.044717785 0.00708520459 7.45002116e-11
  vertex 0.0484801307 0.0028383953 7.45003365e-11
  endloop
 endfacet

 facet normal 0 0 0
  outer loop
  vertex 0.0475838743 0.0045460742 -0.0350000001
  vertex 0.0484801307 0.0028383953 7.45003365e-11
  vertex 0.0490000024 1.55625708e-06 -0.0339999981
  endloop
 endfacet

 facet normal 0 0 0
  outer loop
  vertex 0.0475838743 -0.00454296172 -0.0350000001
  vertex 0.0463049859 -0.00598652987 7.45005724e-11
  vertex 0.044717785 -0.00708209211 -0.0350000001
  endloop
 endfacet

 facet normal 0 0 0
  outer loop
  vertex 0.0475838743 -0.00454296172 -0.0350000001
  vertex 0.0489416756 -0.000962737191 7.45004475e-11
  vertex 0.0463049859 -0.00598652987 7.45005724e-11
  endloop
 endfacet

 facet normal 0 0 0
  outer loop
  vertex -0.00950000156 0.00899999961 -0.0289999992
  vertex -0.00849999953 0.00999999978 -0.0289999992
  vertex -0.00359039311 0.00714906119 -0.0319999978
  endloop
 endfacet

 facet normal 0 0 0
  outer loop
  vertex -0.00950000156 0.00899999961 -0.0289999992
  vertex -0.00359039311 0.00714906119 -0.0319999978
  vertex -0.00798646454 -0.000465158635 -0.0319999978
  endloop
 endfacet

 facet normal 0 0 0
  outer loop
  vertex -0.00849999953 -0.00999999978 -0.00600000005
  vertex -0.00849999953 -0.00999999978 -0.0289999992
  vertex 0.0315000042 -0.00999844354 -0.0350000001
  endloop
 endfacet

 facet normal 0 0 0
  outer loop
  vertex -0.00849999953 -0.00999999978 -0.00600000005
  vertex 0.0315000042 -0.00999844354 -0.0350000001
  vertex 0.0315000042 -0.00999844354 7.45006418e-11
  endloop
 endfacet

 facet normal 0 0 0
  outer loop
  vertex -0.00849999953 -0.00999999978 -0.00600000005
  vertex 0.0315000042 -0.00999844354 7.45006418e-11
  vertex -0.00359039311 -0.00714906119 -0.00300000026
  endloop
 endfacet

 facet normal 0 0 0
  outer loop
  vertex -0.00849999953 -0.00999999978 -0.00600000005
  vertex -0.00359039311 -0.00714906119 -0.00300000026
  vertex -0.00950000156 -0.00899999961 -0.00600000005
  endloop
 endfacet

 facet normal 0 0 0
  outer loop
  vertex -0.00950000156 -0.00899999961 -0.0289999992
  vertex -0.00950000156 0.00899999961 -0.0289999992
  vertex -0.00798646454 -0.000465158635 -0.0319999978
  endloop
 endfacet

 facet normal 0 0 0
  outer loop
  vertex -0.00950000156 -0.00899999961 -0.0289999992
  vertex -0.00798646454 -0.000465158635 -0.0319999978
  vertex -0.00273616193 -0.00751754083 -0.0319999978
  endloop
 endfacet

 facet normal 0 0 0
  outer loop
  vertex -0.00950000156 -0.00899999961 -0.0289999992
  vertex -0.00273616193 -0.00751754083 -0.0319999978
  vertex -0.00849999953 -0.00999999978 -0.0289999992
  endloop
 endfacet

 facet normal 0 0 0
  outer loop
  vertex -0.00950000156 -0.00899999961 -0.0289999992
  vertex -0.00849999953 -0.00999999978 -0.0289999992
  vertex -0.00849999953 -0.00999999978 -0.00600000005
  endloop
 endfacet

 facet normal 0 0 0
  outer loop
  vertex -0.00950000156 -0.00899999961 -0.0289999992
  vertex -0.00849999953 -0.00999999978 -0.00600000005
  vertex -0.00950000156 -0.00899999961 -0.00600000005
  endloop
 endfacet

 facet normal 0 0 0
  outer loop
  vertex -0.00950000156 0.00899999961 -0.00600000005
  vertex -0.00849999953 0.00999999978 -0.00600000005
  vertex -0.00849999953 0.00999999978 -0.0289999992
  endloop
 endfacet

 facet normal 0 0 0
  outer loop
  vertex -0.00950000156 0.00899999961 -0.00600000005
  vertex -0.00849999953 0.00999999978 -0.0289999992
  vertex -0.00950000156 0.00899999961 -0.0289999992
  endloop
 endfacet

 facet normal 0 0 0
  outer loop
  vertex -0.00950000156 0.00899999961 -0.00600000005
  vertex -0.00950000156 0.00899999961 -0.0289999992
  vertex -0.00950000156 -0.00899999961 -0.0289999992
  endloop
 endfacet

 facet normal 0 0 0
  outer loop
  vertex -0.00950000156 0.00899999961 -0.00600000005
  vertex -0.00950000156 -0.00899999961 -0.0289999992
  vertex -0.00950000156 -0.00899999961 -0.00600000005
  endloop
 endfacet

 facet normal 0 0 0
  outer loop
  vertex -0.00950000156 0.00899999961 -0.00600000005
  vertex -0.00950000156 -0.00899999961 -0.00600000005
  vertex -0.00798646454 0.000465158635 -0.00300000026
  endloop
 endfacet

 facet normal 0 0 0
  outer loop
  vertex -0.00950000156 0.00899999961 -0.00600000005
  vertex -0.00798646454 0.000465158635 -0.00300000026
  vertex -0.00273616193 0.00751754083 -0.00300000026
  endloop
 endfacet

 facet normal 0 0 0
  outer loop
  vertex -0.00950000156 0.00899999961 -0.00600000005
  vertex -0.00273616193 0.00751754083 -0.00300000026
  vertex -0.00849999953 0.00999999978 -0.00600000005
  endloop
 endfacet

 facet normal 0 0 0
  outer loop
  vertex 0.0429145247 -0.00776597811 7.45006071e-11
  vertex 0.0315000042 -0.00999844354 7.45006418e-11
  vertex 0.0315000042 -0.00999844354 -0.0350000001
  endloop
 endfacet

 facet normal 0 0 0
  outer loop
  vertex 0.0429145247 -0.00776597811 7.45006071e-11
  vertex 0.0315000042 -0.00999844354 -0.0350000001
  vertex 0.044717785 -0.00708209211 -0.0350000001
  endloop
 endfacet

 facet normal 0 0 0
  outer loop
  vertex 0.0429145247 -0.00776597811 7.45006071e-11
  vertex 0.044717785 -0.00708209211 -0.0350000001
  vertex 0.0463049859 -0.00598652987 7.45005724e-11
  endloop
 endfacet

 facet normal 0 0 0
  outer loop
  vertex 0.0489658341 -0.000737023074 -0.0350000001
  vertex 0.0490000024 1.55625708e-06 -0.0339999981
  vertex 0.0489416756 -0.000962737191 7.45004475e-11
  endloop
 endfacet

 facet normal 0 0 0
  outer loop
  vertex 0.0489658341 -0.000737023074 -0.0350000001
  vertex 0.0489416756 -0.000962737191 7.45004475e-11
  vertex 0.0475838743 -0.00454296172 -0.0350000001
  endloop
 endfacet

 facet normal 0 0 0
  outer loop
  vertex 0.0489658341 -0.000737023074 -0.0350000001
  vertex 0.0475838743 -0.00454296172 -0.0350000001
  vertex 0.044717785 -0.00708209211 -0.0350000001
  endloop
 endfacet

 facet normal 0 0 0
  outer loop
  vertex 0.0489658341 -0.000737023074 -0.0350000001
  vertex 0.044717785 -0.00708209211 -0.0350000001
  vertex 0.0315000042 -0.00999844354 -0.0350000001
  endloop
 endfacet

 facet normal 0 0 0
  outer loop
  vertex 0.0489658341 -0.000737023074 -0.0350000001
  vertex 0.0315000042 -0.00999844354 -0.0350000001
  vertex 0.0315000042 0.010001556 -0.0350000001
  endloop
 endfacet

 facet normal 0 0 0
  outer loop
  vertex 0.0489658341 -0.000737023074 -0.0350000001
  vertex 0.0315000042 0.010001556 -0.0350000001
  vertex 0.044717785 0.00708520459 -0.0350000001
  endloop
 endfacet

 facet normal 0 0 0
  outer loop
  vertex 0.0489658341 -0.000737023074 -0.0350000001
  vertex 0.044717785 0.00708520459 -0.0350000001
  vertex 0.0475838743 0.0045460742 -0.0350000001
  endloop
 endfacet

 facet normal 0 0 0
  outer loop
  vertex 0.0489658341 -0.000737023074 -0.0350000001
  vertex 0.0475838743 0.0045460742 -0.0350000001
  vertex 0.0490000024 1.55625708e-06 -0.0339999981
  endloop
 endfacet

endsolid AssimpScene
