solid AssimpScene
 facet normal 0 0 0
  outer loop
  vertex -0.00713437004 -0.0026871569 -0.0346000008
  vertex -0.00735679641 0.00314285723 -0.0342999995
  vertex -0.00322730816 0.00732014189 -0.0342999995
  endloop
 endfacet

 facet normal 0 0 0
  outer loop
  vertex -0.00713437004 -0.0026871569 -0.0346000008
  vertex -0.00322730816 0.00732014189 -0.0342999995
  vertex 0.0147000011 0.00970000029 -0.0346000008
  endloop
 endfacet

 facet normal 0 0 0
  outer loop
  vertex -0.00713437004 -0.0026871569 -0.0346000008
  vertex 0.0147000011 0.00970000029 -0.0346000008
  vertex 0.0147013078 -0.00970130693 -0.0345986933
  endloop
 endfacet

 facet normal 0 0 0
  outer loop
  vertex 0.0572582074 -0.00911551993 -0.0172994584
  vertex 0.0510000028 -0.00970130693 -0.00599704217
  vertex 0.0510000028 -0.00970130693 -0.0285970438
  endloop
 endfacet

 facet normal 0 0 0
  outer loop
  vertex 0.0562470928 -0.00770130707 -0.0105563067
  vertex 0.0572582074 -0.00911551993 -0.0172994584
  vertex 0.0578439943 -0.00109130645 -0.0172995105
  endloop
 endfacet

 facet normal 0 0 0
  outer loop
  vertex 0.0562470928 -0.00770130707 -0.0105563067
  vertex 0.0534227192 -0.000157222981 -0.00776783284
  vertex 0.0510000028 -0.00970130693 -0.00599704217
  endloop
 endfacet

 facet normal 0 0 0
  outer loop
  vertex 0.0438671149 0.00024175446 -0.0311095193
  vertex 0.0147000011 0.00970000029 -0.0346000008
  vertex 0.0466389395 0.00497448584 -0.0275768936
  endloop
 endfacet

 facet normal 0 0 0
  outer loop
  vertex -0.00713437004 -0.0026871569 -0.0346000008
  vertex 0.0147013078 -0.00970130693 -0.0345986933
  vertex -0.00314285769 -0.00735679595 -0.0342999995
  endloop
 endfacet

 facet normal 0 0 0
  outer loop
  vertex 0.0386997573 0.0112135978 -0.0245802905
  vertex 0.0466389395 0.00497448584 -0.0275768936
  vertex 0.0147000011 0.00970000029 -0.0346000008
  endloop
 endfacet

 facet normal 0 0 0
  outer loop
  vertex 0.0386997573 0.0112135978 -0.0245802905
  vertex 0.0147000011 0.00970000029 -0.0346000008
  vertex 0.0265091695 0.0143392365 -0.0215849839
  endloop
 endfacet

 facet normal 0 0 0
  outer loop
  vertex 0.0561142899 -0.00846667308 -0.0239673052
  vertex 0.0510000028 -0.00970130693 -0.0285970438
  vertex 0.0551260114 -0.00109159842 -0.0256554764
  endloop
 endfacet

 facet normal 0 0 0
  outer loop
  vertex 0.0561142899 -0.00846667308 -0.0239673052
  vertex 0.0572582074 -0.00911551993 -0.0172994584
  vertex 0.0510000028 -0.00970130693 -0.0285970438
  endloop
 endfacet

 facet normal 0 0 0
  outer loop
  vertex -0.00735679641 0.00314285723 -0.0342999995
  vertex -0.00713437004 -0.0026871569 -0.0346000008
  vertex -0.00800000131 -9.93509441e-11 -0.0318000019
  endloop
 endfacet

 facet normal 0 0 0
  outer loop
  vertex -0.00735679641 0.00314285723 -0.0342999995
  vertex -0.00800000131 -9.93509441e-11 -0.0318000019
  vertex -0.00800000131 -9.93509233e-11 -0.0013999996
  endloop
 endfacet

 facet normal 0 0 0
  outer loop
  vertex -0.00735679641 0.00314285723 -0.0342999995
  vertex -0.00800000131 -9.93509233e-11 -0.0013999996
  vertex -0.00592223322 0.00492109125 -1.11467571e-10
  endloop
 endfacet

 facet normal 0 0 0
  outer loop
  vertex -0.00735679641 0.00314285723 -0.0342999995
  vertex -0.00592223322 0.00492109125 -1.11467571e-10
  vertex -0.00322730816 0.00732014189 -0.0342999995
  endloop
 endfacet

 facet normal 0 0 0
  outer loop
  vertex -0.00314285769 0.00735679595 -0.000299999607
  vertex -0.00322730816 0.00732014189 -0.0342999995
  vertex -0.00592223322 0.00492109125 -1.11467571e-10
  endloop
 endfacet

 facet normal 0 0 0
  outer loop
  vertex 0.0389869995 -0.00770130707 -0.00262058247
  vertex 0.0510000028 -0.00970130693 -0.00599704217
  vertex 0.0494767912 -0.000536900188 -0.00522621954
  endloop
 endfacet

 facet normal 0 0 0
  outer loop
  vertex 0.0389869995 -0.00770130707 -0.00262058247
  vertex 0.0494767912 -0.000536900188 -0.00522621954
  vertex 0.0419881046 0.000335279154 -0.00308333617
  endloop
 endfacet

 facet normal 0 0 0
  outer loop
  vertex 0.0534886569 0.00443259161 -0.0145338969
  vertex 0.0578439943 -0.00109130645 -0.0172995105
  vertex 0.0525585487 0.00527350092 -0.0203523301
  endloop
 endfacet

 facet normal 0 0 0
  outer loop
  vertex 0.0534886569 0.00443259161 -0.0145338969
  vertex 0.0525585487 0.00527350092 -0.0203523301
  vertex 0.0466316268 0.0100769242 -0.0173012428
  endloop
 endfacet

 facet normal 0 0 0
  outer loop
  vertex 0.0534886569 0.00443259161 -0.0145338969
  vertex 0.0466316268 0.0100769242 -0.0173012428
  vertex 0.0470928065 0.00760964165 -0.010297155
  endloop
 endfacet

 facet normal 0 0 0
  outer loop
  vertex 0.0534886569 0.00443259161 -0.0145338969
  vertex 0.0470928065 0.00760964165 -0.010297155
  vertex 0.0534227192 -0.000157222981 -0.00776783284
  endloop
 endfacet

 facet normal 0 0 0
  outer loop
  vertex 0.0567248352 -0.001091299 -0.0115258731
  vertex 0.0534227192 -0.000157222981 -0.00776783284
  vertex 0.0562470928 -0.00770130707 -0.0105563067
  endloop
 endfacet

 facet normal 0 0 0
  outer loop
  vertex 0.0567248352 -0.001091299 -0.0115258731
  vertex 0.0562470928 -0.00770130707 -0.0105563067
  vertex 0.0578439943 -0.00109130645 -0.0172995105
  endloop
 endfacet

 facet normal 0 0 0
  outer loop
  vertex 0.0567248352 -0.001091299 -0.0115258731
  vertex 0.0578439943 -0.00109130645 -0.0172995105
  vertex 0.0534886569 0.00443259161 -0.0145338969
  endloop
 endfacet

 facet normal 0 0 0
  outer loop
  vertex 0.0567248352 -0.001091299 -0.0115258731
  vertex 0.0534886569 0.00443259161 -0.0145338969
  vertex 0.0534227192 -0.000157222981 -0.00776783284
  endloop
 endfacet

 facet normal 0 0 0
  outer loop
  vertex 0.0378073789 0.0132446447 -0.0173017308
  vertex 0.0466316268 0.0100769242 -0.0173012428
  vertex 0.0386997573 0.0112135978 -0.0245802905
  endloop
 endfacet

 facet normal 0 0 0
  outer loop
  vertex 0.0378073789 0.0132446447 -0.0173017308
  vertex 0.0386997573 0.0112135978 -0.0245802905
  vertex 0.0265091695 0.0143392365 -0.0215849839
  endloop
 endfacet

 facet normal 0 0 0
  outer loop
  vertex 0.0147013078 -0.00970130693 -0.0345986933
  vertex 0.0147000011 0.00970000029 -0.0346000008
  vertex 0.0438671149 0.00024175446 -0.0311095193
  endloop
 endfacet

 facet normal 0 0 0
  outer loop
  vertex 0.0147013078 -0.00970130693 -0.0345986933
  vertex 0.0438671149 0.00024175446 -0.0311095193
  vertex 0.0417204648 -0.00770130707 -0.0315453783
  endloop
 endfacet

 facet normal 0 0 0
  outer loop
  vertex 0.0417204648 -0.00770130707 -0.0315453783
  vertex 0.0438671149 0.00024175446 -0.0311095193
  vertex 0.0509546846 -0.000600653526 -0.0286830813
  endloop
 endfacet

 facet normal 0 0 0
  outer loop
  vertex 0.0417204648 -0.00770130707 -0.0315453783
  vertex 0.0509546846 -0.000600653526 -0.0286830813
  vertex 0.0510000028 -0.00970130693 -0.0285970438
  endloop
 endfacet

 facet normal 0 0 0
  outer loop
  vertex 0.0417204648 -0.00770130707 -0.0315453783
  vertex 0.0510000028 -0.00970130693 -0.0285970438
  vertex 0.0147013078 -0.00970130693 -0.0345986933
  endloop
 endfacet

 facet normal 0 0 0
  outer loop
  vertex 0.0147000011 0.00970000029 -1.11467502e-10
  vertex 0.0104616396 0.0100000007 -0.000299999607
  vertex -0.00314285769 0.00735679595 -0.000299999607
  endloop
 endfacet

 facet normal 0 0 0
  outer loop
  vertex 0.0147000011 0.00970000029 -1.11467502e-10
  vertex -0.00314285769 0.00735679595 -0.000299999607
  vertex -0.00592223322 0.00492109125 -1.11467571e-10
  endloop
 endfacet

 facet normal 0 0 0
  outer loop
  vertex 0.0147000011 0.00970000029 -1.11467502e-10
  vertex 0.0383660644 0.00876681134 -0.00674144225
  vertex 0.041390162 0.0115195094 -0.0127001237
  endloop
 endfacet

 facet normal 0 0 0
  outer loop
  vertex 0.0147000011 0.00970000029 -1.11467502e-10
  vertex 0.041390162 0.0115195094 -0.0127001237
  vertex 0.0298894346 0.0135943219 -0.0113357184
  endloop
 endfacet

 facet normal 0 0 0
  outer loop
  vertex 0.041390162 0.0115195094 -0.0127001237
  vertex 0.0470928065 0.00760964165 -0.010297155
  vertex 0.0466316268 0.0100769242 -0.0173012428
  endloop
 endfacet

 facet normal 0 0 0
  outer loop
  vertex 0.041390162 0.0115195094 -0.0127001237
  vertex 0.0466316268 0.0100769242 -0.0173012428
  vertex 0.0378073789 0.0132446447 -0.0173017308
  endloop
 endfacet

 facet normal 0 0 0
  outer loop
  vertex 0.041390162 0.0115195094 -0.0127001237
  vertex 0.0378073789 0.0132446447 -0.0173017308
  vertex 0.0298894346 0.0135943219 -0.0113357184
  endloop
 endfacet

 facet normal 0 0 0
  outer loop
  vertex 0.041390162 0.0115195094 -0.0127001237
  vertex 0.0383660644 0.00876681134 -0.00674144225
  vertex 0.0470928065 0.00760964165 -0.010297155
  endloop
 endfacet

 facet normal 0 0 0
  outer loop
  vertex 0.0471592695 0.00811566226 -0.0233726874
  vertex 0.0386997573 0.0112135978 -0.0245802905
  vertex 0.0466316268 0.0100769242 -0.0173012428
  endloop
 endfacet

 facet normal 0 0 0
  outer loop
  vertex 0.0471592695 0.00811566226 -0.0233726874
  vertex 0.0466316268 0.0100769242 -0.0173012428
  vertex 0.0525585487 0.00527350092 -0.0203523301
  endloop
 endfacet

 facet normal 0 0 0
  outer loop
  vertex 0.0471592695 0.00811566226 -0.0233726874
  vertex 0.0525585487 0.00527350092 -0.0203523301
  vertex 0.0551260114 -0.00109159842 -0.0256554764
  endloop
 endfacet

 facet normal 0 0 0
  outer loop
  vertex 0.0471592695 0.00811566226 -0.0233726874
  vertex 0.0551260114 -0.00109159842 -0.0256554764
  vertex 0.0466389395 0.00497448584 -0.0275768936
  endloop
 endfacet

 facet normal 0 0 0
  outer loop
  vertex 0.0471592695 0.00811566226 -0.0233726874
  vertex 0.0466389395 0.00497448584 -0.0275768936
  vertex 0.0386997573 0.0112135978 -0.0245802905
  endloop
 endfacet

 facet normal 0 0 0
  outer loop
  vertex 0.0265745558 0.0144139575 -0.0135504231
  vertex 0.0104616396 0.0100000007 -0.000299999607
  vertex 0.0147000011 0.00970000029 -1.11467502e-10
  endloop
 endfacet

 facet normal 0 0 0
  outer loop
  vertex 0.0265745558 0.0144139575 -0.0135504231
  vertex 0.0147000011 0.00970000029 -1.11467502e-10
  vertex 0.0298894346 0.0135943219 -0.0113357184
  endloop
 endfacet

 facet normal 0 0 0
  outer loop
  vertex 0.0265745558 0.0144139575 -0.0135504231
  vertex 0.0298894346 0.0135943219 -0.0113357184
  vertex 0.0378073789 0.0132446447 -0.0173017308
  endloop
 endfacet

 facet normal 0 0 0
  outer loop
  vertex 0.0265745558 0.0144139575 -0.0135504231
  vertex 0.0378073789 0.0132446447 -0.0173017308
  vertex 0.0265091695 0.0143392365 -0.0215849839
  endloop
 endfacet

 facet normal 0 0 0
  outer loop
  vertex 0.0265745558 0.0144139575 -0.0135504231
  vertex 0.0265091695 0.0143392365 -0.0215849839
  vertex -0.00322730816 0.00732014189 -0.0342999995
  endloop
 endfacet

 facet normal 0 0 0
  outer loop
  vertex 0.0265745558 0.0144139575 -0.0135504231
  vertex -0.00322730816 0.00732014189 -0.0342999995
  vertex -0.00314285769 0.00735679595 -0.000299999607
  endloop
 endfacet

 facet normal 0 0 0
  outer loop
  vertex 0.0265745558 0.0144139575 -0.0135504231
  vertex -0.00314285769 0.00735679595 -0.000299999607
  vertex 0.0104616396 0.0100000007 -0.000299999607
  endloop
 endfacet

 facet normal 0 0 0
  outer loop
  vertex 0.0509546846 -0.000600653526 -0.0286830813
  vertex 0.0438671149 0.00024175446 -0.0311095193
  vertex 0.0466389395 0.00497448584 -0.0275768936
  endloop
 endfacet

 facet normal 0 0 0
  outer loop
  vertex 0.0509546846 -0.000600653526 -0.0286830813
  vertex 0.0466389395 0.00497448584 -0.0275768936
  vertex 0.0551260114 -0.00109159842 -0.0256554764
  endloop
 endfacet

 facet normal 0 0 0
  outer loop
  vertex 0.0509546846 -0.000600653526 -0.0286830813
  vertex 0.0551260114 -0.00109159842 -0.0256554764
  vertex 0.0510000028 -0.00970130693 -0.0285970438
  endloop
 endfacet

 facet normal 0 0 0
  outer loop
  vertex 0.044653479 0.00460947677 -0.00578409852
  vertex 0.0383660644 0.00876681134 -0.00674144225
  vertex 0.0147000011 0.00970000029 -1.11467502e-10
  endloop
 endfacet

 facet normal 0 0 0
  outer loop
  vertex 0.044653479 0.00460947677 -0.00578409852
  vertex 0.0147000011 0.00970000029 -1.11467502e-10
  vertex 0.0419881046 0.000335279154 -0.00308333617
  endloop
 endfacet

 facet normal 0 0 0
  outer loop
  vertex 0.044653479 0.00460947677 -0.00578409852
  vertex 0.0534227192 -0.000157222981 -0.00776783284
  vertex 0.0470928065 0.00760964165 -0.010297155
  endloop
 endfacet

 facet normal 0 0 0
  outer loop
  vertex 0.044653479 0.00460947677 -0.00578409852
  vertex 0.0470928065 0.00760964165 -0.010297155
  vertex 0.0383660644 0.00876681134 -0.00674144225
  endloop
 endfacet

 facet normal 0 0 0
  outer loop
  vertex 0.00903677195 -0.0098206047 -0.0342999995
  vertex 0.00903677195 -0.0098206047 -0.000299999607
  vertex -0.00314285769 -0.00735679595 -0.000299999607
  endloop
 endfacet

 facet normal 0 0 0
  outer loop
  vertex 0.00903677195 -0.0098206047 -0.0342999995
  vertex -0.00314285769 -0.00735679595 -0.000299999607
  vertex -0.00314285769 -0.00735679595 -0.0342999995
  endloop
 endfacet

 facet normal 0 0 0
  outer loop
  vertex 0.00903677195 -0.0098206047 -0.0342999995
  vertex -0.00314285769 -0.00735679595 -0.0342999995
  vertex 0.0147013078 -0.00970130693 -0.0345986933
  endloop
 endfacet

 facet normal 0 0 0
  outer loop
  vertex 0.00903677195 -0.0098206047 -0.0342999995
  vertex 0.0147013078 -0.00970130693 -0.0345986933
  vertex 0.0510000028 -0.00970130693 -0.0285970438
  endloop
 endfacet

 facet normal 0 0 0
  outer loop
  vertex 0.00903677195 -0.0098206047 -0.0342999995
  vertex 0.0510000028 -0.00970130693 -0.0285970438
  vertex 0.0510000028 -0.00970130693 -0.00599704217
  endloop
 endfacet

 facet normal 0 0 0
  outer loop
  vertex 0.00903677195 -0.0098206047 -0.0342999995
  vertex 0.0510000028 -0.00970130693 -0.00599704217
  vertex 0.00903677195 -0.0098206047 -0.000299999607
  endloop
 endfacet

 facet normal 0 0 0
  outer loop
  vertex -0.00615297025 -0.00511282263 -0.0342999995
  vertex -0.00713437004 -0.0026871569 -0.0346000008
  vertex -0.00314285769 -0.00735679595 -0.0342999995
  endloop
 endfacet

 facet normal 0 0 0
  outer loop
  vertex -0.00615297025 -0.00511282263 -0.0342999995
  vertex -0.00314285769 -0.00735679595 -0.0342999995
  vertex -0.00314285769 -0.00735679595 -0.000299999607
  endloop
 endfacet

 facet normal 0 0 0
  outer loop
  vertex -0.00615297025 -0.00511282263 -0.0342999995
  vertex -0.00314285769 -0.00735679595 -0.000299999607
  vertex -0.00615297025 -0.00511282263 -0.000299999607
  endloop
 endfacet

 facet normal 0 0 0
  outer loop
  vertex 0.056084156 -0.00911551993 -0.0115282796
  vertex 0.0572582074 -0.00911551993 -0.0172994584
  vertex 0.0562470928 -0.00770130707 -0.0105563067
  endloop
 endfacet

 facet normal 0 0 0
  outer loop
  vertex 0.056084156 -0.00911551993 -0.0115282796
  vertex 0.0562470928 -0.00770130707 -0.0105563067
  vertex 0.0510000028 -0.00970130693 -0.00599704217
  endloop
 endfacet

 facet normal 0 0 0
  outer loop
  vertex 0.056084156 -0.00911551993 -0.0115282796
  vertex 0.0510000028 -0.00970130693 -0.00599704217
  vertex 0.0572582074 -0.00911551993 -0.0172994584
  endloop
 endfacet

 facet normal 0 0 0
  outer loop
  vertex 0.00954616442 0.00991547666 -0.0342999995
  vertex 0.0147000011 0.00970000029 -0.0346000008
  vertex -0.00322730816 0.00732014189 -0.0342999995
  endloop
 endfacet

 facet normal 0 0 0
  outer loop
  vertex 0.00954616442 0.00991547666 -0.0342999995
  vertex -0.00322730816 0.00732014189 -0.0342999995
  vertex 0.0265091695 0.0143392365 -0.0215849839
  endloop
 endfacet

 facet normal 0 0 0
  outer loop
  vertex 0.00954616442 0.00991547666 -0.0342999995
  vertex 0.0265091695 0.0143392365 -0.0215849839
  vertex 0.0147000011 0.00970000029 -0.0346000008
  endloop
 endfacet

 facet normal 0 0 0
  outer loop
  vertex 0.0494767912 -0.000536900188 -0.00522621954
  vertex 0.0534227192 -0.000157222981 -0.00776783284
  vertex 0.044653479 0.00460947677 -0.00578409852
  endloop
 endfacet

 facet normal 0 0 0
  outer loop
  vertex 0.0494767912 -0.000536900188 -0.00522621954
  vertex 0.044653479 0.00460947677 -0.00578409852
  vertex 0.0419881046 0.000335279154 -0.00308333617
  endloop
 endfacet

 facet normal 0 0 0
  outer loop
  vertex 0.0494767912 -0.000536900188 -0.00522621954
  vertex 0.0510000028 -0.00970130693 -0.00599704217
  vertex 0.0534227192 -0.000157222981 -0.00776783284
  endloop
 endfacet

 facet normal 0 0 0
  outer loop
  vertex 0.0571630262 -0.00109151111 -0.0218991823
  vertex 0.0561142899 -0.00846667308 -0.0239673052
  vertex 0.0551260114 -0.00109159842 -0.0256554764
  endloop
 endfacet

 facet normal 0 0 0
  outer loop
  vertex 0.0571630262 -0.00109151111 -0.0218991823
  vertex 0.0551260114 -0.00109159842 -0.0256554764
  vertex 0.0525585487 0.00527350092 -0.0203523301
  endloop
 endfacet

 facet normal 0 0 0
  outer loop
  vertex 0.0571630262 -0.00109151111 -0.0218991823
  vertex 0.0525585487 0.00527350092 -0.0203523301
  vertex 0.0578439943 -0.00109130645 -0.0172995105
  endloop
 endfacet

 facet normal 0 0 0
  outer loop
  vertex -0.00713437004 -0.0026871569 -1.11467571e-10
  vertex -0.00592223322 0.00492109125 -1.11467571e-10
  vertex -0.00800000131 -9.93509233e-11 -0.0013999996
  endloop
 endfacet

 facet normal 0 0 0
  outer loop
  vertex -0.00713437004 -0.0026871569 -1.11467571e-10
  vertex -0.00800000131 -9.93509233e-11 -0.0013999996
  vertex -0.00800000131 -9.93509441e-11 -0.0318000019
  endloop
 endfacet

 facet normal 0 0 0
  outer loop
  vertex -0.00713437004 -0.0026871569 -1.11467571e-10
  vertex -0.00800000131 -9.93509441e-11 -0.0318000019
  vertex -0.00713437004 -0.0026871569 -0.0346000008
  endloop
 endfacet

 facet normal 0 0 0
  outer loop
  vertex -0.00713437004 -0.0026871569 -1.11467571e-10
  vertex -0.00713437004 -0.0026871569 -0.0346000008
  vertex -0.00615297025 -0.00511282263 -0.0342999995
  endloop
 endfacet

 facet normal 0 0 0
  outer loop
  vertex -0.00713437004 -0.0026871569 -1.11467571e-10
  vertex -0.00615297025 -0.00511282263 -0.0342999995
  vertex -0.00615297025 -0.00511282263 -0.000299999607
  endloop
 endfacet

 facet normal 0 0 0
  outer loop
  vertex -0.00713437004 -0.0026871569 -1.11467571e-10
  vertex -0.00615297025 -0.00511282263 -0.000299999607
  vertex -0.00314285769 -0.00735679595 -0.000299999607
  endloop
 endfacet

 facet normal 0 0 0
  outer loop
  vertex 0.0147013078 -0.00970130693 -1.30582566e-06
  vertex 0.0510000028 -0.00970130693 -0.00599704217
  vertex 0.0389869995 -0.00770130707 -0.00262058247
  endloop
 endfacet

 facet normal 0 0 0
  outer loop
  vertex 0.0147013078 -0.00970130693 -1.30582566e-06
  vertex 0.0389869995 -0.00770130707 -0.00262058247
  vertex 0.0419881046 0.000335279154 -0.00308333617
  endloop
 endfacet

 facet normal 0 0 0
  outer loop
  vertex 0.0147013078 -0.00970130693 -1.30582566e-06
  vertex 0.0419881046 0.000335279154 -0.00308333617
  vertex 0.0147000011 0.00970000029 -1.11467502e-10
  endloop
 endfacet

 facet normal 0 0 0
  outer loop
  vertex 0.0147013078 -0.00970130693 -1.30582566e-06
  vertex 0.0147000011 0.00970000029 -1.11467502e-10
  vertex -0.00592223322 0.00492109125 -1.11467571e-10
  endloop
 endfacet

 facet normal 0 0 0
  outer loop
  vertex 0.0147013078 -0.00970130693 -1.30582566e-06
  vertex -0.00592223322 0.00492109125 -1.11467571e-10
  vertex -0.00713437004 -0.0026871569 -1.11467571e-10
  endloop
 endfacet

 facet normal 0 0 0
  outer loop
  vertex 0.0147013078 -0.00970130693 -1.30582566e-06
  vertex -0.00713437004 -0.0026871569 -1.11467571e-10
  vertex -0.00314285769 -0.00735679595 -0.000299999607
  endloop
 endfacet

 facet normal 0 0 0
  outer loop
  vertex 0.0147013078 -0.00970130693 -1.30582566e-06
  vertex -0.00314285769 -0.00735679595 -0.000299999607
  vertex 0.00903677195 -0.0098206047 -0.000299999607
  endloop
 endfacet

 facet normal 0 0 0
  outer loop
  vertex 0.0147013078 -0.00970130693 -1.30582566e-06
  vertex 0.00903677195 -0.0098206047 -0.000299999607
  vertex 0.0510000028 -0.00970130693 -0.00599704217
  endloop
 endfacet

 facet normal 0 0 0
  outer loop
  vertex 0.0575577468 -0.00770130707 -0.0203574654
  vertex 0.0561142899 -0.00846667308 -0.0239673052
  vertex 0.0571630262 -0.00109151111 -0.0218991823
  endloop
 endfacet

 facet normal 0 0 0
  outer loop
  vertex 0.0575577468 -0.00770130707 -0.0203574654
  vertex 0.0571630262 -0.00109151111 -0.0218991823
  vertex 0.0578439943 -0.00109130645 -0.0172995105
  endloop
 endfacet

 facet normal 0 0 0
  outer loop
  vertex 0.0575577468 -0.00770130707 -0.0203574654
  vertex 0.0578439943 -0.00109130645 -0.0172995105
  vertex 0.0572582074 -0.00911551993 -0.0172994584
  endloop
 endfacet

 facet normal 0 0 0
  outer loop
  vertex 0.0575577468 -0.00770130707 -0.0203574654
  vertex 0.0572582074 -0.00911551993 -0.0172994584
  vertex 0.0561142899 -0.00846667308 -0.0239673052
  endloop
 endfacet

endsolid AssimpScene
