solid AssimpScene
 facet normal 0 0 0
  outer loop
  vertex -0.0058189882 -0.0054899333 -0.0319999978
  vertex -0.00798646361 -0.000465158635 -0.0319999978
  vertex -0.00641698483 0.00477726851 -0.0319999978
  endloop
 endfacet

 facet normal 0 0 0
  outer loop
  vertex -0.0058189882 -0.0054899333 -0.0319999978
  vertex -0.00641698483 0.00477726851 -0.0319999978
  vertex -0.00184492685 0.00778435916 -0.0319999978
  endloop
 endfacet

 facet normal 0 0 0
  outer loop
  vertex -0.0058189882 -0.0054899333 -0.0319999978
  vertex -0.00184492685 0.00778435916 -0.0319999978
  vertex 0.0499287434 0.0079459073 -0.0319999978
  endloop
 endfacet

 facet normal 0 0 0
  outer loop
  vertex -0.0058189882 -0.0054899333 -0.0319999978
  vertex 0.0499287434 0.0079459073 -0.0319999978
  vertex 0.0548189878 0.0054899333 -0.0319999978
  endloop
 endfacet

 facet normal 0 0 0
  outer loop
  vertex -0.0058189882 -0.0054899333 -0.0319999978
  vertex 0.0548189878 0.0054899333 -0.0319999978
  vertex 0.0569864623 0.000465158635 -0.0319999978
  endloop
 endfacet

 facet normal 0 0 0
  outer loop
  vertex -0.0058189882 -0.0054899333 -0.0319999978
  vertex 0.0569864623 0.000465158635 -0.0319999978
  vertex 0.0554169826 -0.00477726851 -0.0319999978
  endloop
 endfacet

 facet normal 0 0 0
  outer loop
  vertex -0.0058189882 -0.0054899333 -0.0319999978
  vertex 0.0554169826 -0.00477726851 -0.0319999978
  vertex 0.0508449264 -0.00778435916 -0.0319999978
  endloop
 endfacet

 facet normal 0 0 0
  outer loop
  vertex -0.0058189882 -0.0054899333 -0.0319999978
  vertex 0.0508449264 -0.00778435916 -0.0319999978
  vertex -0.000928743975 -0.0079459073 -0.0319999978
  endloop
 endfacet

 facet normal 0 0 0
  outer loop
  vertex -0.000928743975 -0.0079459073 -0.0319999978
  vertex 0.0508449264 -0.00778435916 -0.0319999978
  vertex 0.057500001 -0.00999999978 -0.0289999973
  endloop
 endfacet

 facet normal 0 0 0
  outer loop
  vertex -0.000928743975 -0.0079459073 -0.0319999978
  vertex 0.057500001 -0.00999999978 -0.0289999973
  vertex -0.00849999953 -0.00999999978 -0.0289999973
  endloop
 endfacet

 facet normal 0 0 0
  outer loop
  vertex -0.00359039311 -0.00714906072 -0.00300000049
  vertex -0.00798646361 0.000465158635 -0.00300000049
  vertex -0.00950000156 -0.00899999961 -0.00600000005
  endloop
 endfacet

 facet normal 0 0 0
  outer loop
  vertex 0.057500001 0.00999999978 -0.00600000005
  vertex -0.00849999953 0.00999999978 -0.00600000005
  vertex -0.000928743975 0.0079459073 -0.00300000049
  endloop
 endfacet

 facet normal 0 0 0
  outer loop
  vertex 0.057500001 0.00999999978 -0.00600000005
  vertex -0.000928743975 0.0079459073 -0.00300000049
  vertex 0.048999995 0.00800000038 -0.00300000049
  endloop
 endfacet

 facet normal 0 0 0
  outer loop
  vertex 0.057500001 0.00999999978 -0.0289999973
  vertex 0.0499287434 0.0079459073 -0.0319999978
  vertex -0.00184492685 0.00778435916 -0.0319999978
  endloop
 endfacet

 facet normal 0 0 0
  outer loop
  vertex 0.057500001 0.00999999978 -0.0289999973
  vertex -0.00184492685 0.00778435916 -0.0319999978
  vertex -0.00849999953 0.00999999978 -0.0289999973
  endloop
 endfacet

 facet normal 0 0 0
  outer loop
  vertex -0.00849999953 0.00999999978 -0.0289999973
  vertex -0.00849999953 0.00999999978 -0.00600000005
  vertex 0.057500001 0.00999999978 -0.00600000005
  endloop
 endfacet

 facet normal 0 0 0
  outer loop
  vertex -0.00849999953 0.00999999978 -0.0289999973
  vertex 0.057500001 0.00999999978 -0.00600000005
  vertex 0.057500001 0.00999999978 -0.0289999973
  endloop
 endfacet

 facet normal 0 0 0
  outer loop
  vertex -0.00849999953 -0.00999999978 -0.00600000005
  vertex -0.00849999953 -0.00999999978 -0.0289999973
  vertex 0.057500001 -0.00999999978 -0.0289999973
  endloop
 endfacet

 facet normal 0 0 0
  outer loop
  vertex -0.00849999953 -0.00999999978 -0.00600000005
  vertex 0.057500001 -0.00999999978 -0.0289999973
  vertex 0.057500001 -0.00999999978 -0.00600000005
  endloop
 endfacet

 facet normal 0 0 0
  outer loop
  vertex -0.00849999953 -0.00999999978 -0.00600000005
  vertex 0.057500001 -0.00999999978 -0.00600000005
  vertex 0.0499287434 -0.0079459073 -0.00300000049
  endloop
 endfacet

 facet normal 0 0 0
  outer loop
  vertex -0.00849999953 -0.00999999978 -0.00600000005
  vertex 0.0499287434 -0.0079459073 -0.00300000049
  vertex -0.00359039311 -0.00714906072 -0.00300000049
  endloop
 endfacet

 facet normal 0 0 0
  outer loop
  vertex -0.00849999953 -0.00999999978 -0.00600000005
  vertex -0.00359039311 -0.00714906072 -0.00300000049
  vertex -0.00950000156 -0.00899999961 -0.00600000005
  endloop
 endfacet

 facet normal 0 0 0
  outer loop
  vertex 0.0585000031 -0.00899999961 -0.00600000005
  vertex 0.057500001 -0.00999999978 -0.00600000005
  vertex 0.057500001 -0.00999999978 -0.0289999973
  endloop
 endfacet

 facet normal 0 0 0
  outer loop
  vertex 0.0585000031 -0.00899999961 -0.00600000005
  vertex 0.057500001 -0.00999999978 -0.0289999973
  vertex 0.0585000031 -0.00899999961 -0.0289999973
  endloop
 endfacet

 facet normal 0 0 0
  outer loop
  vertex 0.0585000031 -0.00899999961 -0.00600000005
  vertex 0.0585000031 0.00899999961 -0.00600000005
  vertex 0.0569864623 -0.000465158635 -0.00300000049
  endloop
 endfacet

 facet normal 0 0 0
  outer loop
  vertex 0.0585000031 0.00899999961 -0.0289999973
  vertex 0.0585000031 0.00899999961 -0.00600000005
  vertex 0.0585000031 -0.00899999961 -0.00600000005
  endloop
 endfacet

 facet normal 0 0 0
  outer loop
  vertex 0.0585000031 0.00899999961 -0.0289999973
  vertex 0.0585000031 -0.00899999961 -0.00600000005
  vertex 0.0585000031 -0.00899999961 -0.0289999973
  endloop
 endfacet

 facet normal 0 0 0
  outer loop
  vertex 0.0585000031 0.00899999961 -0.0289999973
  vertex 0.0585000031 -0.00899999961 -0.0289999973
  vertex 0.0569864623 0.000465158635 -0.0319999978
  endloop
 endfacet

 facet normal 0 0 0
  outer loop
  vertex 0.0585000031 0.00899999961 -0.0289999973
  vertex 0.057500001 0.00999999978 -0.0289999973
  vertex 0.057500001 0.00999999978 -0.00600000005
  endloop
 endfacet

 facet normal 0 0 0
  outer loop
  vertex 0.0585000031 0.00899999961 -0.0289999973
  vertex 0.057500001 0.00999999978 -0.00600000005
  vertex 0.0585000031 0.00899999961 -0.00600000005
  endloop
 endfacet

 facet normal 0 0 0
  outer loop
  vertex -0.00950000156 -0.00899999961 -0.0289999973
  vertex -0.00950000156 0.00899999961 -0.0289999973
  vertex -0.00798646361 -0.000465158635 -0.0319999978
  endloop
 endfacet

 facet normal 0 0 0
  outer loop
  vertex -0.00950000156 -0.00899999961 -0.0289999973
  vertex -0.00849999953 -0.00999999978 -0.0289999973
  vertex -0.00849999953 -0.00999999978 -0.00600000005
  endloop
 endfacet

 facet normal 0 0 0
  outer loop
  vertex -0.00950000156 -0.00899999961 -0.0289999973
  vertex -0.00849999953 -0.00999999978 -0.00600000005
  vertex -0.00950000156 -0.00899999961 -0.00600000005
  endloop
 endfacet

 facet normal 0 0 0
  outer loop
  vertex -0.00950000156 0.00899999961 -0.00600000005
  vertex -0.00849999953 0.00999999978 -0.00600000005
  vertex -0.00849999953 0.00999999978 -0.0289999973
  endloop
 endfacet

 facet normal 0 0 0
  outer loop
  vertex -0.00950000156 0.00899999961 -0.00600000005
  vertex -0.00849999953 0.00999999978 -0.0289999973
  vertex -0.00950000156 0.00899999961 -0.0289999973
  endloop
 endfacet

 facet normal 0 0 0
  outer loop
  vertex -0.00950000156 0.00899999961 -0.00600000005
  vertex -0.00950000156 0.00899999961 -0.0289999973
  vertex -0.00950000156 -0.00899999961 -0.0289999973
  endloop
 endfacet

 facet normal 0 0 0
  outer loop
  vertex -0.00950000156 0.00899999961 -0.00600000005
  vertex -0.00950000156 -0.00899999961 -0.0289999973
  vertex -0.00950000156 -0.00899999961 -0.00600000005
  endloop
 endfacet

 facet normal 0 0 0
  outer loop
  vertex -0.00950000156 0.00899999961 -0.00600000005
  vertex -0.00950000156 -0.00899999961 -0.00600000005
  vertex -0.00798646361 0.000465158635 -0.00300000049
  endloop
 endfacet

 facet normal 0 0 0
  outer loop
  vertex 0.0554169826 0.00477726851 -0.00300000049
  vertex 0.0585000031 0.00899999961 -0.00600000005
  vertex 0.057500001 0.00999999978 -0.00600000005
  endloop
 endfacet

 facet normal 0 0 0
  outer loop
  vertex 0.0554169826 0.00477726851 -0.00300000049
  vertex 0.057500001 0.00999999978 -0.00600000005
  vertex 0.048999995 0.00800000038 -0.00300000049
  endloop
 endfacet

 facet normal 0 0 0
  outer loop
  vertex 0.0554169826 0.00477726851 -0.00300000049
  vertex 0.0569864623 -0.000465158635 -0.00300000049
  vertex 0.0585000031 0.00899999961 -0.00600000005
  endloop
 endfacet

 facet normal 0 0 0
  outer loop
  vertex -0.00641698483 0.00477726851 -0.0319999978
  vertex -0.00798646361 -0.000465158635 -0.0319999978
  vertex -0.00950000156 0.00899999961 -0.0289999973
  endloop
 endfacet

 facet normal 0 0 0
  outer loop
  vertex -0.00641698483 0.00477726851 -0.0319999978
  vertex -0.00950000156 0.00899999961 -0.0289999973
  vertex -0.00849999953 0.00999999978 -0.0289999973
  endloop
 endfacet

 facet normal 0 0 0
  outer loop
  vertex -0.00641698483 0.00477726851 -0.0319999978
  vertex -0.00849999953 0.00999999978 -0.0289999973
  vertex -0.00184492685 0.00778435916 -0.0319999978
  endloop
 endfacet

 facet normal 0 0 0
  outer loop
  vertex 0.0554169826 -0.00477726851 -0.0319999978
  vertex 0.0569864623 0.000465158635 -0.0319999978
  vertex 0.0585000031 -0.00899999961 -0.0289999973
  endloop
 endfacet

 facet normal 0 0 0
  outer loop
  vertex 0.0554169826 -0.00477726851 -0.0319999978
  vertex 0.0585000031 -0.00899999961 -0.0289999973
  vertex 0.057500001 -0.00999999978 -0.0289999973
  endloop
 endfacet

 facet normal 0 0 0
  outer loop
  vertex 0.0554169826 -0.00477726851 -0.0319999978
  vertex 0.057500001 -0.00999999978 -0.0289999973
  vertex 0.0508449264 -0.00778435916 -0.0319999978
  endloop
 endfacet

 facet normal 0 0 0
  outer loop
  vertex -0.0058189882 0.0054899333 -0.00300000049
  vertex -0.000928743975 0.0079459073 -0.00300000049
  vertex -0.00849999953 0.00999999978 -0.00600000005
  endloop
 endfacet

 facet normal 0 0 0
  outer loop
  vertex -0.0058189882 0.0054899333 -0.00300000049
  vertex -0.00849999953 0.00999999978 -0.00600000005
  vertex -0.00950000156 0.00899999961 -0.00600000005
  endloop
 endfacet

 facet normal 0 0 0
  outer loop
  vertex -0.0058189882 0.0054899333 -0.00300000049
  vertex -0.00950000156 0.00899999961 -0.00600000005
  vertex -0.00798646361 0.000465158635 -0.00300000049
  endloop
 endfacet

 facet normal 0 0 0
  outer loop
  vertex 0.0548189878 -0.0054899333 -0.00300000049
  vertex 0.0499287434 -0.0079459073 -0.00300000049
  vertex 0.057500001 -0.00999999978 -0.00600000005
  endloop
 endfacet

 facet normal 0 0 0
  outer loop
  vertex 0.0548189878 -0.0054899333 -0.00300000049
  vertex 0.057500001 -0.00999999978 -0.00600000005
  vertex 0.0585000031 -0.00899999961 -0.00600000005
  endloop
 endfacet

 facet normal 0 0 0
  outer loop
  vertex 0.0548189878 -0.0054899333 -0.00300000049
  vertex 0.0585000031 -0.00899999961 -0.00600000005
  vertex 0.0569864623 -0.000465158635 -0.00300000049
  endloop
 endfacet

 facet normal 0 0 0
  outer loop
  vertex 0.0548189878 -0.0054899333 -0.00300000049
  vertex 0.0569864623 -0.000465158635 -0.00300000049
  vertex 0.0554169826 0.00477726851 -0.00300000049
  endloop
 endfacet

 facet normal 0 0 0
  outer loop
  vertex 0.0548189878 -0.0054899333 -0.00300000049
  vertex 0.0554169826 0.00477726851 -0.00300000049
  vertex 0.048999995 0.00800000038 -0.00300000049
  endloop
 endfacet

 facet normal 0 0 0
  outer loop
  vertex 0.0548189878 -0.0054899333 -0.00300000049
  vertex 0.048999995 0.00800000038 -0.00300000049
  vertex -0.000928743975 0.0079459073 -0.00300000049
  endloop
 endfacet

 facet normal 0 0 0
  outer loop
  vertex 0.0548189878 -0.0054899333 -0.00300000049
  vertex -0.000928743975 0.0079459073 -0.00300000049
  vertex -0.0058189882 0.0054899333 -0.00300000049
  endloop
 endfacet

 facet normal 0 0 0
  outer loop
  vertex 0.0548189878 -0.0054899333 -0.00300000049
  vertex -0.0058189882 0.0054899333 -0.00300000049
  vertex -0.00798646361 0.000465158635 -0.00300000049
  endloop
 endfacet

 facet normal 0 0 0
  outer loop
  vertex 0.0548189878 -0.0054899333 -0.00300000049
  vertex -0.00798646361 0.000465158635 -0.00300000049
  vertex -0.00359039311 -0.00714906072 -0.00300000049
  endloop
 endfacet

 facet normal 0 0 0
  outer loop
  vertex 0.0548189878 -0.0054899333 -0.00300000049
  vertex -0.00359039311 -0.00714906072 -0.00300000049
  vertex 0.0499287434 -0.0079459073 -0.00300000049
  endloop
 endfacet

 facet normal 0 0 0
  outer loop
  vertex 0.0548189878 0.0054899333 -0.0319999978
  vertex 0.0499287434 0.0079459073 -0.0319999978
  vertex 0.057500001 0.00999999978 -0.0289999973
  endloop
 endfacet

 facet normal 0 0 0
  outer loop
  vertex 0.0548189878 0.0054899333 -0.0319999978
  vertex 0.057500001 0.00999999978 -0.0289999973
  vertex 0.0585000031 0.00899999961 -0.0289999973
  endloop
 endfacet

 facet normal 0 0 0
  outer loop
  vertex 0.0548189878 0.0054899333 -0.0319999978
  vertex 0.0585000031 0.00899999961 -0.0289999973
  vertex 0.0569864623 0.000465158635 -0.0319999978
  endloop
 endfacet

 facet normal 0 0 0
  outer loop
  vertex -0.0058189882 -0.0054899333 -0.0319999978
  vertex -0.000928743975 -0.0079459073 -0.0319999978
  vertex -0.00849999953 -0.00999999978 -0.0289999973
  endloop
 endfacet

 facet normal 0 0 0
  outer loop
  vertex -0.0058189882 -0.0054899333 -0.0319999978
  vertex -0.00849999953 -0.00999999978 -0.0289999973
  vertex -0.00950000156 -0.00899999961 -0.0289999973
  endloop
 endfacet

 facet normal 0 0 0
  outer loop
  vertex -0.0058189882 -0.0054899333 -0.0319999978
  vertex -0.00950000156 -0.00899999961 -0.0289999973
  vertex -0.00798646361 -0.000465158635 -0.0319999978
  endloop
 endfacet

endsolid AssimpScene
