solid AssimpScene
 facet normal 0 0 0
  outer loop
  vertex 0.0360603854 0.0184999984 0.0340441316
  vertex 0.0374001302 0.0184999984 0.0290441308
  vertex 0.0370593891 0.0184999984 -0.0354019254
  endloop
 endfacet

 facet normal 0 0 0
  outer loop
  vertex 0.0360603854 0.0184999984 0.0340441316
  vertex 0.0370593891 0.0184999984 -0.0354019254
  vertex 0.0344711989 0.0184999984 -0.039884802
  endloop
 endfacet

 facet normal 0 0 0
  outer loop
  vertex 0.0360603854 0.0184999984 0.0340441316
  vertex 0.0344711989 0.0184999984 -0.039884802
  vertex 0.0299883243 0.0184999984 -0.0424729921
  endloop
 endfacet

 facet normal 0 0 0
  outer loop
  vertex 0.0360603854 0.0184999984 0.0340441316
  vertex 0.0299883243 0.0184999984 -0.0424729921
  vertex 0.012294353 0.0182909779 -0.0428137332
  endloop
 endfacet

 facet normal 0 0 0
  outer loop
  vertex 0.0360603854 0.0184999984 0.0340441316
  vertex 0.012294353 0.0182909779 -0.0428137332
  vertex 0.0113474652 0.0176930483 0.0246520583
  endloop
 endfacet

 facet normal 0 0 0
  outer loop
  vertex 0.0360603854 0.0184999984 0.0340441316
  vertex 0.0113474652 0.0176930483 0.0246520583
  vertex 0.0313831083 0.0184999984 0.0392032899
  endloop
 endfacet

 facet normal 0 0 0
  outer loop
  vertex 0.0313831083 0.0184999984 0.0392032899
  vertex 0.0113474652 0.0176930483 0.0246520583
  vertex 0.00730013102 0.00622538617 0.0411862656
  endloop
 endfacet

 facet normal 0 0 0
  outer loop
  vertex 0.0313831083 0.0184999984 0.0392032899
  vertex 0.00730013102 0.00622538617 0.0411862656
  vertex 0.0294001345 0.00849999953 0.0411862656
  endloop
 endfacet

 facet normal 0 0 0
  outer loop
  vertex 0.0344711989 -0.0160000008 -0.039884802
  vertex 0.0274001323 -0.0160000008 -0.0428137332
  vertex 0.0299883243 0.0184999984 -0.0424729921
  endloop
 endfacet

 facet normal 0 0 0
  outer loop
  vertex 0.0344711989 -0.0160000008 -0.039884802
  vertex 0.0370593891 0.0184999984 -0.0354019254
  vertex 0.0374001302 -0.0160000008 -0.0328137353
  endloop
 endfacet

 facet normal 0 0 0
  outer loop
  vertex 0.00350013189 -0.000356406556 0.0411862656
  vertex 0.00730013102 0.00622538617 0.0411862656
  vertex 0.0113474652 0.0176930483 0.0246520583
  endloop
 endfacet

 facet normal 0 0 0
  outer loop
  vertex 0.00350013189 -0.000356406556 0.0411862656
  vertex 0.0113474652 0.0176930483 0.0246520583
  vertex 0.010685836 0.0167895239 -0.0428137332
  endloop
 endfacet

 facet normal 0 0 0
  outer loop
  vertex 0.00350013189 -0.000356406556 0.0411862656
  vertex 0.010685836 0.0167895239 -0.0428137332
  vertex 0.00350013189 0.00169557671 -0.0428137332
  endloop
 endfacet

 facet normal 0 0 0
  outer loop
  vertex 0.00350013189 -0.000356406556 0.0411862656
  vertex 0.00350013189 0.00169557671 -0.0428137332
  vertex 0.00350013189 -0.0160000008 -0.0428137332
  endloop
 endfacet

 facet normal 0 0 0
  outer loop
  vertex 0.00350013189 -0.000356406556 0.0411862656
  vertex 0.00350013189 -0.0160000008 -0.0428137332
  vertex 0.00350013189 -0.0160000008 0.0411862656
  endloop
 endfacet

 facet normal 0 0 0
  outer loop
  vertex 0.00350013189 -0.000356406556 0.0411862656
  vertex 0.00350013189 -0.0160000008 0.0411862656
  vertex 0.0294001345 -0.0160000008 0.0411862656
  endloop
 endfacet

 facet normal 0 0 0
  outer loop
  vertex 0.00350013189 -0.000356406556 0.0411862656
  vertex 0.0294001345 -0.0160000008 0.0411862656
  vertex 0.0294001345 0.00849999953 0.0411862656
  endloop
 endfacet

 facet normal 0 0 0
  outer loop
  vertex 0.00350013189 -0.000356406556 0.0411862656
  vertex 0.0294001345 0.00849999953 0.0411862656
  vertex 0.00730013102 0.00622538617 0.0411862656
  endloop
 endfacet

 facet normal 0 0 0
  outer loop
  vertex 0.0344711989 0.0184999984 -0.039884802
  vertex 0.0370593891 0.0184999984 -0.0354019254
  vertex 0.0344711989 -0.0160000008 -0.039884802
  endloop
 endfacet

 facet normal 0 0 0
  outer loop
  vertex 0.0344711989 0.0184999984 -0.039884802
  vertex 0.0344711989 -0.0160000008 -0.039884802
  vertex 0.0299883243 0.0184999984 -0.0424729921
  endloop
 endfacet

 facet normal 0 0 0
  outer loop
  vertex 0.0374001302 0.0184999984 0.0290441308
  vertex 0.0360603854 0.0184999984 0.0340441316
  vertex 0.0370593891 -0.0160000008 0.0316323228
  endloop
 endfacet

 facet normal 0 0 0
  outer loop
  vertex 0.0370593891 -0.0160000008 0.0316323228
  vertex 0.0374001302 -0.0160000008 -0.0328137353
  vertex 0.0370593891 0.0184999984 -0.0354019254
  endloop
 endfacet

 facet normal 0 0 0
  outer loop
  vertex 0.0370593891 -0.0160000008 0.0316323228
  vertex 0.0370593891 0.0184999984 -0.0354019254
  vertex 0.0374001302 0.0184999984 0.0290441308
  endloop
 endfacet

 facet normal 0 0 0
  outer loop
  vertex 0.0344711989 -0.0160000008 0.0361151993
  vertex 0.0360603854 0.0184999984 0.0340441316
  vertex 0.0313831083 0.0184999984 0.0392032899
  endloop
 endfacet

 facet normal 0 0 0
  outer loop
  vertex 0.0344711989 -0.0160000008 0.0361151993
  vertex 0.0313831083 0.0184999984 0.0392032899
  vertex 0.0294001345 0.00849999953 0.0411862656
  endloop
 endfacet

 facet normal 0 0 0
  outer loop
  vertex 0.0344711989 -0.0160000008 0.0361151993
  vertex 0.0294001345 0.00849999953 0.0411862656
  vertex 0.0294001345 -0.0160000008 0.0411862656
  endloop
 endfacet

 facet normal 0 0 0
  outer loop
  vertex 0.0344711989 -0.0160000008 0.0361151993
  vertex 0.0294001345 -0.0160000008 0.0411862656
  vertex 0.00350013189 -0.0160000008 0.0411862656
  endloop
 endfacet

 facet normal 0 0 0
  outer loop
  vertex 0.0344711989 -0.0160000008 0.0361151993
  vertex 0.00350013189 -0.0160000008 0.0411862656
  vertex 0.00350013189 -0.0160000008 -0.0428137332
  endloop
 endfacet

 facet normal 0 0 0
  outer loop
  vertex 0.0344711989 -0.0160000008 0.0361151993
  vertex 0.00350013189 -0.0160000008 -0.0428137332
  vertex 0.0274001323 -0.0160000008 -0.0428137332
  endloop
 endfacet

 facet normal 0 0 0
  outer loop
  vertex 0.0344711989 -0.0160000008 0.0361151993
  vertex 0.0274001323 -0.0160000008 -0.0428137332
  vertex 0.0344711989 -0.0160000008 -0.039884802
  endloop
 endfacet

 facet normal 0 0 0
  outer loop
  vertex 0.0344711989 -0.0160000008 0.0361151993
  vertex 0.0344711989 -0.0160000008 -0.039884802
  vertex 0.0374001302 -0.0160000008 -0.0328137353
  endloop
 endfacet

 facet normal 0 0 0
  outer loop
  vertex 0.0344711989 -0.0160000008 0.0361151993
  vertex 0.0374001302 -0.0160000008 -0.0328137353
  vertex 0.0370593891 -0.0160000008 0.0316323228
  endloop
 endfacet

 facet normal 0 0 0
  outer loop
  vertex 0.0344711989 -0.0160000008 0.0361151993
  vertex 0.0370593891 -0.0160000008 0.0316323228
  vertex 0.0360603854 0.0184999984 0.0340441316
  endloop
 endfacet

 facet normal 0 0 0
  outer loop
  vertex 0.010685836 0.0167895239 -0.0428137332
  vertex 0.012294353 0.0182909779 -0.0428137332
  vertex 0.0299883243 0.0184999984 -0.0424729921
  endloop
 endfacet

 facet normal 0 0 0
  outer loop
  vertex 0.010685836 0.0167895239 -0.0428137332
  vertex 0.0299883243 0.0184999984 -0.0424729921
  vertex 0.0274001323 -0.0160000008 -0.0428137332
  endloop
 endfacet

 facet normal 0 0 0
  outer loop
  vertex 0.010685836 0.0167895239 -0.0428137332
  vertex 0.0274001323 -0.0160000008 -0.0428137332
  vertex 0.00350013189 -0.0160000008 -0.0428137332
  endloop
 endfacet

 facet normal 0 0 0
  outer loop
  vertex 0.010685836 0.0167895239 -0.0428137332
  vertex 0.00350013189 -0.0160000008 -0.0428137332
  vertex 0.00350013189 0.00169557671 -0.0428137332
  endloop
 endfacet

 facet normal 0 0 0
  outer loop
  vertex 0.010685836 0.0167895239 -0.0428137332
  vertex 0.0113474652 0.0176930483 0.0246520583
  vertex 0.012294353 0.0182909779 -0.0428137332
  endloop
 endfacet

endsolid AssimpScene
