solid AssimpScene
 facet normal 0 0 0
  outer loop
  vertex 0.00461237505 0.011078177 -0.00300000026
  vertex 0.0100078722 0.00662136683 -0.00300000026
  vertex 0.0116552832 -0.00264239893 -0.00300000026
  endloop
 endfacet

 facet normal 0 0 0
  outer loop
  vertex 0.00461237505 0.011078177 -0.00300000026
  vertex 0.0116552832 -0.00264239893 -0.00300000026
  vertex 0.00330465217 -0.00854939688 -0.00300000026
  endloop
 endfacet

 facet normal 0 0 0
  outer loop
  vertex 0.00461237505 0.011078177 -0.00300000026
  vertex 0.00330465217 -0.00854939688 -0.00300000026
  vertex -0.00499259541 -0.0109121036 -0.00300000026
  endloop
 endfacet

 facet normal 0 0 0
  outer loop
  vertex 0.00461237505 0.011078177 -0.00300000026
  vertex -0.00499259541 -0.0109121036 -0.00300000026
  vertex -0.0101641882 -0.00637881411 -0.00300000026
  endloop
 endfacet

 facet normal 0 0 0
  outer loop
  vertex 0.00461237505 0.011078177 -0.00300000026
  vertex -0.0101641882 -0.00637881411 -0.00300000026
  vertex -0.0118209748 -0.00206508138 -0.00300000026
  endloop
 endfacet

 facet normal 0 0 0
  outer loop
  vertex 0.00461237505 0.011078177 -0.00300000026
  vertex -0.0118209748 -0.00206508138 -0.00300000026
  vertex -0.0117248707 0.00255487417 -0.00300000026
  endloop
 endfacet

 facet normal 0 0 0
  outer loop
  vertex 0.00461237505 0.011078177 -0.00300000026
  vertex -0.0117248707 0.00255487417 -0.00300000026
  vertex -0.00989013165 0.00679597724 -0.00300000026
  endloop
 endfacet

 facet normal 0 0 0
  outer loop
  vertex 0.00461237505 0.011078177 -0.00300000026
  vertex -0.00989013165 0.00679597724 -0.00300000026
  vertex -0.00453449273 0.0111102834 -0.00300000026
  endloop
 endfacet

 facet normal 0 0 0
  outer loop
  vertex 0.00461237505 0.011078177 -0.00300000026
  vertex -0.00453449273 0.0111102834 -0.00300000026
  vertex 1.67638015e-10 0.012000001 -0.00300000026
  endloop
 endfacet

 facet normal 0 0 0
  outer loop
  vertex -0.00850000046 0.0142999999 0.00499999942
  vertex -0.00949999969 0.011500001 0.0289999973
  vertex -0.00849999953 0.011500001 0.0299999993
  endloop
 endfacet

 facet normal 0 0 0
  outer loop
  vertex -0.00850000046 0.0142999999 0.00499999942
  vertex -0.00849999953 0.011500001 0.0299999993
  vertex 0.0159287434 0.0144999996 0.0279459078
  endloop
 endfacet

 facet normal 0 0 0
  outer loop
  vertex 1.67638015e-10 0.012000001 -0.00300000026
  vertex -0.00850000046 0.0142999999 0.00499999942
  vertex 0.0235000011 0.0142999999 0.00499999942
  endloop
 endfacet

 facet normal 0 0 0
  outer loop
  vertex 0.0235000011 -0.0142999999 0.00649999967
  vertex -0.00850000046 -0.0142999999 0.00499999942
  vertex -0.00499259541 -0.0109121036 -0.00300000026
  endloop
 endfacet

 facet normal 0 0 0
  outer loop
  vertex 0.0149999987 -0.0144999996 0.0280000009
  vertex 0.0234999992 -0.011500001 0.0299999993
  vertex -0.00849999953 -0.011500001 0.0299999993
  endloop
 endfacet

 facet normal 0 0 0
  outer loop
  vertex 0.0223457292 -0.0144999996 0.0231686383
  vertex 0.0234999992 -0.011500001 0.0299999993
  vertex 0.0149999987 -0.0144999996 0.0280000009
  endloop
 endfacet

 facet normal 0 0 0
  outer loop
  vertex 0.0223457292 -0.0144999996 0.0231686383
  vertex 0.0149999987 -0.0144999996 0.0280000009
  vertex -0.00850000046 -0.0142999999 0.00499999942
  endloop
 endfacet

 facet normal 0 0 0
  outer loop
  vertex 0.0223457292 -0.0144999996 0.0231686383
  vertex -0.00850000046 -0.0142999999 0.00499999942
  vertex 0.0235000011 -0.0142999999 0.00649999967
  endloop
 endfacet

 facet normal 0 0 0
  outer loop
  vertex 0.0223457292 -0.0144999996 0.0231686383
  vertex 0.0235000011 -0.0142999999 0.00649999967
  vertex 0.0245000012 -0.0133000007 0.0100499988
  endloop
 endfacet

 facet normal 0 0 0
  outer loop
  vertex 0.0235000011 0.0142999999 0.00499999942
  vertex -0.00850000046 0.0142999999 0.00499999942
  vertex 0.0159287434 0.0144999996 0.0279459078
  endloop
 endfacet

 facet normal 0 0 0
  outer loop
  vertex 0.0235000011 0.0142999999 0.00499999942
  vertex 0.0159287434 0.0144999996 0.0279459078
  vertex 0.0226639118 0.0144999996 0.0222944263
  endloop
 endfacet

 facet normal 0 0 0
  outer loop
  vertex -0.0101641882 -0.00637881411 -0.00300000026
  vertex -0.00850000046 -0.0142999999 0.00499999942
  vertex -0.0118209748 -0.00206508138 -0.00300000026
  endloop
 endfacet

 facet normal 0 0 0
  outer loop
  vertex -0.0101641882 -0.00637881411 -0.00300000026
  vertex -0.00499259541 -0.0109121036 -0.00300000026
  vertex -0.00850000046 -0.0142999999 0.00499999942
  endloop
 endfacet

 facet normal 0 0 0
  outer loop
  vertex -0.00453449273 0.0111102834 -0.00300000026
  vertex -0.00989013165 0.00679597724 -0.00300000026
  vertex -0.00850000046 0.0142999999 0.00499999942
  endloop
 endfacet

 facet normal 0 0 0
  outer loop
  vertex -0.00453449273 0.0111102834 -0.00300000026
  vertex -0.00850000046 0.0142999999 0.00499999942
  vertex 1.67638015e-10 0.012000001 -0.00300000026
  endloop
 endfacet

 facet normal 0 0 0
  outer loop
  vertex 0.0234999992 0.011500001 0.0299999993
  vertex 0.0245000012 0.011500001 0.0289999973
  vertex 0.0226639118 0.0144999996 0.0222944263
  endloop
 endfacet

 facet normal 0 0 0
  outer loop
  vertex 0.0234999992 0.011500001 0.0299999993
  vertex 0.0226639118 0.0144999996 0.0222944263
  vertex 0.0159287434 0.0144999996 0.0279459078
  endloop
 endfacet

 facet normal 0 0 0
  outer loop
  vertex 0.0245000012 0.0133000007 0.00499999942
  vertex 0.0245000012 -0.00829999987 0.00499999942
  vertex 0.0116552832 -0.00264239893 -0.00300000026
  endloop
 endfacet

 facet normal 0 0 0
  outer loop
  vertex 0.0245000012 0.0133000007 0.00499999942
  vertex 0.0116552832 -0.00264239893 -0.00300000026
  vertex 0.0100078722 0.00662136683 -0.00300000026
  endloop
 endfacet

 facet normal 0 0 0
  outer loop
  vertex 0.0245000012 0.0133000007 0.00499999942
  vertex 0.0235000011 0.0142999999 0.00499999942
  vertex 0.0226639118 0.0144999996 0.0222944263
  endloop
 endfacet

 facet normal 0 0 0
  outer loop
  vertex 0.0245000012 0.0133000007 0.00499999942
  vertex 0.0226639118 0.0144999996 0.0222944263
  vertex 0.0245000012 0.011500001 0.0289999973
  endloop
 endfacet

 facet normal 0 0 0
  outer loop
  vertex 0.0245000012 -0.011500001 0.0289999973
  vertex 0.0245000012 0.011500001 0.0289999973
  vertex 0.0234999992 0.011500001 0.0299999993
  endloop
 endfacet

 facet normal 0 0 0
  outer loop
  vertex 0.0245000012 -0.011500001 0.0289999973
  vertex 0.0234999992 0.011500001 0.0299999993
  vertex 0.0234999992 -0.011500001 0.0299999993
  endloop
 endfacet

 facet normal 0 0 0
  outer loop
  vertex 0.0245000012 -0.011500001 0.0289999973
  vertex 0.0234999992 -0.011500001 0.0299999993
  vertex 0.0223457292 -0.0144999996 0.0231686383
  endloop
 endfacet

 facet normal 0 0 0
  outer loop
  vertex 0.0245000012 -0.011500001 0.0289999973
  vertex 0.0223457292 -0.0144999996 0.0231686383
  vertex 0.0245000012 -0.0133000007 0.0100499988
  endloop
 endfacet

 facet normal 0 0 0
  outer loop
  vertex -0.00949999969 -0.011500001 0.0289999973
  vertex -0.00949999969 0.011500001 0.0289999973
  vertex -0.0120000001 -1.38777878e-17 2.23517385e-10
  endloop
 endfacet

 facet normal 0 0 0
  outer loop
  vertex -0.00949999969 -0.011500001 0.0289999973
  vertex -0.0120000001 -1.38777878e-17 2.23517385e-10
  vertex -0.0118209748 -0.00206508138 -0.00300000026
  endloop
 endfacet

 facet normal 0 0 0
  outer loop
  vertex -0.00949999969 -0.011500001 0.0289999973
  vertex -0.0118209748 -0.00206508138 -0.00300000026
  vertex -0.00850000046 -0.0142999999 0.00499999942
  endloop
 endfacet

 facet normal 0 0 0
  outer loop
  vertex -0.00850000046 -0.0142999999 0.00499999942
  vertex 0.0149999987 -0.0144999996 0.0280000009
  vertex -0.00849999953 -0.011500001 0.0299999993
  endloop
 endfacet

 facet normal 0 0 0
  outer loop
  vertex -0.00850000046 -0.0142999999 0.00499999942
  vertex -0.00849999953 -0.011500001 0.0299999993
  vertex -0.00949999969 -0.011500001 0.0289999973
  endloop
 endfacet

 facet normal 0 0 0
  outer loop
  vertex -0.00849999953 0.011500001 0.0299999993
  vertex -0.00849999953 -0.011500001 0.0299999993
  vertex 0.0234999992 -0.011500001 0.0299999993
  endloop
 endfacet

 facet normal 0 0 0
  outer loop
  vertex -0.00849999953 0.011500001 0.0299999993
  vertex 0.0234999992 -0.011500001 0.0299999993
  vertex 0.0234999992 0.011500001 0.0299999993
  endloop
 endfacet

 facet normal 0 0 0
  outer loop
  vertex -0.00849999953 0.011500001 0.0299999993
  vertex 0.0234999992 0.011500001 0.0299999993
  vertex 0.0159287434 0.0144999996 0.0279459078
  endloop
 endfacet

 facet normal 0 0 0
  outer loop
  vertex -0.00849999953 0.011500001 0.0299999993
  vertex -0.00949999969 0.011500001 0.0289999973
  vertex -0.00949999969 -0.011500001 0.0289999973
  endloop
 endfacet

 facet normal 0 0 0
  outer loop
  vertex -0.00849999953 0.011500001 0.0299999993
  vertex -0.00949999969 -0.011500001 0.0289999973
  vertex -0.00849999953 -0.011500001 0.0299999993
  endloop
 endfacet

 facet normal 0 0 0
  outer loop
  vertex -0.0117248707 0.00255487417 -0.00300000026
  vertex -0.0118209748 -0.00206508138 -0.00300000026
  vertex -0.0120000001 -1.38777878e-17 2.23517385e-10
  endloop
 endfacet

 facet normal 0 0 0
  outer loop
  vertex -0.0117248707 0.00255487417 -0.00300000026
  vertex -0.0120000001 -1.38777878e-17 2.23517385e-10
  vertex -0.00949999969 0.011500001 0.0289999973
  endloop
 endfacet

 facet normal 0 0 0
  outer loop
  vertex -0.0117248707 0.00255487417 -0.00300000026
  vertex -0.00949999969 0.011500001 0.0289999973
  vertex -0.00850000046 0.0142999999 0.00499999942
  endloop
 endfacet

 facet normal 0 0 0
  outer loop
  vertex -0.0117248707 0.00255487417 -0.00300000026
  vertex -0.00850000046 0.0142999999 0.00499999942
  vertex -0.00989013165 0.00679597724 -0.00300000026
  endloop
 endfacet

 facet normal 0 0 0
  outer loop
  vertex 0.00330465217 -0.00854939688 -0.00300000026
  vertex 0.0116552832 -0.00264239893 -0.00300000026
  vertex 0.0235000011 -0.0142999999 0.00649999967
  endloop
 endfacet

 facet normal 0 0 0
  outer loop
  vertex 0.00330465217 -0.00854939688 -0.00300000026
  vertex 0.0235000011 -0.0142999999 0.00649999967
  vertex -0.00499259541 -0.0109121036 -0.00300000026
  endloop
 endfacet

 facet normal 0 0 0
  outer loop
  vertex 0.0245000012 -0.0133000007 0.00649999967
  vertex 0.0245000012 -0.0133000007 0.0100499988
  vertex 0.0235000011 -0.0142999999 0.00649999967
  endloop
 endfacet

 facet normal 0 0 0
  outer loop
  vertex 0.0245000012 -0.0133000007 0.00649999967
  vertex 0.0235000011 -0.0142999999 0.00649999967
  vertex 0.0116552832 -0.00264239893 -0.00300000026
  endloop
 endfacet

 facet normal 0 0 0
  outer loop
  vertex 0.0245000012 -0.0133000007 0.00649999967
  vertex 0.0116552832 -0.00264239893 -0.00300000026
  vertex 0.0245000012 -0.00829999987 0.00499999942
  endloop
 endfacet

 facet normal 0 0 0
  outer loop
  vertex 0.0245000012 -0.0133000007 0.00649999967
  vertex 0.0245000012 -0.00829999987 0.00499999942
  vertex 0.0245000012 0.0133000007 0.00499999942
  endloop
 endfacet

 facet normal 0 0 0
  outer loop
  vertex 0.0245000012 -0.0133000007 0.00649999967
  vertex 0.0245000012 0.0133000007 0.00499999942
  vertex 0.0245000012 0.011500001 0.0289999973
  endloop
 endfacet

 facet normal 0 0 0
  outer loop
  vertex 0.0245000012 -0.0133000007 0.00649999967
  vertex 0.0245000012 0.011500001 0.0289999973
  vertex 0.0245000012 -0.011500001 0.0289999973
  endloop
 endfacet

 facet normal 0 0 0
  outer loop
  vertex 0.0245000012 -0.0133000007 0.00649999967
  vertex 0.0245000012 -0.011500001 0.0289999973
  vertex 0.0245000012 -0.0133000007 0.0100499988
  endloop
 endfacet

 facet normal 0 0 0
  outer loop
  vertex 0.00461237505 0.011078177 -0.00300000026
  vertex 0.0235000011 0.0142999999 0.00499999942
  vertex 0.0245000012 0.0133000007 0.00499999942
  endloop
 endfacet

 facet normal 0 0 0
  outer loop
  vertex 0.00461237505 0.011078177 -0.00300000026
  vertex 0.0245000012 0.0133000007 0.00499999942
  vertex 0.0100078722 0.00662136683 -0.00300000026
  endloop
 endfacet

 facet normal 0 0 0
  outer loop
  vertex 0.00461237505 0.011078177 -0.00300000026
  vertex 1.67638015e-10 0.012000001 -0.00300000026
  vertex 0.0235000011 0.0142999999 0.00499999942
  endloop
 endfacet

endsolid AssimpScene
